%TF.GenerationSoftware,KiCad,Pcbnew,9.0.7-9.0.7~ubuntu22.04.1*%
%TF.CreationDate,2026-02-25T12:38:16-06:00*%
%TF.ProjectId,VoltageTap_B,566f6c74-6167-4655-9461-705f422e6b69,rev?*%
%TF.SameCoordinates,Original*%
%TF.FileFunction,Profile,NP*%
%FSLAX46Y46*%
G04 Gerber Fmt 4.6, Leading zero omitted, Abs format (unit mm)*
G04 Created by KiCad (PCBNEW 9.0.7-9.0.7~ubuntu22.04.1) date 2026-02-25 12:38:16*
%MOMM*%
%LPD*%
G01*
G04 APERTURE LIST*
%TA.AperFunction,Profile*%
%ADD10C,0.050000*%
%TD*%
%ADD11C,0.050000*%
G04 APERTURE END LIST*
D10*
X170000000Y-136000000D02*
X170000000Y-123800000D01*
X167100000Y-121700000D02*
X168100000Y-120000000D01*
X170000000Y-31000000D02*
X170000000Y-98600000D01*
X122100000Y-120000000D02*
X123100000Y-118300000D01*
X123100000Y-118300000D02*
X122300000Y-117000000D01*
X167800000Y-123000000D02*
X167100000Y-121700000D01*
X170000000Y-136000000D02*
X120000000Y-136000000D01*
X169200000Y-123000001D02*
X167800000Y-123000000D01*
D11*
X170000000Y-123800000D02*
X169999990Y-123795111D01*
X169999960Y-123790242D01*
X169999910Y-123785393D01*
X169999841Y-123780564D01*
X169999752Y-123775754D01*
X169999643Y-123770964D01*
X169999515Y-123766193D01*
X169999367Y-123761442D01*
X169999200Y-123756711D01*
X169999013Y-123751999D01*
X169998808Y-123747305D01*
X169998583Y-123742632D01*
X169998339Y-123737977D01*
X169998076Y-123733341D01*
X169997795Y-123728724D01*
X169997494Y-123724126D01*
X169997175Y-123719547D01*
X169996837Y-123714986D01*
X169996480Y-123710444D01*
X169996105Y-123705921D01*
X169995711Y-123701415D01*
X169995299Y-123696929D01*
X169994869Y-123692460D01*
X169994420Y-123688010D01*
X169993953Y-123683578D01*
X169993468Y-123679164D01*
X169992964Y-123674768D01*
X169992443Y-123670390D01*
X169991904Y-123666029D01*
X169991347Y-123661687D01*
X169990771Y-123657362D01*
X169990179Y-123653055D01*
X169989568Y-123648765D01*
X169988940Y-123644493D01*
X169988294Y-123640238D01*
X169987631Y-123636001D01*
X169986950Y-123631780D01*
X169986251Y-123627577D01*
X169985536Y-123623390D01*
X169984803Y-123619222D01*
X169984052Y-123615069D01*
X169983285Y-123610935D01*
X169982500Y-123606815D01*
X169981698Y-123602714D01*
X169980879Y-123598628D01*
X169980043Y-123594561D01*
X169979190Y-123590508D01*
X169978320Y-123586473D01*
X169977434Y-123582453D01*
X169976530Y-123578451D01*
X169975610Y-123574463D01*
X169974673Y-123570493D01*
X169973719Y-123566538D01*
X169972748Y-123562600D01*
X169971761Y-123558677D01*
X169970758Y-123554771D01*
X169969737Y-123550879D01*
X169968701Y-123547005D01*
X169967647Y-123543145D01*
X169966578Y-123539302D01*
X169965492Y-123535473D01*
X169964390Y-123531661D01*
X169963271Y-123527862D01*
X169962137Y-123524082D01*
X169960985Y-123520314D01*
X169959818Y-123516564D01*
X169957435Y-123509106D01*
X169954988Y-123501709D01*
X169952476Y-123494371D01*
X169949901Y-123487092D01*
X169947261Y-123479872D01*
X169944558Y-123472711D01*
X169941792Y-123465607D01*
X169938963Y-123458560D01*
X169936070Y-123451570D01*
X169933114Y-123444636D01*
X169930096Y-123437758D01*
X169927015Y-123430936D01*
X169923872Y-123424169D01*
X169920666Y-123417456D01*
X169917397Y-123410798D01*
X169914067Y-123404194D01*
X169910674Y-123397643D01*
X169907219Y-123391145D01*
X169903701Y-123384700D01*
X169900122Y-123378307D01*
X169896480Y-123371966D01*
X169892776Y-123365677D01*
X169889010Y-123359440D01*
X169885182Y-123353253D01*
X169881291Y-123347117D01*
X169877338Y-123341032D01*
X169873322Y-123334996D01*
X169869244Y-123329011D01*
X169865104Y-123323075D01*
X169860901Y-123317189D01*
X169856635Y-123311352D01*
X169852306Y-123305564D01*
X169847914Y-123299824D01*
X169843459Y-123294133D01*
X169838941Y-123288491D01*
X169834359Y-123282896D01*
X169829713Y-123277350D01*
X169825004Y-123271851D01*
X169820230Y-123266400D01*
X169815393Y-123260997D01*
X169810491Y-123255641D01*
X169805524Y-123250333D01*
X169800493Y-123245072D01*
X169795396Y-123239858D01*
X169790235Y-123234691D01*
X169785008Y-123229572D01*
X169779715Y-123224500D01*
X169774356Y-123219474D01*
X169768931Y-123214496D01*
X169763440Y-123209565D01*
X169757882Y-123204681D01*
X169752258Y-123199845D01*
X169746566Y-123195055D01*
X169740806Y-123190313D01*
X169734980Y-123185619D01*
X169729085Y-123180972D01*
X169723122Y-123176373D01*
X169717091Y-123171821D01*
X169710992Y-123167318D01*
X169704824Y-123162863D01*
X169698586Y-123158456D01*
X169692280Y-123154097D01*
X169685905Y-123149788D01*
X169679459Y-123145527D01*
X169672945Y-123141316D01*
X169666360Y-123137154D01*
X169659705Y-123133043D01*
X169652981Y-123128981D01*
X169646186Y-123124970D01*
X169639320Y-123121009D01*
X169632385Y-123117100D01*
X169625379Y-123113242D01*
X169618302Y-123109437D01*
X169611156Y-123105683D01*
X169603938Y-123101983D01*
X169596651Y-123098335D01*
X169589294Y-123094742D01*
X169581866Y-123091202D01*
X169574369Y-123087717D01*
X169566803Y-123084288D01*
X169559167Y-123080914D01*
X169551462Y-123077597D01*
X169543689Y-123074336D01*
X169535849Y-123071133D01*
X169527940Y-123067988D01*
X169519966Y-123064902D01*
X169511925Y-123061876D01*
X169503819Y-123058909D01*
X169495650Y-123056004D01*
X169487417Y-123053160D01*
X169479122Y-123050378D01*
X169470767Y-123047659D01*
X169462352Y-123045005D01*
X169453881Y-123042415D01*
X169445353Y-123039890D01*
X169436772Y-123037432D01*
X169428139Y-123035042D01*
X169419458Y-123032719D01*
X169410730Y-123030466D01*
X169401959Y-123028283D01*
X169393148Y-123026172D01*
X169384302Y-123024132D01*
X169375423Y-123022166D01*
X169366518Y-123020274D01*
X169357590Y-123018458D01*
X169348647Y-123016718D01*
X169339694Y-123015056D01*
X169330740Y-123013473D01*
X169321792Y-123011971D01*
X169312860Y-123010550D01*
X169303956Y-123009212D01*
X169295092Y-123007958D01*
X169286283Y-123006790D01*
X169277547Y-123005710D01*
X169268903Y-123004718D01*
X169260376Y-123003816D01*
X169251998Y-123003006D01*
X169243804Y-123002290D01*
X169235842Y-123001669D01*
X169228175Y-123001144D01*
X169220888Y-123000718D01*
X169214106Y-123000391D01*
X169208027Y-123000164D01*
X169203026Y-123000037D01*
X169200000Y-123000000D01*
D10*
X120000000Y-31000000D02*
X120000000Y-116200000D01*
X122300000Y-117000000D02*
X120800000Y-117000000D01*
D11*
X169200000Y-117000000D02*
X169204889Y-116999990D01*
X169209758Y-116999960D01*
X169214607Y-116999910D01*
X169219437Y-116999841D01*
X169224246Y-116999752D01*
X169229036Y-116999643D01*
X169233807Y-116999515D01*
X169238558Y-116999367D01*
X169243289Y-116999200D01*
X169248001Y-116999013D01*
X169252695Y-116998808D01*
X169257368Y-116998583D01*
X169262023Y-116998339D01*
X169266659Y-116998076D01*
X169271276Y-116997795D01*
X169275874Y-116997494D01*
X169280454Y-116997175D01*
X169285014Y-116996837D01*
X169289556Y-116996480D01*
X169294079Y-116996105D01*
X169298585Y-116995711D01*
X169303071Y-116995299D01*
X169307540Y-116994869D01*
X169311990Y-116994420D01*
X169316422Y-116993953D01*
X169320836Y-116993468D01*
X169325232Y-116992964D01*
X169329610Y-116992443D01*
X169333971Y-116991904D01*
X169338313Y-116991347D01*
X169342638Y-116990771D01*
X169346945Y-116990179D01*
X169351235Y-116989568D01*
X169355507Y-116988940D01*
X169359762Y-116988294D01*
X169363999Y-116987631D01*
X169368220Y-116986950D01*
X169372423Y-116986251D01*
X169376610Y-116985536D01*
X169380778Y-116984803D01*
X169384931Y-116984052D01*
X169389066Y-116983285D01*
X169393185Y-116982500D01*
X169397286Y-116981698D01*
X169401372Y-116980879D01*
X169405440Y-116980043D01*
X169409493Y-116979190D01*
X169413527Y-116978320D01*
X169417548Y-116977434D01*
X169421549Y-116976530D01*
X169425537Y-116975610D01*
X169429507Y-116974673D01*
X169433462Y-116973719D01*
X169437400Y-116972748D01*
X169441324Y-116971761D01*
X169445229Y-116970758D01*
X169449121Y-116969737D01*
X169452995Y-116968701D01*
X169456856Y-116967647D01*
X169460698Y-116966578D01*
X169464528Y-116965492D01*
X169468339Y-116964390D01*
X169472138Y-116963271D01*
X169475918Y-116962137D01*
X169479687Y-116960985D01*
X169483437Y-116959818D01*
X169490894Y-116957435D01*
X169498291Y-116954988D01*
X169505629Y-116952476D01*
X169512908Y-116949901D01*
X169520128Y-116947261D01*
X169527290Y-116944558D01*
X169534394Y-116941792D01*
X169541440Y-116938963D01*
X169548431Y-116936070D01*
X169555364Y-116933114D01*
X169562242Y-116930096D01*
X169569064Y-116927015D01*
X169575831Y-116923872D01*
X169582544Y-116920666D01*
X169589202Y-116917397D01*
X169595807Y-116914067D01*
X169602358Y-116910674D01*
X169608855Y-116907219D01*
X169615301Y-116903701D01*
X169621693Y-116900122D01*
X169628034Y-116896480D01*
X169634323Y-116892776D01*
X169640561Y-116889010D01*
X169646747Y-116885182D01*
X169652883Y-116881291D01*
X169658969Y-116877338D01*
X169665004Y-116873322D01*
X169670989Y-116869245D01*
X169676925Y-116865104D01*
X169682811Y-116860901D01*
X169688648Y-116856635D01*
X169694437Y-116852306D01*
X169700176Y-116847914D01*
X169705867Y-116843459D01*
X169711510Y-116838941D01*
X169717104Y-116834359D01*
X169722650Y-116829713D01*
X169728149Y-116825004D01*
X169733600Y-116820230D01*
X169739003Y-116815393D01*
X169744359Y-116810491D01*
X169749667Y-116805524D01*
X169754928Y-116800493D01*
X169760142Y-116795397D01*
X169765309Y-116790235D01*
X169770428Y-116785008D01*
X169775501Y-116779715D01*
X169780526Y-116774356D01*
X169785504Y-116768932D01*
X169790435Y-116763440D01*
X169795319Y-116757882D01*
X169800156Y-116752258D01*
X169804945Y-116746566D01*
X169809687Y-116740807D01*
X169814381Y-116734980D01*
X169819028Y-116729085D01*
X169823628Y-116723123D01*
X169828179Y-116717092D01*
X169832682Y-116710992D01*
X169837138Y-116704824D01*
X169841545Y-116698587D01*
X169845903Y-116692280D01*
X169850212Y-116685905D01*
X169854473Y-116679460D01*
X169858684Y-116672945D01*
X169862846Y-116666360D01*
X169866958Y-116659706D01*
X169871019Y-116652981D01*
X169875031Y-116646186D01*
X169878991Y-116639321D01*
X169882900Y-116632385D01*
X169886758Y-116625379D01*
X169890564Y-116618303D01*
X169894317Y-116611156D01*
X169898018Y-116603939D01*
X169901665Y-116596651D01*
X169905259Y-116589294D01*
X169908798Y-116581867D01*
X169912283Y-116574370D01*
X169915712Y-116566803D01*
X169919086Y-116559167D01*
X169922403Y-116551463D01*
X169925664Y-116543690D01*
X169928867Y-116535849D01*
X169932012Y-116527941D01*
X169935098Y-116519966D01*
X169938124Y-116511926D01*
X169941091Y-116503820D01*
X169943996Y-116495650D01*
X169946840Y-116487417D01*
X169949622Y-116479123D01*
X169952341Y-116470767D01*
X169954995Y-116462353D01*
X169957585Y-116453881D01*
X169960110Y-116445354D01*
X169962568Y-116436772D01*
X169964958Y-116428140D01*
X169967281Y-116419458D01*
X169969534Y-116410731D01*
X169971717Y-116401960D01*
X169973828Y-116393149D01*
X169975868Y-116384302D01*
X169977834Y-116375424D01*
X169979726Y-116366518D01*
X169981543Y-116357591D01*
X169983282Y-116348648D01*
X169984944Y-116339695D01*
X169986527Y-116330740D01*
X169988029Y-116321793D01*
X169989450Y-116312861D01*
X169990788Y-116303957D01*
X169992042Y-116295093D01*
X169993210Y-116286284D01*
X169994290Y-116277547D01*
X169995282Y-116268903D01*
X169996184Y-116260377D01*
X169996994Y-116251998D01*
X169997710Y-116243804D01*
X169998331Y-116235843D01*
X169998856Y-116228176D01*
X169999282Y-116220889D01*
X169999609Y-116214106D01*
X169999836Y-116208028D01*
X169999963Y-116203027D01*
X170000000Y-116200000D01*
X120000000Y-116200000D02*
X120000010Y-116204889D01*
X120000040Y-116209758D01*
X120000090Y-116214607D01*
X120000159Y-116219436D01*
X120000248Y-116224246D01*
X120000357Y-116229036D01*
X120000485Y-116233807D01*
X120000633Y-116238558D01*
X120000800Y-116243289D01*
X120000987Y-116248001D01*
X120001192Y-116252695D01*
X120001417Y-116257368D01*
X120001661Y-116262023D01*
X120001924Y-116266659D01*
X120002205Y-116271276D01*
X120002506Y-116275874D01*
X120002825Y-116280453D01*
X120003163Y-116285014D01*
X120003520Y-116289556D01*
X120003895Y-116294079D01*
X120004289Y-116298585D01*
X120004701Y-116303071D01*
X120005131Y-116307540D01*
X120005580Y-116311990D01*
X120006047Y-116316422D01*
X120006532Y-116320836D01*
X120007036Y-116325232D01*
X120007557Y-116329610D01*
X120008096Y-116333971D01*
X120008653Y-116338313D01*
X120009229Y-116342638D01*
X120009821Y-116346945D01*
X120010432Y-116351235D01*
X120011060Y-116355507D01*
X120011706Y-116359762D01*
X120012369Y-116363999D01*
X120013050Y-116368220D01*
X120013749Y-116372423D01*
X120014464Y-116376610D01*
X120015197Y-116380778D01*
X120015948Y-116384931D01*
X120016715Y-116389065D01*
X120017500Y-116393185D01*
X120018302Y-116397286D01*
X120019121Y-116401372D01*
X120019957Y-116405439D01*
X120020810Y-116409492D01*
X120021680Y-116413527D01*
X120022566Y-116417547D01*
X120023470Y-116421549D01*
X120024390Y-116425537D01*
X120025327Y-116429507D01*
X120026281Y-116433462D01*
X120027252Y-116437400D01*
X120028239Y-116441323D01*
X120029242Y-116445229D01*
X120030263Y-116449121D01*
X120031299Y-116452995D01*
X120032353Y-116456855D01*
X120033422Y-116460698D01*
X120034508Y-116464527D01*
X120035610Y-116468339D01*
X120036729Y-116472138D01*
X120037863Y-116475918D01*
X120039015Y-116479686D01*
X120040182Y-116483436D01*
X120042565Y-116490894D01*
X120045012Y-116498291D01*
X120047524Y-116505629D01*
X120050099Y-116512908D01*
X120052739Y-116520128D01*
X120055442Y-116527289D01*
X120058208Y-116534393D01*
X120061037Y-116541440D01*
X120063930Y-116548430D01*
X120066886Y-116555364D01*
X120069904Y-116562242D01*
X120072985Y-116569064D01*
X120076128Y-116575831D01*
X120079334Y-116582544D01*
X120082603Y-116589202D01*
X120085933Y-116595806D01*
X120089326Y-116602357D01*
X120092781Y-116608855D01*
X120096299Y-116615300D01*
X120099878Y-116621693D01*
X120103520Y-116628034D01*
X120107224Y-116634323D01*
X120110990Y-116640560D01*
X120114818Y-116646747D01*
X120118709Y-116652883D01*
X120122662Y-116658968D01*
X120126678Y-116665004D01*
X120130756Y-116670989D01*
X120134896Y-116676925D01*
X120139099Y-116682811D01*
X120143365Y-116688648D01*
X120147694Y-116694436D01*
X120152086Y-116700176D01*
X120156541Y-116705867D01*
X120161059Y-116711509D01*
X120165641Y-116717104D01*
X120170287Y-116722650D01*
X120174996Y-116728149D01*
X120179770Y-116733600D01*
X120184607Y-116739003D01*
X120189509Y-116744359D01*
X120194476Y-116749667D01*
X120199507Y-116754928D01*
X120204604Y-116760142D01*
X120209765Y-116765309D01*
X120214992Y-116770428D01*
X120220285Y-116775500D01*
X120225644Y-116780526D01*
X120231069Y-116785504D01*
X120236560Y-116790435D01*
X120242118Y-116795319D01*
X120247742Y-116800155D01*
X120253434Y-116804945D01*
X120259194Y-116809687D01*
X120265020Y-116814381D01*
X120270915Y-116819028D01*
X120276878Y-116823627D01*
X120282909Y-116828179D01*
X120289008Y-116832682D01*
X120295176Y-116837137D01*
X120301414Y-116841544D01*
X120307720Y-116845903D01*
X120314095Y-116850212D01*
X120320541Y-116854473D01*
X120327055Y-116858684D01*
X120333640Y-116862846D01*
X120340295Y-116866957D01*
X120347019Y-116871019D01*
X120353814Y-116875030D01*
X120360680Y-116878991D01*
X120367615Y-116882900D01*
X120374621Y-116886758D01*
X120381698Y-116890563D01*
X120388844Y-116894317D01*
X120396062Y-116898017D01*
X120403349Y-116901665D01*
X120410706Y-116905258D01*
X120418134Y-116908798D01*
X120425631Y-116912283D01*
X120433197Y-116915712D01*
X120440833Y-116919086D01*
X120448538Y-116922403D01*
X120456311Y-116925664D01*
X120464151Y-116928867D01*
X120472060Y-116932012D01*
X120480034Y-116935098D01*
X120488075Y-116938124D01*
X120496181Y-116941091D01*
X120504350Y-116943996D01*
X120512583Y-116946840D01*
X120520878Y-116949622D01*
X120529233Y-116952341D01*
X120537648Y-116954995D01*
X120546119Y-116957585D01*
X120554647Y-116960110D01*
X120563228Y-116962568D01*
X120571861Y-116964958D01*
X120580542Y-116967281D01*
X120589270Y-116969534D01*
X120598041Y-116971717D01*
X120606852Y-116973828D01*
X120615698Y-116975868D01*
X120624577Y-116977834D01*
X120633482Y-116979726D01*
X120642410Y-116981542D01*
X120651353Y-116983282D01*
X120660306Y-116984944D01*
X120669260Y-116986527D01*
X120678208Y-116988029D01*
X120687140Y-116989450D01*
X120696044Y-116990788D01*
X120704908Y-116992042D01*
X120713717Y-116993210D01*
X120722453Y-116994290D01*
X120731097Y-116995282D01*
X120739624Y-116996184D01*
X120748002Y-116996994D01*
X120756196Y-116997710D01*
X120764158Y-116998331D01*
X120771825Y-116998856D01*
X120779112Y-116999282D01*
X120785894Y-116999609D01*
X120791973Y-116999836D01*
X120796974Y-116999963D01*
X120800000Y-117000000D01*
D10*
X167900000Y-117000000D02*
X169200000Y-117000000D01*
X123100000Y-121700000D02*
X122100000Y-120000000D01*
X168100000Y-120000000D02*
X167100000Y-118300000D01*
D11*
X120800000Y-123000000D02*
X120795111Y-123000010D01*
X120790242Y-123000040D01*
X120785393Y-123000090D01*
X120780564Y-123000159D01*
X120775754Y-123000248D01*
X120770964Y-123000357D01*
X120766193Y-123000485D01*
X120761442Y-123000633D01*
X120756711Y-123000800D01*
X120751999Y-123000987D01*
X120747305Y-123001192D01*
X120742632Y-123001417D01*
X120737977Y-123001661D01*
X120733341Y-123001924D01*
X120728724Y-123002205D01*
X120724126Y-123002506D01*
X120719547Y-123002825D01*
X120714986Y-123003163D01*
X120710444Y-123003520D01*
X120705921Y-123003895D01*
X120701415Y-123004289D01*
X120696929Y-123004701D01*
X120692460Y-123005131D01*
X120688010Y-123005580D01*
X120683578Y-123006047D01*
X120679164Y-123006532D01*
X120674768Y-123007036D01*
X120670390Y-123007557D01*
X120666029Y-123008096D01*
X120661687Y-123008653D01*
X120657362Y-123009229D01*
X120653055Y-123009821D01*
X120648765Y-123010432D01*
X120644493Y-123011060D01*
X120640238Y-123011706D01*
X120636001Y-123012369D01*
X120631780Y-123013050D01*
X120627577Y-123013749D01*
X120623390Y-123014464D01*
X120619222Y-123015197D01*
X120615069Y-123015948D01*
X120610935Y-123016715D01*
X120606815Y-123017500D01*
X120602714Y-123018302D01*
X120598628Y-123019121D01*
X120594561Y-123019957D01*
X120590508Y-123020810D01*
X120586473Y-123021680D01*
X120582453Y-123022566D01*
X120578451Y-123023470D01*
X120574463Y-123024390D01*
X120570493Y-123025327D01*
X120566538Y-123026281D01*
X120562600Y-123027252D01*
X120558677Y-123028239D01*
X120554771Y-123029242D01*
X120550879Y-123030263D01*
X120547005Y-123031299D01*
X120543145Y-123032353D01*
X120539302Y-123033422D01*
X120535473Y-123034508D01*
X120531661Y-123035610D01*
X120527862Y-123036729D01*
X120524082Y-123037863D01*
X120520314Y-123039015D01*
X120516564Y-123040182D01*
X120509106Y-123042565D01*
X120501709Y-123045012D01*
X120494371Y-123047524D01*
X120487092Y-123050099D01*
X120479872Y-123052739D01*
X120472711Y-123055442D01*
X120465607Y-123058208D01*
X120458560Y-123061037D01*
X120451570Y-123063930D01*
X120444636Y-123066886D01*
X120437758Y-123069904D01*
X120430936Y-123072985D01*
X120424169Y-123076128D01*
X120417456Y-123079334D01*
X120410798Y-123082603D01*
X120404194Y-123085933D01*
X120397643Y-123089326D01*
X120391145Y-123092781D01*
X120384700Y-123096299D01*
X120378307Y-123099878D01*
X120371966Y-123103520D01*
X120365677Y-123107224D01*
X120359440Y-123110990D01*
X120353253Y-123114818D01*
X120347117Y-123118709D01*
X120341032Y-123122662D01*
X120334996Y-123126678D01*
X120329011Y-123130756D01*
X120323075Y-123134896D01*
X120317189Y-123139099D01*
X120311352Y-123143365D01*
X120305564Y-123147694D01*
X120299824Y-123152086D01*
X120294133Y-123156541D01*
X120288491Y-123161059D01*
X120282896Y-123165641D01*
X120277350Y-123170287D01*
X120271851Y-123174996D01*
X120266400Y-123179770D01*
X120260997Y-123184607D01*
X120255641Y-123189509D01*
X120250333Y-123194476D01*
X120245072Y-123199507D01*
X120239858Y-123204604D01*
X120234691Y-123209765D01*
X120229572Y-123214992D01*
X120224500Y-123220285D01*
X120219474Y-123225644D01*
X120214496Y-123231069D01*
X120209565Y-123236560D01*
X120204681Y-123242118D01*
X120199845Y-123247742D01*
X120195055Y-123253434D01*
X120190313Y-123259194D01*
X120185619Y-123265020D01*
X120180972Y-123270915D01*
X120176373Y-123276878D01*
X120171821Y-123282909D01*
X120167318Y-123289008D01*
X120162863Y-123295176D01*
X120158456Y-123301414D01*
X120154097Y-123307720D01*
X120149788Y-123314095D01*
X120145527Y-123320541D01*
X120141316Y-123327055D01*
X120137154Y-123333640D01*
X120133043Y-123340295D01*
X120128981Y-123347019D01*
X120124970Y-123353814D01*
X120121009Y-123360680D01*
X120117100Y-123367615D01*
X120113242Y-123374621D01*
X120109437Y-123381698D01*
X120105683Y-123388844D01*
X120101983Y-123396062D01*
X120098335Y-123403349D01*
X120094742Y-123410706D01*
X120091202Y-123418134D01*
X120087717Y-123425631D01*
X120084288Y-123433197D01*
X120080914Y-123440833D01*
X120077597Y-123448538D01*
X120074336Y-123456311D01*
X120071133Y-123464151D01*
X120067988Y-123472060D01*
X120064902Y-123480034D01*
X120061876Y-123488075D01*
X120058909Y-123496181D01*
X120056004Y-123504350D01*
X120053160Y-123512583D01*
X120050378Y-123520878D01*
X120047659Y-123529233D01*
X120045005Y-123537648D01*
X120042415Y-123546119D01*
X120039890Y-123554647D01*
X120037432Y-123563228D01*
X120035042Y-123571861D01*
X120032719Y-123580542D01*
X120030466Y-123589270D01*
X120028283Y-123598041D01*
X120026172Y-123606852D01*
X120024132Y-123615698D01*
X120022166Y-123624577D01*
X120020274Y-123633482D01*
X120018458Y-123642410D01*
X120016718Y-123651353D01*
X120015056Y-123660306D01*
X120013473Y-123669260D01*
X120011971Y-123678208D01*
X120010550Y-123687140D01*
X120009212Y-123696044D01*
X120007958Y-123704908D01*
X120006790Y-123713717D01*
X120005710Y-123722453D01*
X120004718Y-123731097D01*
X120003816Y-123739624D01*
X120003006Y-123748002D01*
X120002290Y-123756196D01*
X120001669Y-123764158D01*
X120001144Y-123771825D01*
X120000718Y-123779112D01*
X120000391Y-123785894D01*
X120000164Y-123791973D01*
X120000037Y-123796974D01*
X120000000Y-123800000D01*
D10*
X167100000Y-118300000D02*
X167900000Y-117000000D01*
X120800000Y-123000000D02*
X122400000Y-123000000D01*
X122400000Y-123000000D02*
X123100000Y-121700000D01*
X120000000Y-31000000D02*
X170000000Y-31000000D01*
X120000000Y-123800000D02*
X120000000Y-136000000D01*
X170000000Y-104700000D02*
X170000000Y-116200000D01*
X170000000Y-98600000D02*
X170000000Y-104700000D01*
M02*
