M48
; DRILL file {KiCad 9.0.7-9.0.7~ubuntu22.04.1} date 2026-02-25T12:38:49-0600
; FORMAT={-:-/ absolute / metric / decimal}
; #@! TF.CreationDate,2026-02-25T12:38:49-06:00
; #@! TF.GenerationSoftware,Kicad,Pcbnew,9.0.7-9.0.7~ubuntu22.04.1
; #@! TF.FileFunction,Plated,1,2,PTH
FMAT,2
METRIC
; #@! TA.AperFunction,Plated,PTH,ViaDrill
T1C0.300
; #@! TA.AperFunction,Plated,PTH,ComponentDrill
T2C1.000
; #@! TA.AperFunction,Plated,PTH,ComponentDrill
T3C1.020
%
G90
G05
T1
X121.2Y-131.7
X122.0Y-92.1
X122.9Y-114.667
X123.0Y-125.4
X123.3Y-113.1
X123.3Y-131.7
X123.95Y-73.5
X124.1Y-96.5
X124.3Y-66.7
X124.3Y-93.2
X124.3Y-127.2
X124.4Y-39.6
X124.4Y-48.6
X124.5Y-57.7
X124.944Y-112.49
X125.1Y-95.55
X125.6Y-99.3
X125.9Y-91.2
X126.25Y-112.45
X126.5Y-88.0
X126.6Y-39.6
X126.7Y-48.6
X126.7Y-57.7
X126.7Y-66.7
X127.3Y-97.7
X128.162Y-98.562
X128.7Y-39.6
X128.7Y-48.6
X128.7Y-57.7
X128.8Y-66.7
X129.2Y-101.4
X129.484Y-87.974
X129.851Y-45.049
X129.851Y-54.049
X129.851Y-63.049
X129.851Y-72.049
X130.3Y-96.3
X131.0Y-98.7
X131.4Y-57.7
X131.5Y-39.7
X131.5Y-48.7
X131.5Y-66.6
X131.55Y-91.75
X131.624Y-103.976
X131.8Y-124.1
X132.9Y-115.6
X133.1Y-129.0
X133.3Y-98.4
X133.5Y-133.6
X133.6Y-94.1
X133.78Y-96.88
X134.6Y-103.4
X134.9Y-85.8
X135.251Y-39.649
X135.251Y-48.649
X135.251Y-57.649
X135.251Y-66.649
X135.4Y-89.2
X135.7Y-106.637
X135.7Y-115.5
X135.7Y-124.0
X136.1Y-111.7
X136.8Y-111.1
X137.1Y-128.9
X137.3Y-126.2
X137.4Y-104.4
X137.55Y-109.2
X137.8Y-91.65
X138.2Y-100.9
X138.2Y-105.4
X138.25Y-132.362
X138.5Y-97.8
X138.9Y-97.1
X139.35Y-94.1
X139.35Y-116.325
X140.1Y-124.6
X140.3Y-57.5
X140.35Y-107.8
X140.6Y-48.5
X140.7Y-39.5
X140.7Y-66.5
X140.7Y-75.8
X140.7Y-94.05
X141.3Y-106.2
X141.9Y-127.7
X142.526Y-107.201
X142.65Y-93.55
X142.7Y-48.5
X142.7Y-57.5
X142.7Y-66.5
X142.7Y-75.8
X142.8Y-39.5
X142.957Y-102.743
X143.0Y-116.412
X143.074Y-107.801
X144.6Y-113.2
X144.7Y-104.5
X144.8Y-66.5
X144.8Y-75.8
X144.9Y-48.5
X145.0Y-39.5
X145.0Y-57.5
X145.54Y-123.587
X145.8Y-96.8
X145.933Y-54.014
X145.951Y-44.949
X145.951Y-63.049
X145.951Y-72.049
X145.951Y-81.249
X146.6Y-129.0
X146.8Y-124.75
X147.1Y-134.5
X147.6Y-39.6
X147.6Y-48.5
X147.6Y-57.5
X147.6Y-66.5
X147.6Y-75.8
X147.925Y-127.25
X148.75Y-97.45
X148.8Y-95.6
X148.8Y-96.6
X149.5Y-107.3
X149.725Y-125.05
X150.825Y-99.225
X151.175Y-129.525
X151.3Y-132.3
X151.333Y-48.614
X151.351Y-39.549
X151.351Y-57.649
X151.351Y-66.649
X151.351Y-75.849
X152.2Y-115.0
X152.4Y-94.5
X152.4Y-96.1
X153.3Y-133.9
X154.3Y-97.2
X154.4Y-109.5
X155.1Y-97.2
X155.3Y-103.4
X155.5Y-115.0
X155.9Y-97.2
X156.0Y-92.7
X156.4Y-101.7
X156.7Y-97.2
X156.8Y-57.8
X156.9Y-39.8
X156.9Y-48.8
X156.9Y-66.8
X157.0Y-124.4
X157.1Y-75.8
X158.6Y-100.8
X158.8Y-102.3
X158.9Y-39.8
X158.9Y-48.8
X158.9Y-66.8
X158.9Y-75.8
X159.0Y-57.8
X159.0Y-104.2
X159.1Y-115.0
X159.7Y-99.5
X159.823Y-91.077
X160.017Y-130.988
X160.475Y-95.5
X161.0Y-110.375
X161.1Y-48.8
X161.2Y-39.8
X161.2Y-66.8
X161.3Y-57.8
X161.3Y-75.8
X162.151Y-63.249
X162.151Y-72.249
X162.151Y-81.249
X162.2Y-45.2
X162.2Y-54.2
X162.451Y-84.149
X163.1Y-115.0
X163.8Y-39.8
X163.8Y-66.8
X163.8Y-75.8
X163.9Y-48.8
X163.9Y-57.9
X164.6Y-110.1
X164.9Y-90.0
X165.0Y-84.1
X165.0Y-129.9
X165.15Y-108.175
X165.6Y-105.1
X166.175Y-94.0
X167.2Y-98.2
X167.5Y-84.1
X167.551Y-57.849
X167.551Y-66.849
X167.551Y-75.849
X167.6Y-39.8
X167.6Y-48.8
X167.9Y-134.2
X168.1Y-102.45
X168.486Y-124.603
T2
X121.9Y-94.6
X121.9Y-97.14
X121.9Y-99.68
X121.9Y-102.22
X121.9Y-104.76
X121.9Y-107.3
X122.26Y-133.8
X123.266Y-34.849
X124.8Y-133.8
X125.806Y-34.849
X127.34Y-133.8
X128.346Y-34.849
X129.88Y-133.8
X130.886Y-34.849
X133.426Y-34.849
X135.966Y-34.849
X138.506Y-34.849
X141.046Y-34.849
X143.586Y-34.849
X146.126Y-34.849
X148.666Y-34.849
X151.206Y-34.849
X153.746Y-34.849
X156.286Y-34.849
X158.826Y-34.849
X161.366Y-34.849
X163.906Y-34.849
X166.446Y-34.849
T3
X159.7Y-124.48
X159.7Y-127.48
X162.7Y-124.48
X162.7Y-127.48
X165.7Y-124.48
X165.7Y-127.48
M30
