%TF.GenerationSoftware,KiCad,Pcbnew,9.0.7-9.0.7~ubuntu22.04.1*%
%TF.CreationDate,2026-02-25T12:38:15-06:00*%
%TF.ProjectId,VoltageTap_B,566f6c74-6167-4655-9461-705f422e6b69,rev?*%
%TF.SameCoordinates,Original*%
%TF.FileFunction,Copper,L2,Bot*%
%TF.FilePolarity,Positive*%
%FSLAX46Y46*%
G04 Gerber Fmt 4.6, Leading zero omitted, Abs format (unit mm)*
G04 Created by KiCad (PCBNEW 9.0.7-9.0.7~ubuntu22.04.1) date 2026-02-25 12:38:15*
%MOMM*%
%LPD*%
G01*
G04 APERTURE LIST*
G04 Aperture macros list*
%AMRoundRect*
0 Rectangle with rounded corners*
0 $1 Rounding radius*
0 $2 $3 $4 $5 $6 $7 $8 $9 X,Y pos of 4 corners*
0 Add a 4 corners polygon primitive as box body*
4,1,4,$2,$3,$4,$5,$6,$7,$8,$9,$2,$3,0*
0 Add four circle primitives for the rounded corners*
1,1,$1+$1,$2,$3*
1,1,$1+$1,$4,$5*
1,1,$1+$1,$6,$7*
1,1,$1+$1,$8,$9*
0 Add four rect primitives between the rounded corners*
20,1,$1+$1,$2,$3,$4,$5,0*
20,1,$1+$1,$4,$5,$6,$7,0*
20,1,$1+$1,$6,$7,$8,$9,0*
20,1,$1+$1,$8,$9,$2,$3,0*%
G04 Aperture macros list end*
%TA.AperFunction,ComponentPad*%
%ADD10RoundRect,0.250001X0.499999X0.499999X-0.499999X0.499999X-0.499999X-0.499999X0.499999X-0.499999X0*%
%TD*%
%TA.AperFunction,ComponentPad*%
%ADD11C,1.500000*%
%TD*%
%TA.AperFunction,ComponentPad*%
%ADD12R,1.700000X1.700000*%
%TD*%
%TA.AperFunction,ComponentPad*%
%ADD13C,1.700000*%
%TD*%
%TA.AperFunction,SMDPad,CuDef*%
%ADD14RoundRect,0.250000X0.312500X0.625000X-0.312500X0.625000X-0.312500X-0.625000X0.312500X-0.625000X0*%
%TD*%
%TA.AperFunction,SMDPad,CuDef*%
%ADD15RoundRect,0.250000X-0.312500X-0.625000X0.312500X-0.625000X0.312500X0.625000X-0.312500X0.625000X0*%
%TD*%
%TA.AperFunction,ViaPad*%
%ADD16C,0.600000*%
%TD*%
%TA.AperFunction,Conductor*%
%ADD17C,0.200000*%
%TD*%
%TA.AperFunction,Conductor*%
%ADD18C,0.300000*%
%TD*%
%TA.AperFunction,Profile*%
%ADD19C,0.050000*%
%TD*%
%ADD20C,0.050000*%
G04 APERTURE END LIST*
D10*
%TO.P,J302,1,Pin_1*%
%TO.N,/GLV/IL+*%
X165700000Y-127480000D03*
D11*
%TO.P,J302,2,Pin_2*%
%TO.N,/GLV/GLV-*%
X162700000Y-127480000D03*
%TO.P,J302,3,Pin_3*%
%TO.N,/GLV/CAN_L*%
X159700000Y-127480000D03*
%TO.P,J302,4,Pin_4*%
%TO.N,/GLV/IL-*%
X165700000Y-124480000D03*
%TO.P,J302,5,Pin_5*%
%TO.N,/GLV/GLV+*%
X162700000Y-124480000D03*
%TO.P,J302,6,Pin_6*%
%TO.N,/GLV/CAN_H*%
X159700000Y-124480000D03*
%TD*%
D12*
%TO.P,J1,1,Pin_1*%
%TO.N,/GLV/3v3*%
X129879999Y-133800000D03*
D13*
%TO.P,J1,2,Pin_2*%
%TO.N,/GLV/UART_RX*%
X127339999Y-133800000D03*
%TO.P,J1,3,Pin_3*%
%TO.N,/GLV/UART_TX*%
X124800000Y-133800000D03*
%TO.P,J1,4,Pin_4*%
%TO.N,/GLV/GLV-*%
X122259999Y-133800000D03*
%TD*%
D12*
%TO.P,J104,1,Pin_1*%
%TO.N,-BATT*%
X121900000Y-94600000D03*
D13*
%TO.P,J104,2,Pin_2*%
%TO.N,/XDS_3v_supply*%
X121900000Y-97140000D03*
%TO.P,J104,3,Pin_3*%
%TO.N,PA11_UART0-RX_XDS*%
X121900000Y-99680000D03*
%TO.P,J104,4,Pin_4*%
%TO.N,PA10_UART0-TX_XDS*%
X121900000Y-102220000D03*
%TO.P,J104,5,Pin_5*%
%TO.N,PA19_SWDIO*%
X121900000Y-104760000D03*
%TO.P,J104,6,Pin_6*%
%TO.N,PA20_SWCLK*%
X121900000Y-107300000D03*
%TD*%
D12*
%TO.P,J102,1,Pin_1*%
%TO.N,-BATT*%
X123266000Y-34849000D03*
D13*
%TO.P,J102,2,Pin_2*%
%TO.N,/BQ76952 1/1P*%
X125806000Y-34849000D03*
%TO.P,J102,3,Pin_3*%
%TO.N,/BQ76952 1/2P*%
X128346000Y-34849000D03*
%TO.P,J102,4,Pin_4*%
%TO.N,/BQ76952 1/3P*%
X130886000Y-34849000D03*
%TO.P,J102,5,Pin_5*%
%TO.N,/BQ76952 1/4P*%
X133426000Y-34849000D03*
%TO.P,J102,6,Pin_6*%
%TO.N,/BQ76952 1/5P*%
X135966000Y-34849000D03*
%TO.P,J102,7,Pin_7*%
%TO.N,/BQ76952 1/6P*%
X138506000Y-34849000D03*
%TO.P,J102,8,Pin_8*%
%TO.N,/BQ76952 1/7P*%
X141046000Y-34849000D03*
%TO.P,J102,9,Pin_9*%
%TO.N,/BQ76952 1/8P*%
X143586000Y-34849000D03*
%TO.P,J102,10,Pin_10*%
%TO.N,/BQ76952 1/9P*%
X146126000Y-34849000D03*
%TO.P,J102,11,Pin_11*%
%TO.N,/BQ76952 1/10P*%
X148666000Y-34849000D03*
%TO.P,J102,12,Pin_12*%
%TO.N,/BQ76952 1/11P*%
X151206000Y-34849000D03*
%TO.P,J102,13,Pin_13*%
%TO.N,/BQ76952 1/12P*%
X153746000Y-34849000D03*
%TO.P,J102,14,Pin_14*%
%TO.N,/BQ76952 1/13P*%
X156286000Y-34849000D03*
%TO.P,J102,15,Pin_15*%
%TO.N,+BATT*%
X158826000Y-34849000D03*
%TO.P,J102,16,Pin_16*%
%TO.N,unconnected-(J102-Pin_16-Pad16)*%
X161366000Y-34849000D03*
%TO.P,J102,17,Pin_17*%
%TO.N,unconnected-(J102-Pin_17-Pad17)*%
X163906000Y-34849000D03*
%TO.P,J102,18,Pin_18*%
%TO.N,unconnected-(J102-Pin_18-Pad18)*%
X166446000Y-34849000D03*
%TD*%
D14*
%TO.P,TH105,1*%
%TO.N,/BQ76952 1/TS3*%
X139225000Y-44900000D03*
%TO.P,TH105,2*%
%TO.N,-BATT*%
X136300000Y-44900000D03*
%TD*%
%TO.P,TH107,1*%
%TO.N,/BQ76952 1/TS1*%
X139262500Y-62900000D03*
%TO.P,TH107,2*%
%TO.N,-BATT*%
X136337500Y-62900000D03*
%TD*%
D15*
%TO.P,TH101,1*%
%TO.N,/BQ76952 1/DDSG*%
X152400000Y-44800000D03*
%TO.P,TH101,2*%
%TO.N,-BATT*%
X155325000Y-44800000D03*
%TD*%
%TO.P,TH103,1*%
%TO.N,/BQ76952 1/ALERT*%
X152475000Y-71800000D03*
%TO.P,TH103,2*%
%TO.N,-BATT*%
X155400000Y-71800000D03*
%TD*%
%TO.P,TH102,1*%
%TO.N,/BQ76952 1/DCHG*%
X152400000Y-53800000D03*
%TO.P,TH102,2*%
%TO.N,-BATT*%
X155325000Y-53800000D03*
%TD*%
%TO.P,TH104,1*%
%TO.N,/BQ76952 1/DFETOFF*%
X152400000Y-62800000D03*
%TO.P,TH104,2*%
%TO.N,-BATT*%
X155325000Y-62800000D03*
%TD*%
D14*
%TO.P,TH106,1*%
%TO.N,/BQ76952 1/TS2*%
X139225000Y-53900000D03*
%TO.P,TH106,2*%
%TO.N,-BATT*%
X136300000Y-53900000D03*
%TD*%
D16*
%TO.N,*%
X123950000Y-73500000D03*
%TO.N,RST_N*%
X131624265Y-103975735D03*
X128161855Y-98561855D03*
%TO.N,-BATT*%
X122900000Y-114666888D03*
X156000000Y-92700000D03*
X129483784Y-87974266D03*
X138200000Y-100900000D03*
X141300000Y-106200000D03*
X143000000Y-116412500D03*
X140700000Y-94050000D03*
X163100000Y-115000000D03*
X149500000Y-107300000D03*
X166175000Y-94000000D03*
X139350000Y-94100000D03*
X131000000Y-98700000D03*
X159822578Y-91077421D03*
X154400000Y-109500000D03*
X125600000Y-99300000D03*
X144600000Y-113200000D03*
X164900000Y-90000000D03*
X138900000Y-97100000D03*
X167200000Y-98200000D03*
X152400000Y-96100000D03*
X130300000Y-96300000D03*
X133780240Y-96880240D03*
X124100000Y-96500000D03*
X129200000Y-101400000D03*
X159100000Y-115000000D03*
X132900000Y-115600000D03*
X122000000Y-92100000D03*
X125900000Y-91200000D03*
X164600000Y-110100000D03*
X152200000Y-115000000D03*
X135700000Y-115500000D03*
X131550000Y-91750000D03*
X126500000Y-88000000D03*
X159700000Y-99500000D03*
X159000000Y-104200000D03*
X155300000Y-103400000D03*
X124300000Y-93200000D03*
X158600000Y-100800000D03*
X155500000Y-115000000D03*
X138200000Y-105400000D03*
X137550000Y-109200000D03*
X139350000Y-116325000D03*
X134600000Y-103400000D03*
X137800000Y-91650000D03*
X133300000Y-98400000D03*
X165600000Y-105100000D03*
X125100000Y-95550000D03*
X135400000Y-89200000D03*
X134900000Y-85800000D03*
X133600000Y-94100000D03*
X152400000Y-94500000D03*
X168100000Y-102450000D03*
X123300000Y-113100000D03*
X145800000Y-96800000D03*
%TO.N,Net-(U217-VC13)*%
X167600000Y-39800000D03*
X162200000Y-45200000D03*
X167500000Y-84100000D03*
%TO.N,Net-(U217-VC12)*%
X167600000Y-48800000D03*
X162200000Y-54200000D03*
X165000000Y-84100000D03*
%TO.N,Net-(U217-VC11)*%
X167551000Y-57849000D03*
X162451000Y-84149000D03*
X162151000Y-63249000D03*
%TO.N,Net-(U217-VC10)*%
X167551000Y-66849000D03*
X162151000Y-72249000D03*
%TO.N,Net-(U217-VC9)*%
X162151000Y-81249000D03*
X167551000Y-75849000D03*
%TO.N,Net-(U217-VC8)*%
X145951000Y-44949000D03*
X151351000Y-39549000D03*
%TO.N,Net-(U217-VC7)*%
X151332559Y-48613672D03*
X145932559Y-54013672D03*
%TO.N,Net-(U217-VC6)*%
X151351000Y-57649000D03*
X145951000Y-63049000D03*
%TO.N,Net-(U217-VC5)*%
X145951000Y-72049000D03*
X151351000Y-66649000D03*
%TO.N,Net-(U217-VC4)*%
X151351000Y-75849000D03*
X145951000Y-81249000D03*
%TO.N,Net-(U217-VC3)*%
X129851000Y-45049000D03*
X135251000Y-39649000D03*
%TO.N,Net-(U217-VC2)*%
X129851000Y-54049000D03*
X135251000Y-48649000D03*
%TO.N,Net-(U217-VC1)*%
X129851000Y-63049000D03*
X135251000Y-57649000D03*
%TO.N,Net-(U217-VC0)*%
X135251000Y-66649000D03*
X129851000Y-72049000D03*
%TO.N,Net-(U217-REG18)*%
X158800000Y-102300000D03*
X150825000Y-99225000D03*
%TO.N,Net-(U302-CANL)*%
X151175000Y-129525000D03*
X149725000Y-125050000D03*
%TO.N,PA11_UART0-RX_XDS*%
X142525837Y-107200837D03*
X126250000Y-112450000D03*
%TO.N,/XDS_3v_supply*%
X138500000Y-97800000D03*
X127300000Y-97700000D03*
%TO.N,PA10_UART0-TX_XDS*%
X143074364Y-107800837D03*
X124943805Y-112490430D03*
%TO.N,PA18_SPI1_MOSI*%
X144700000Y-104500000D03*
X142957261Y-102742739D03*
%TO.N,/GLV/5v*%
X138250000Y-132362500D03*
X146800000Y-124750000D03*
%TO.N,/GLV/GLV-*%
X135700000Y-124000000D03*
X137300000Y-126200000D03*
X137100000Y-128900000D03*
X133100000Y-129000000D03*
X141900000Y-127700000D03*
X168486120Y-124602883D03*
X151300000Y-132300000D03*
X146600000Y-129000000D03*
X133500000Y-133600000D03*
X165000000Y-129900000D03*
X131800000Y-124100000D03*
X160017276Y-130988482D03*
X147100000Y-134500000D03*
X123000000Y-125400000D03*
X145540000Y-123587500D03*
X157000000Y-124400000D03*
X147925000Y-127250000D03*
X124300000Y-127200000D03*
X140100000Y-124600000D03*
X121200000Y-131700000D03*
X167900000Y-134200000D03*
X123300000Y-131700000D03*
%TO.N,/GLV/GLV+*%
X153300000Y-133900000D03*
%TO.N,/BQ76952 1/RST_SHUT*%
X156400000Y-101700000D03*
X161000000Y-110375000D03*
%TO.N,/BQ76952 1/C14Jc*%
X161200000Y-39800000D03*
X163800000Y-39800000D03*
X156900000Y-39800000D03*
X158900000Y-39800000D03*
%TO.N,/BQ76952 1/C13Jc*%
X158900000Y-48800000D03*
X163900000Y-48800000D03*
X161100000Y-48800000D03*
X156900000Y-48800000D03*
%TO.N,/BQ76952 1/C12Jc*%
X159000000Y-57800000D03*
X163900000Y-57900000D03*
X161300000Y-57800000D03*
X156800000Y-57800000D03*
%TO.N,/BQ76952 1/C11Jc*%
X163800000Y-66800000D03*
X156900000Y-66800000D03*
X158900000Y-66800000D03*
X161200000Y-66800000D03*
%TO.N,/BQ76952 1/C10Jc*%
X161300000Y-75800000D03*
X157100000Y-75800000D03*
X163800000Y-75800000D03*
X158900000Y-75800000D03*
%TO.N,/BQ76952 1/C9Jc*%
X142800000Y-39500000D03*
X140700000Y-39500000D03*
X147600000Y-39600000D03*
X145000000Y-39500000D03*
%TO.N,/BQ76952 1/C8Jc*%
X144900000Y-48500000D03*
X140600000Y-48500000D03*
X147600000Y-48500000D03*
X142700000Y-48500000D03*
%TO.N,/BQ76952 1/C7Jc*%
X142700000Y-57500000D03*
X140300000Y-57500000D03*
X145000000Y-57500000D03*
X147600000Y-57500000D03*
%TO.N,/BQ76952 1/C6Jc*%
X147600000Y-66500000D03*
X144800000Y-66500000D03*
X140700000Y-66500000D03*
X142700000Y-66500000D03*
%TO.N,/BQ76952 1/C5Jc*%
X142700000Y-75800000D03*
X144800000Y-75800000D03*
X140700000Y-75800000D03*
X147600000Y-75800000D03*
%TO.N,/BQ76952 1/C4Jc*%
X124400000Y-39600000D03*
X126600000Y-39600000D03*
X131500000Y-39700000D03*
X128700000Y-39600000D03*
%TO.N,/BQ76952 1/C3Jc*%
X131500000Y-48700000D03*
X126700000Y-48600000D03*
X124400000Y-48600000D03*
X128700000Y-48600000D03*
%TO.N,/BQ76952 1/C2Jc*%
X124500000Y-57700000D03*
X128700000Y-57700000D03*
X131400000Y-57700000D03*
X126700000Y-57700000D03*
%TO.N,/BQ76952 1/C1Jc*%
X124300000Y-66700000D03*
X131500000Y-66600000D03*
X126700000Y-66700000D03*
X128800000Y-66700000D03*
%TO.N,Net-(U217-PACK)*%
X160475000Y-95500000D03*
X165150000Y-108175000D03*
%TO.N,/BQ76952 1/DDSG*%
X156700009Y-97200000D03*
%TO.N,/BQ76952 1/DCHG*%
X155900006Y-97200000D03*
%TO.N,/BQ76952 1/ALERT*%
X154300000Y-97200000D03*
%TO.N,/BQ76952 1/DFETOFF*%
X155100003Y-97200000D03*
%TO.N,/BQ76952 1/TS3*%
X148750000Y-97450000D03*
%TO.N,/BQ76952 1/TS2*%
X148800000Y-96600000D03*
%TO.N,/BQ76952 1/TS1*%
X148800000Y-95600000D03*
%TO.N,BLINK*%
X140350000Y-107800000D03*
X142650000Y-93550000D03*
%TO.N,PA27_CAN_RX*%
X135700000Y-106636598D03*
X136100000Y-111700000D03*
%TO.N,PA26_CAN_TX*%
X137400000Y-104400000D03*
X136800000Y-111100000D03*
%TD*%
D17*
%TO.N,RST_N*%
X131624265Y-103975735D02*
X131624265Y-101824265D01*
X131624265Y-101824265D02*
X128361855Y-98561855D01*
X128361855Y-98561855D02*
X128161855Y-98561855D01*
D18*
%TO.N,-BATT*%
X136300000Y-39200000D02*
X136300000Y-39400000D01*
D17*
X155325000Y-53800000D02*
X154604000Y-54521000D01*
X154604000Y-71004000D02*
X155400000Y-71800000D01*
X156000000Y-88050000D02*
X156000000Y-92700000D01*
D18*
X138100000Y-37600000D02*
X152300000Y-37600000D01*
D17*
X136300000Y-44900000D02*
X136300000Y-53900000D01*
X155325000Y-44800000D02*
X154604000Y-45521000D01*
D18*
X126317000Y-37900000D02*
X135000000Y-37900000D01*
D17*
X136337500Y-54337500D02*
X136337500Y-62900000D01*
X154604000Y-63521000D02*
X154604000Y-71004000D01*
D18*
X123266000Y-34849000D02*
X126317000Y-37900000D01*
X154100000Y-43600000D02*
X154125000Y-43600000D01*
D17*
X154604000Y-72596000D02*
X154604000Y-86654000D01*
X154604000Y-53079000D02*
X155325000Y-53800000D01*
X136300000Y-54300000D02*
X136337500Y-54337500D01*
D18*
X154100000Y-39400000D02*
X154100000Y-43600000D01*
X136300000Y-39400000D02*
X136300000Y-44900000D01*
D17*
X154604000Y-54521000D02*
X154604000Y-62079000D01*
X154604000Y-45521000D02*
X154604000Y-53079000D01*
D18*
X135000000Y-37900000D02*
X136300000Y-39200000D01*
D17*
X155400000Y-71800000D02*
X154604000Y-72596000D01*
D18*
X152300000Y-37600000D02*
X154100000Y-39400000D01*
D17*
X155325000Y-62800000D02*
X154604000Y-63521000D01*
X136300000Y-53900000D02*
X136300000Y-54300000D01*
X154604000Y-86654000D02*
X156000000Y-88050000D01*
D18*
X154125000Y-43600000D02*
X155325000Y-44800000D01*
D17*
X154604000Y-62079000D02*
X155325000Y-62800000D01*
D18*
X136300000Y-39400000D02*
X138100000Y-37600000D01*
%TO.N,Net-(U217-VC13)*%
X167500000Y-82800000D02*
X169204000Y-81096000D01*
X167500000Y-84100000D02*
X167500000Y-82800000D01*
X169204000Y-81096000D02*
X169204000Y-46804000D01*
X167600000Y-45200000D02*
X167600000Y-39800000D01*
X169204000Y-46804000D02*
X167600000Y-45200000D01*
X162200000Y-45200000D02*
X167600000Y-45200000D01*
%TO.N,Net-(U217-VC12)*%
X165599000Y-82301000D02*
X167282521Y-82301000D01*
X165000000Y-84100000D02*
X165000000Y-82900000D01*
X168703000Y-55303000D02*
X167600000Y-54200000D01*
X167600000Y-54200000D02*
X167600000Y-48800000D01*
X168703000Y-79197000D02*
X168703000Y-55303000D01*
X162200000Y-54200000D02*
X167600000Y-54200000D01*
X165000000Y-82900000D02*
X165599000Y-82301000D01*
X168701000Y-79199000D02*
X168703000Y-79197000D01*
X167282521Y-82301000D02*
X168701000Y-80882520D01*
X168701000Y-80882520D02*
X168701000Y-79199000D01*
%TO.N,Net-(U217-VC11)*%
X167551000Y-63100000D02*
X167551000Y-57849000D01*
X168200000Y-80675000D02*
X168200000Y-77300000D01*
X168202000Y-63751000D02*
X167551000Y-63100000D01*
X162451000Y-82749000D02*
X163400000Y-81800000D01*
X167075000Y-81800000D02*
X168200000Y-80675000D01*
X162151000Y-63249000D02*
X167551000Y-63249000D01*
X167551000Y-63249000D02*
X167551000Y-63100000D01*
X168200000Y-77300000D02*
X168202000Y-77298000D01*
X163400000Y-81800000D02*
X167075000Y-81800000D01*
X162451000Y-84149000D02*
X162451000Y-82749000D01*
X168202000Y-77298000D02*
X168202000Y-63751000D01*
%TO.N,Net-(U217-VC10)*%
X162151000Y-72249000D02*
X167551000Y-72249000D01*
X167551000Y-72249000D02*
X167551000Y-66849000D01*
%TO.N,Net-(U217-VC9)*%
X167575000Y-80225000D02*
X166551000Y-81249000D01*
X162151000Y-81249000D02*
X162177000Y-81275000D01*
X167551000Y-75849000D02*
X167575000Y-75873000D01*
X167575000Y-75873000D02*
X167575000Y-80225000D01*
X166551000Y-81249000D02*
X162151000Y-81249000D01*
%TO.N,Net-(U217-VC8)*%
X145951000Y-44949000D02*
X151351000Y-44949000D01*
X151351000Y-44949000D02*
X151351000Y-39549000D01*
%TO.N,Net-(U217-VC7)*%
X145932559Y-54013672D02*
X151332559Y-54013672D01*
X151332559Y-54013672D02*
X151332559Y-48613672D01*
%TO.N,Net-(U217-VC6)*%
X151351000Y-63049000D02*
X151351000Y-57649000D01*
X145951000Y-63049000D02*
X151351000Y-63049000D01*
%TO.N,Net-(U217-VC5)*%
X145951000Y-72049000D02*
X151351000Y-72049000D01*
X151351000Y-72049000D02*
X151351000Y-66649000D01*
%TO.N,Net-(U217-VC4)*%
X145951000Y-81249000D02*
X151351000Y-81249000D01*
X151351000Y-81249000D02*
X151351000Y-75849000D01*
%TO.N,Net-(U217-VC3)*%
X129851000Y-45049000D02*
X135251000Y-45049000D01*
X135251000Y-45049000D02*
X135251000Y-39649000D01*
%TO.N,Net-(U217-VC2)*%
X129851000Y-54049000D02*
X135251000Y-54049000D01*
X135251000Y-54049000D02*
X135251000Y-48649000D01*
%TO.N,Net-(U217-VC1)*%
X129851000Y-63049000D02*
X135251000Y-63049000D01*
X135251000Y-63049000D02*
X135251000Y-57649000D01*
%TO.N,Net-(U217-VC0)*%
X129851000Y-72049000D02*
X133926000Y-72049000D01*
X135251000Y-70724000D02*
X135251000Y-66649000D01*
X133926000Y-72049000D02*
X135251000Y-70724000D01*
D17*
%TO.N,Net-(U217-REG18)*%
X158800000Y-102300000D02*
X153900000Y-102300000D01*
X153900000Y-102300000D02*
X150825000Y-99225000D01*
%TO.N,Net-(U302-CANL)*%
X149725000Y-128075000D02*
X149725000Y-125050000D01*
X151175000Y-129525000D02*
X149725000Y-128075000D01*
%TO.N,PA11_UART0-RX_XDS*%
X125400000Y-103180000D02*
X121900000Y-99680000D01*
X126600000Y-112800000D02*
X136926674Y-112800000D01*
X125400000Y-111600000D02*
X125400000Y-103180000D01*
X126250000Y-112450000D02*
X126600000Y-112800000D01*
X136926674Y-112800000D02*
X142525837Y-107200837D01*
X126250000Y-112450000D02*
X125400000Y-111600000D01*
%TO.N,/XDS_3v_supply*%
X122560000Y-97800000D02*
X121900000Y-97140000D01*
X127400000Y-97800000D02*
X127300000Y-97700000D01*
X138500000Y-97800000D02*
X127400000Y-97800000D01*
%TO.N,PA10_UART0-TX_XDS*%
X124943805Y-112490430D02*
X124100000Y-111646625D01*
X124100000Y-104420000D02*
X121900000Y-102220000D01*
X125854375Y-113401000D02*
X137474201Y-113401000D01*
X124100000Y-111646625D02*
X124100000Y-104420000D01*
X124943805Y-112490430D02*
X125854375Y-113401000D01*
X137474201Y-113401000D02*
X143074364Y-107800837D01*
%TO.N,PA18_SPI1_MOSI*%
X142957261Y-102757261D02*
X142957261Y-102742739D01*
X144700000Y-104500000D02*
X142957261Y-102757261D01*
%TO.N,/GLV/5v*%
X138250000Y-132362500D02*
X139012500Y-131600000D01*
X139950000Y-131600000D02*
X146800000Y-124750000D01*
X139012500Y-131600000D02*
X139950000Y-131600000D01*
%TO.N,/GLV/GLV+*%
X162700000Y-125966339D02*
X154766339Y-133900000D01*
X162700000Y-124480000D02*
X162700000Y-125966339D01*
X154766339Y-133900000D02*
X153300000Y-133900000D01*
%TO.N,/BQ76952 1/RST_SHUT*%
X161000000Y-110375000D02*
X161000000Y-103650057D01*
X159049943Y-101700000D02*
X156400000Y-101700000D01*
X161000000Y-103650057D02*
X159049943Y-101700000D01*
%TO.N,Net-(U217-PACK)*%
X165150000Y-108175000D02*
X162200000Y-105225000D01*
X162200000Y-105225000D02*
X162200000Y-97225000D01*
X162200000Y-97225000D02*
X160475000Y-95500000D01*
%TO.N,/BQ76952 1/DDSG*%
X154203000Y-46603000D02*
X152400000Y-44800000D01*
X154203000Y-92503000D02*
X154203000Y-46603000D01*
X156700009Y-97200000D02*
X156700009Y-95000009D01*
X156700009Y-95000009D02*
X154203000Y-92503000D01*
%TO.N,/BQ76952 1/DCHG*%
X155900006Y-94800006D02*
X153802000Y-92702000D01*
X155900006Y-97200000D02*
X155900006Y-94800006D01*
X153802000Y-55202000D02*
X152400000Y-53800000D01*
X153802000Y-92702000D02*
X153802000Y-55202000D01*
%TO.N,/BQ76952 1/ALERT*%
X152999000Y-72324000D02*
X152475000Y-71800000D01*
X154300000Y-97200000D02*
X154300000Y-94367100D01*
X152999000Y-93066100D02*
X152999000Y-72324000D01*
X154300000Y-94367100D02*
X152999000Y-93066100D01*
%TO.N,/BQ76952 1/DFETOFF*%
X155100003Y-94600003D02*
X153400000Y-92900000D01*
X153400000Y-63800000D02*
X152400000Y-62800000D01*
X155100003Y-97200000D02*
X155100003Y-94600003D01*
X153400000Y-92900000D02*
X153400000Y-63800000D01*
%TO.N,/BQ76952 1/TS3*%
X148750000Y-97450000D02*
X137499000Y-86199000D01*
X148800000Y-97500000D02*
X148750000Y-97450000D01*
X137499000Y-46626000D02*
X139225000Y-44900000D01*
X137499000Y-86199000D02*
X137499000Y-46626000D01*
%TO.N,/BQ76952 1/TS2*%
X137900000Y-55225000D02*
X139225000Y-53900000D01*
X137900000Y-85700000D02*
X137900000Y-55225000D01*
X148800000Y-96600000D02*
X137900000Y-85700000D01*
%TO.N,/BQ76952 1/TS1*%
X138300000Y-85100000D02*
X138300000Y-63862500D01*
X148800000Y-95600000D02*
X138300000Y-85100000D01*
X138300000Y-63862500D02*
X139262500Y-62900000D01*
%TO.N,BLINK*%
X140350000Y-95850000D02*
X142650000Y-93550000D01*
X140350000Y-107800000D02*
X140350000Y-95850000D01*
%TO.N,PA27_CAN_RX*%
X135500000Y-111100000D02*
X136100000Y-111700000D01*
X135500000Y-106775735D02*
X135500000Y-111100000D01*
X135700000Y-106636598D02*
X135639137Y-106636598D01*
X135639137Y-106636598D02*
X135500000Y-106775735D01*
%TO.N,PA26_CAN_TX*%
X136300000Y-105500000D02*
X136300000Y-110600000D01*
X137400000Y-104400000D02*
X136300000Y-105500000D01*
X136300000Y-110600000D02*
X136800000Y-111100000D01*
%TD*%
%TA.AperFunction,Conductor*%
%TO.N,/GLV/GLV-*%
G36*
X159542057Y-123019685D02*
G01*
X159587812Y-123072489D01*
X159597756Y-123141647D01*
X159568731Y-123205203D01*
X159509953Y-123242977D01*
X159494416Y-123246473D01*
X159407173Y-123260290D01*
X159219970Y-123321117D01*
X159044594Y-123410476D01*
X158975801Y-123460458D01*
X158885354Y-123526172D01*
X158885352Y-123526174D01*
X158885351Y-123526174D01*
X158746174Y-123665351D01*
X158746174Y-123665352D01*
X158746172Y-123665354D01*
X158726150Y-123692912D01*
X158630476Y-123824594D01*
X158541117Y-123999970D01*
X158480290Y-124187173D01*
X158449500Y-124381577D01*
X158449500Y-124578422D01*
X158480290Y-124772826D01*
X158541117Y-124960029D01*
X158627132Y-125128842D01*
X158630476Y-125135405D01*
X158746172Y-125294646D01*
X158885354Y-125433828D01*
X159044595Y-125549524D01*
X159107505Y-125581578D01*
X159219970Y-125638882D01*
X159219972Y-125638882D01*
X159219975Y-125638884D01*
X159304171Y-125666241D01*
X159407173Y-125699709D01*
X159601578Y-125730500D01*
X159601583Y-125730500D01*
X159798422Y-125730500D01*
X159992826Y-125699709D01*
X160180025Y-125638884D01*
X160355405Y-125549524D01*
X160514646Y-125433828D01*
X160653828Y-125294646D01*
X160769524Y-125135405D01*
X160858884Y-124960025D01*
X160919709Y-124772826D01*
X160935702Y-124671850D01*
X160950500Y-124578422D01*
X160950500Y-124381577D01*
X160919709Y-124187173D01*
X160872086Y-124040606D01*
X160858884Y-123999975D01*
X160858882Y-123999972D01*
X160858882Y-123999970D01*
X160811743Y-123907455D01*
X160769524Y-123824595D01*
X160653828Y-123665354D01*
X160514646Y-123526172D01*
X160355405Y-123410476D01*
X160335824Y-123400499D01*
X160180029Y-123321117D01*
X159992826Y-123260290D01*
X159905584Y-123246473D01*
X159842449Y-123216544D01*
X159805518Y-123157232D01*
X159806516Y-123087370D01*
X159845126Y-123029137D01*
X159909089Y-123001023D01*
X159924982Y-123000000D01*
X162475018Y-123000000D01*
X162542057Y-123019685D01*
X162587812Y-123072489D01*
X162597756Y-123141647D01*
X162568731Y-123205203D01*
X162509953Y-123242977D01*
X162494416Y-123246473D01*
X162407173Y-123260290D01*
X162219970Y-123321117D01*
X162044594Y-123410476D01*
X161975801Y-123460458D01*
X161885354Y-123526172D01*
X161885352Y-123526174D01*
X161885351Y-123526174D01*
X161746174Y-123665351D01*
X161746174Y-123665352D01*
X161746172Y-123665354D01*
X161726150Y-123692912D01*
X161630476Y-123824594D01*
X161541117Y-123999970D01*
X161480290Y-124187173D01*
X161449500Y-124381577D01*
X161449500Y-124578422D01*
X161480290Y-124772826D01*
X161541117Y-124960029D01*
X161627132Y-125128842D01*
X161630476Y-125135405D01*
X161746172Y-125294646D01*
X161885354Y-125433828D01*
X162044594Y-125549523D01*
X162048386Y-125552278D01*
X162051726Y-125556610D01*
X162056703Y-125558883D01*
X162072833Y-125583982D01*
X162091051Y-125607608D01*
X162092303Y-125614279D01*
X162094477Y-125617661D01*
X162099500Y-125652596D01*
X162099500Y-125666241D01*
X162079815Y-125733280D01*
X162063181Y-125753922D01*
X160965472Y-126851630D01*
X160904149Y-126885115D01*
X160834457Y-126880131D01*
X160778524Y-126838259D01*
X160772064Y-126828739D01*
X160769527Y-126824600D01*
X160769525Y-126824597D01*
X160769524Y-126824595D01*
X160653828Y-126665354D01*
X160514646Y-126526172D01*
X160355405Y-126410476D01*
X160303904Y-126384235D01*
X160180029Y-126321117D01*
X159992826Y-126260290D01*
X159798422Y-126229500D01*
X159798417Y-126229500D01*
X159601583Y-126229500D01*
X159601578Y-126229500D01*
X159407173Y-126260290D01*
X159219970Y-126321117D01*
X159044594Y-126410476D01*
X158994518Y-126446859D01*
X158885354Y-126526172D01*
X158885352Y-126526174D01*
X158885351Y-126526174D01*
X158746174Y-126665351D01*
X158746174Y-126665352D01*
X158746172Y-126665354D01*
X158696485Y-126733741D01*
X158630476Y-126824594D01*
X158541117Y-126999970D01*
X158480290Y-127187173D01*
X158449500Y-127381577D01*
X158449500Y-127578422D01*
X158480290Y-127772826D01*
X158541117Y-127960029D01*
X158629146Y-128132795D01*
X158630476Y-128135405D01*
X158746172Y-128294646D01*
X158885354Y-128433828D01*
X159044595Y-128549524D01*
X159044597Y-128549525D01*
X159044600Y-128549527D01*
X159048739Y-128552064D01*
X159095614Y-128603875D01*
X159107037Y-128672805D01*
X159079380Y-128736968D01*
X159071630Y-128745472D01*
X154553923Y-133263181D01*
X154492600Y-133296666D01*
X154466242Y-133299500D01*
X153879766Y-133299500D01*
X153812727Y-133279815D01*
X153810875Y-133278602D01*
X153679185Y-133190609D01*
X153679172Y-133190602D01*
X153533501Y-133130264D01*
X153533489Y-133130261D01*
X153378845Y-133099500D01*
X153378842Y-133099500D01*
X153221158Y-133099500D01*
X153221155Y-133099500D01*
X153066510Y-133130261D01*
X153066498Y-133130264D01*
X152920827Y-133190602D01*
X152920814Y-133190609D01*
X152789711Y-133278210D01*
X152789707Y-133278213D01*
X152678213Y-133389707D01*
X152678210Y-133389711D01*
X152590609Y-133520814D01*
X152590602Y-133520827D01*
X152530264Y-133666498D01*
X152530261Y-133666510D01*
X152499500Y-133821153D01*
X152499500Y-133978846D01*
X152530261Y-134133489D01*
X152530264Y-134133501D01*
X152590602Y-134279172D01*
X152590609Y-134279185D01*
X152678210Y-134410288D01*
X152678213Y-134410292D01*
X152789707Y-134521786D01*
X152789711Y-134521789D01*
X152920814Y-134609390D01*
X152920827Y-134609397D01*
X153066498Y-134669735D01*
X153066503Y-134669737D01*
X153158659Y-134688068D01*
X153221153Y-134700499D01*
X153221156Y-134700500D01*
X153221158Y-134700500D01*
X153378844Y-134700500D01*
X153378845Y-134700499D01*
X153533497Y-134669737D01*
X153679179Y-134609394D01*
X153750533Y-134561717D01*
X153810875Y-134521398D01*
X153877553Y-134500520D01*
X153879766Y-134500500D01*
X154679670Y-134500500D01*
X154679686Y-134500501D01*
X154687282Y-134500501D01*
X154845393Y-134500501D01*
X154845396Y-134500501D01*
X154998124Y-134459577D01*
X155048243Y-134430639D01*
X155135055Y-134380520D01*
X155246859Y-134268716D01*
X155246859Y-134268714D01*
X155257067Y-134258507D01*
X155257069Y-134258504D01*
X157827024Y-131688549D01*
X160999500Y-131688549D01*
X160999500Y-131911450D01*
X160999501Y-131911466D01*
X161028594Y-132132452D01*
X161028595Y-132132457D01*
X161028596Y-132132463D01*
X161086290Y-132347780D01*
X161086293Y-132347790D01*
X161171593Y-132553722D01*
X161171595Y-132553726D01*
X161283052Y-132746774D01*
X161283057Y-132746780D01*
X161283058Y-132746782D01*
X161418751Y-132923622D01*
X161418757Y-132923629D01*
X161576370Y-133081242D01*
X161576377Y-133081248D01*
X161642825Y-133132235D01*
X161753226Y-133216948D01*
X161946274Y-133328405D01*
X162152219Y-133413710D01*
X162367537Y-133471404D01*
X162588543Y-133500500D01*
X162588550Y-133500500D01*
X162811450Y-133500500D01*
X162811457Y-133500500D01*
X163032463Y-133471404D01*
X163247781Y-133413710D01*
X163453726Y-133328405D01*
X163646774Y-133216948D01*
X163823624Y-133081247D01*
X163981247Y-132923624D01*
X164116948Y-132746774D01*
X164228405Y-132553726D01*
X164313710Y-132347781D01*
X164371404Y-132132463D01*
X164400500Y-131911457D01*
X164400500Y-131688543D01*
X164371404Y-131467537D01*
X164313710Y-131252219D01*
X164305038Y-131231284D01*
X164237968Y-131069361D01*
X164228405Y-131046274D01*
X164116948Y-130853226D01*
X163981247Y-130676376D01*
X163981242Y-130676370D01*
X163823629Y-130518757D01*
X163823622Y-130518751D01*
X163646782Y-130383058D01*
X163646780Y-130383057D01*
X163646774Y-130383052D01*
X163453726Y-130271595D01*
X163453722Y-130271593D01*
X163247790Y-130186293D01*
X163247783Y-130186291D01*
X163247781Y-130186290D01*
X163032463Y-130128596D01*
X163032457Y-130128595D01*
X163032452Y-130128594D01*
X162811466Y-130099501D01*
X162811463Y-130099500D01*
X162811457Y-130099500D01*
X162588543Y-130099500D01*
X162588537Y-130099500D01*
X162588533Y-130099501D01*
X162367547Y-130128594D01*
X162367540Y-130128595D01*
X162367537Y-130128596D01*
X162152219Y-130186290D01*
X162152209Y-130186293D01*
X161946277Y-130271593D01*
X161946273Y-130271595D01*
X161753226Y-130383052D01*
X161753217Y-130383058D01*
X161576377Y-130518751D01*
X161576370Y-130518757D01*
X161418757Y-130676370D01*
X161418751Y-130676377D01*
X161283058Y-130853217D01*
X161283052Y-130853226D01*
X161171595Y-131046273D01*
X161171593Y-131046277D01*
X161086293Y-131252209D01*
X161086290Y-131252219D01*
X161028597Y-131467534D01*
X161028594Y-131467547D01*
X160999501Y-131688533D01*
X160999500Y-131688549D01*
X157827024Y-131688549D01*
X161425680Y-128089892D01*
X161486999Y-128056410D01*
X161556691Y-128061394D01*
X161612624Y-128103266D01*
X161623843Y-128121283D01*
X161630905Y-128135145D01*
X161656319Y-128170125D01*
X161656320Y-128170125D01*
X162208871Y-127617574D01*
X162224755Y-127676853D01*
X162291898Y-127793147D01*
X162386853Y-127888102D01*
X162503147Y-127955245D01*
X162562424Y-127971128D01*
X162009873Y-128523677D01*
X162009873Y-128523678D01*
X162044858Y-128549096D01*
X162220164Y-128638418D01*
X162407294Y-128699221D01*
X162601618Y-128730000D01*
X162798382Y-128730000D01*
X162992705Y-128699221D01*
X163179835Y-128638418D01*
X163355143Y-128549095D01*
X163390125Y-128523678D01*
X163390126Y-128523678D01*
X162837575Y-127971127D01*
X162896853Y-127955245D01*
X163013147Y-127888102D01*
X163108102Y-127793147D01*
X163175245Y-127676853D01*
X163191127Y-127617575D01*
X163743678Y-128170126D01*
X163743678Y-128170125D01*
X163769095Y-128135143D01*
X163858418Y-127959835D01*
X163919221Y-127772705D01*
X163950000Y-127578382D01*
X163950000Y-127381617D01*
X163919221Y-127187294D01*
X163858418Y-127000162D01*
X163849740Y-126983131D01*
X163849739Y-126983130D01*
X163822660Y-126929984D01*
X164449500Y-126929984D01*
X164449500Y-128030015D01*
X164460000Y-128132795D01*
X164460001Y-128132797D01*
X164467045Y-128154054D01*
X164515186Y-128299335D01*
X164515187Y-128299337D01*
X164607286Y-128448651D01*
X164607289Y-128448655D01*
X164731344Y-128572710D01*
X164731348Y-128572713D01*
X164880662Y-128664812D01*
X164880664Y-128664813D01*
X164880666Y-128664814D01*
X165047203Y-128719999D01*
X165149992Y-128730500D01*
X165149997Y-128730500D01*
X166250003Y-128730500D01*
X166250008Y-128730500D01*
X166352797Y-128719999D01*
X166519334Y-128664814D01*
X166668655Y-128572711D01*
X166792711Y-128448655D01*
X166884814Y-128299334D01*
X166939999Y-128132797D01*
X166950500Y-128030008D01*
X166950500Y-126929992D01*
X166939999Y-126827203D01*
X166884814Y-126660666D01*
X166801856Y-126526172D01*
X166792713Y-126511348D01*
X166792710Y-126511344D01*
X166668655Y-126387289D01*
X166668651Y-126387286D01*
X166519337Y-126295187D01*
X166519335Y-126295186D01*
X166414025Y-126260290D01*
X166352797Y-126240001D01*
X166352795Y-126240000D01*
X166250015Y-126229500D01*
X166250008Y-126229500D01*
X165149992Y-126229500D01*
X165149984Y-126229500D01*
X165047204Y-126240000D01*
X165047203Y-126240001D01*
X164880664Y-126295186D01*
X164880662Y-126295187D01*
X164731348Y-126387286D01*
X164731344Y-126387289D01*
X164607289Y-126511344D01*
X164607286Y-126511348D01*
X164515187Y-126660662D01*
X164515186Y-126660664D01*
X164460001Y-126827203D01*
X164460000Y-126827204D01*
X164449500Y-126929984D01*
X163822660Y-126929984D01*
X163769096Y-126824858D01*
X163743678Y-126789873D01*
X163743677Y-126789873D01*
X163191127Y-127342423D01*
X163175245Y-127283147D01*
X163108102Y-127166853D01*
X163013147Y-127071898D01*
X162896853Y-127004755D01*
X162837574Y-126988871D01*
X163390125Y-126436320D01*
X163390125Y-126436319D01*
X163355145Y-126410905D01*
X163302801Y-126384235D01*
X163252005Y-126336260D01*
X163235210Y-126268439D01*
X163251713Y-126211744D01*
X163259575Y-126198127D01*
X163259574Y-126198127D01*
X163259577Y-126198124D01*
X163300501Y-126045396D01*
X163300501Y-125887282D01*
X163300501Y-125879687D01*
X163300500Y-125879669D01*
X163300500Y-125652596D01*
X163320185Y-125585557D01*
X163351614Y-125552278D01*
X163355403Y-125549524D01*
X163355405Y-125549524D01*
X163514646Y-125433828D01*
X163653828Y-125294646D01*
X163769524Y-125135405D01*
X163858884Y-124960025D01*
X163919709Y-124772826D01*
X163935702Y-124671850D01*
X163950500Y-124578422D01*
X163950500Y-124381577D01*
X163919709Y-124187173D01*
X163872086Y-124040606D01*
X163858884Y-123999975D01*
X163858882Y-123999972D01*
X163858882Y-123999970D01*
X163811743Y-123907455D01*
X163769524Y-123824595D01*
X163653828Y-123665354D01*
X163514646Y-123526172D01*
X163355405Y-123410476D01*
X163335824Y-123400499D01*
X163180029Y-123321117D01*
X162992826Y-123260290D01*
X162905584Y-123246473D01*
X162842449Y-123216544D01*
X162805518Y-123157232D01*
X162806516Y-123087370D01*
X162845126Y-123029137D01*
X162909089Y-123001023D01*
X162924982Y-123000000D01*
X165475018Y-123000000D01*
X165542057Y-123019685D01*
X165587812Y-123072489D01*
X165597756Y-123141647D01*
X165568731Y-123205203D01*
X165509953Y-123242977D01*
X165494416Y-123246473D01*
X165407173Y-123260290D01*
X165219970Y-123321117D01*
X165044594Y-123410476D01*
X164975801Y-123460458D01*
X164885354Y-123526172D01*
X164885352Y-123526174D01*
X164885351Y-123526174D01*
X164746174Y-123665351D01*
X164746174Y-123665352D01*
X164746172Y-123665354D01*
X164726150Y-123692912D01*
X164630476Y-123824594D01*
X164541117Y-123999970D01*
X164480290Y-124187173D01*
X164449500Y-124381577D01*
X164449500Y-124578422D01*
X164480290Y-124772826D01*
X164541117Y-124960029D01*
X164627132Y-125128842D01*
X164630476Y-125135405D01*
X164746172Y-125294646D01*
X164885354Y-125433828D01*
X165044595Y-125549524D01*
X165107505Y-125581578D01*
X165219970Y-125638882D01*
X165219972Y-125638882D01*
X165219975Y-125638884D01*
X165304171Y-125666241D01*
X165407173Y-125699709D01*
X165601578Y-125730500D01*
X165601583Y-125730500D01*
X165798422Y-125730500D01*
X165992826Y-125699709D01*
X166180025Y-125638884D01*
X166355405Y-125549524D01*
X166514646Y-125433828D01*
X166653828Y-125294646D01*
X166769524Y-125135405D01*
X166858884Y-124960025D01*
X166919709Y-124772826D01*
X166935702Y-124671850D01*
X166950500Y-124578422D01*
X166950500Y-124381577D01*
X166919709Y-124187173D01*
X166872086Y-124040606D01*
X166858884Y-123999975D01*
X166858882Y-123999972D01*
X166858882Y-123999970D01*
X166811743Y-123907455D01*
X166769524Y-123824595D01*
X166653828Y-123665354D01*
X166514646Y-123526172D01*
X166355405Y-123410476D01*
X166335824Y-123400499D01*
X166180029Y-123321117D01*
X165992826Y-123260290D01*
X165905584Y-123246473D01*
X165842449Y-123216544D01*
X165805518Y-123157232D01*
X165806516Y-123087370D01*
X165845126Y-123029137D01*
X165909089Y-123001023D01*
X165924982Y-123000000D01*
X167157489Y-123000000D01*
X167170756Y-123003895D01*
X167184556Y-123002990D01*
X167203621Y-123013546D01*
X167224528Y-123019685D01*
X167234849Y-123030836D01*
X167245682Y-123036834D01*
X167266666Y-123065210D01*
X167324804Y-123173181D01*
X167329870Y-123185939D01*
X167330498Y-123185679D01*
X167333608Y-123193186D01*
X167361917Y-123242219D01*
X167363708Y-123245431D01*
X167390559Y-123295298D01*
X167390563Y-123295304D01*
X167395733Y-123300790D01*
X167399500Y-123307314D01*
X167440838Y-123348652D01*
X167442066Y-123349955D01*
X167480945Y-123391211D01*
X167480948Y-123391212D01*
X167480951Y-123391216D01*
X167486713Y-123395916D01*
X167492680Y-123400494D01*
X167492686Y-123400500D01*
X167514666Y-123413190D01*
X167541741Y-123428822D01*
X167541742Y-123428823D01*
X167543339Y-123429745D01*
X167593069Y-123460458D01*
X167600280Y-123462621D01*
X167606806Y-123466389D01*
X167606809Y-123466390D01*
X167606811Y-123466390D01*
X167606814Y-123466392D01*
X167661532Y-123481053D01*
X167665045Y-123482051D01*
X167683314Y-123487531D01*
X167719296Y-123498326D01*
X167719301Y-123498326D01*
X167726727Y-123499528D01*
X167734105Y-123500500D01*
X167792575Y-123500500D01*
X167851022Y-123502234D01*
X167858356Y-123500500D01*
X169176779Y-123500500D01*
X169185993Y-123500843D01*
X169195197Y-123501528D01*
X169202275Y-123502056D01*
X169217843Y-123504215D01*
X169291971Y-123519340D01*
X169312320Y-123525346D01*
X169363528Y-123545369D01*
X169385461Y-123556572D01*
X169392964Y-123561400D01*
X169409601Y-123572105D01*
X169431015Y-123589541D01*
X169438598Y-123597270D01*
X169456491Y-123620442D01*
X169470239Y-123643418D01*
X169470285Y-123643530D01*
X169470331Y-123643572D01*
X169483911Y-123676149D01*
X169488230Y-123692912D01*
X169490841Y-123705869D01*
X169495444Y-123737277D01*
X169496622Y-123749515D01*
X169499367Y-123808716D01*
X169499500Y-123814459D01*
X169499500Y-135375500D01*
X169479815Y-135442539D01*
X169427011Y-135488294D01*
X169375500Y-135499500D01*
X120624500Y-135499500D01*
X120557461Y-135479815D01*
X120511706Y-135427011D01*
X120500500Y-135375500D01*
X120500500Y-133693753D01*
X120909999Y-133693753D01*
X120909999Y-133906246D01*
X120943241Y-134116127D01*
X120943241Y-134116130D01*
X121008903Y-134318217D01*
X121105374Y-134507550D01*
X121144727Y-134561716D01*
X121777036Y-133929408D01*
X121794074Y-133992993D01*
X121859900Y-134107007D01*
X121952992Y-134200099D01*
X122067006Y-134265925D01*
X122130589Y-134282962D01*
X121498281Y-134915269D01*
X121498281Y-134915270D01*
X121552448Y-134954624D01*
X121741781Y-135051095D01*
X121943869Y-135116757D01*
X122153753Y-135150000D01*
X122366245Y-135150000D01*
X122576126Y-135116757D01*
X122576129Y-135116757D01*
X122778216Y-135051095D01*
X122967553Y-134954622D01*
X123021715Y-134915270D01*
X123021716Y-134915270D01*
X122389407Y-134282962D01*
X122452992Y-134265925D01*
X122567006Y-134200099D01*
X122660098Y-134107007D01*
X122725924Y-133992993D01*
X122742961Y-133929408D01*
X123375269Y-134561717D01*
X123375269Y-134561716D01*
X123414622Y-134507553D01*
X123419230Y-134498509D01*
X123467201Y-134447710D01*
X123535021Y-134430910D01*
X123601157Y-134453444D01*
X123640201Y-134498499D01*
X123644949Y-134507817D01*
X123769890Y-134679786D01*
X123920213Y-134830109D01*
X124092179Y-134955048D01*
X124092181Y-134955049D01*
X124092184Y-134955051D01*
X124281588Y-135051557D01*
X124483757Y-135117246D01*
X124693713Y-135150500D01*
X124693714Y-135150500D01*
X124906286Y-135150500D01*
X124906287Y-135150500D01*
X125116243Y-135117246D01*
X125318412Y-135051557D01*
X125507816Y-134955051D01*
X125594138Y-134892335D01*
X125679786Y-134830109D01*
X125679788Y-134830106D01*
X125679792Y-134830104D01*
X125830104Y-134679792D01*
X125830106Y-134679788D01*
X125830109Y-134679786D01*
X125955048Y-134507820D01*
X125955050Y-134507817D01*
X125955051Y-134507816D01*
X125959512Y-134499058D01*
X126007483Y-134448262D01*
X126075303Y-134431464D01*
X126141440Y-134453998D01*
X126180483Y-134499054D01*
X126184948Y-134507817D01*
X126309889Y-134679786D01*
X126460212Y-134830109D01*
X126632178Y-134955048D01*
X126632180Y-134955049D01*
X126632183Y-134955051D01*
X126821587Y-135051557D01*
X127023756Y-135117246D01*
X127233712Y-135150500D01*
X127233713Y-135150500D01*
X127446285Y-135150500D01*
X127446286Y-135150500D01*
X127656242Y-135117246D01*
X127858411Y-135051557D01*
X128047815Y-134955051D01*
X128219791Y-134830104D01*
X128333328Y-134716566D01*
X128394647Y-134683084D01*
X128464339Y-134688068D01*
X128520273Y-134729939D01*
X128537188Y-134760917D01*
X128586201Y-134892328D01*
X128586205Y-134892335D01*
X128672451Y-135007544D01*
X128672454Y-135007547D01*
X128787663Y-135093793D01*
X128787670Y-135093797D01*
X128922516Y-135144091D01*
X128922515Y-135144091D01*
X128929443Y-135144835D01*
X128982126Y-135150500D01*
X130777871Y-135150499D01*
X130837482Y-135144091D01*
X130972330Y-135093796D01*
X131087545Y-135007546D01*
X131173795Y-134892331D01*
X131224090Y-134757483D01*
X131230499Y-134697873D01*
X131230498Y-132902128D01*
X131224090Y-132842517D01*
X131222809Y-132839083D01*
X131173796Y-132707671D01*
X131173792Y-132707664D01*
X131087546Y-132592455D01*
X131087543Y-132592452D01*
X130972334Y-132506206D01*
X130972327Y-132506202D01*
X130837481Y-132455908D01*
X130837482Y-132455908D01*
X130777882Y-132449501D01*
X130777880Y-132449500D01*
X130777872Y-132449500D01*
X130777863Y-132449500D01*
X128982128Y-132449500D01*
X128982122Y-132449501D01*
X128922515Y-132455908D01*
X128787670Y-132506202D01*
X128787663Y-132506206D01*
X128672454Y-132592452D01*
X128672451Y-132592455D01*
X128586205Y-132707664D01*
X128586202Y-132707669D01*
X128537188Y-132839083D01*
X128495316Y-132895016D01*
X128429852Y-132919433D01*
X128361579Y-132904581D01*
X128333325Y-132883430D01*
X128219785Y-132769890D01*
X128047819Y-132644951D01*
X127858413Y-132548444D01*
X127858412Y-132548443D01*
X127858411Y-132548443D01*
X127656242Y-132482754D01*
X127656240Y-132482753D01*
X127656239Y-132482753D01*
X127494956Y-132457208D01*
X127446286Y-132449500D01*
X127233712Y-132449500D01*
X127185041Y-132457208D01*
X127023759Y-132482753D01*
X126821584Y-132548444D01*
X126632178Y-132644951D01*
X126460212Y-132769890D01*
X126309889Y-132920213D01*
X126184947Y-133092183D01*
X126180481Y-133100949D01*
X126132505Y-133151742D01*
X126064683Y-133168535D01*
X125998549Y-133145995D01*
X125959513Y-133100942D01*
X125955051Y-133092184D01*
X125955049Y-133092181D01*
X125955048Y-133092179D01*
X125830109Y-132920213D01*
X125679786Y-132769890D01*
X125507820Y-132644951D01*
X125318414Y-132548444D01*
X125318413Y-132548443D01*
X125318412Y-132548443D01*
X125116243Y-132482754D01*
X125116241Y-132482753D01*
X125116240Y-132482753D01*
X124954957Y-132457208D01*
X124906287Y-132449500D01*
X124693713Y-132449500D01*
X124645042Y-132457208D01*
X124483760Y-132482753D01*
X124281585Y-132548444D01*
X124092179Y-132644951D01*
X123920213Y-132769890D01*
X123769890Y-132920213D01*
X123644950Y-133092181D01*
X123640200Y-133101503D01*
X123592223Y-133152296D01*
X123524401Y-133169088D01*
X123458267Y-133146547D01*
X123419231Y-133101493D01*
X123414623Y-133092449D01*
X123375269Y-133038282D01*
X123375268Y-133038282D01*
X122742961Y-133670590D01*
X122725924Y-133607007D01*
X122660098Y-133492993D01*
X122567006Y-133399901D01*
X122452992Y-133334075D01*
X122389408Y-133317037D01*
X123021715Y-132684728D01*
X122967549Y-132645375D01*
X122778216Y-132548904D01*
X122576128Y-132483242D01*
X122366245Y-132450000D01*
X122153753Y-132450000D01*
X121943871Y-132483242D01*
X121943868Y-132483242D01*
X121741781Y-132548904D01*
X121552438Y-132645380D01*
X121498281Y-132684727D01*
X121498281Y-132684728D01*
X122130590Y-133317037D01*
X122067006Y-133334075D01*
X121952992Y-133399901D01*
X121859900Y-133492993D01*
X121794074Y-133607007D01*
X121777036Y-133670591D01*
X121144727Y-133038282D01*
X121144726Y-133038282D01*
X121105379Y-133092439D01*
X121008903Y-133281782D01*
X120943241Y-133483869D01*
X120943241Y-133483872D01*
X120909999Y-133693753D01*
X120500500Y-133693753D01*
X120500500Y-132283653D01*
X137449500Y-132283653D01*
X137449500Y-132441346D01*
X137480261Y-132595989D01*
X137480264Y-132596001D01*
X137540602Y-132741672D01*
X137540609Y-132741685D01*
X137628210Y-132872788D01*
X137628213Y-132872792D01*
X137739707Y-132984286D01*
X137739711Y-132984289D01*
X137870814Y-133071890D01*
X137870827Y-133071897D01*
X138011732Y-133130261D01*
X138016503Y-133132237D01*
X138171153Y-133162999D01*
X138171156Y-133163000D01*
X138171158Y-133163000D01*
X138328844Y-133163000D01*
X138328845Y-133162999D01*
X138483497Y-133132237D01*
X138629179Y-133071894D01*
X138760289Y-132984289D01*
X138871789Y-132872789D01*
X138959394Y-132741679D01*
X139019737Y-132595997D01*
X139042263Y-132482753D01*
X139050638Y-132440650D01*
X139059402Y-132423893D01*
X139063423Y-132405414D01*
X139082168Y-132380372D01*
X139083023Y-132378739D01*
X139084467Y-132377267D01*
X139224918Y-132236816D01*
X139286239Y-132203334D01*
X139312597Y-132200500D01*
X139863331Y-132200500D01*
X139863347Y-132200501D01*
X139870943Y-132200501D01*
X140029054Y-132200501D01*
X140029057Y-132200501D01*
X140181785Y-132159577D01*
X140234740Y-132129003D01*
X140318716Y-132080520D01*
X140430520Y-131968716D01*
X140430520Y-131968714D01*
X140440724Y-131958511D01*
X140440727Y-131958506D01*
X146814662Y-125584572D01*
X146875983Y-125551089D01*
X146878150Y-125550638D01*
X146936085Y-125539113D01*
X147033497Y-125519737D01*
X147179179Y-125459394D01*
X147310289Y-125371789D01*
X147421789Y-125260289D01*
X147509394Y-125129179D01*
X147569737Y-124983497D01*
X147572192Y-124971153D01*
X148924500Y-124971153D01*
X148924500Y-125128846D01*
X148955261Y-125283489D01*
X148955264Y-125283501D01*
X149015602Y-125429172D01*
X149015609Y-125429185D01*
X149103602Y-125560874D01*
X149124480Y-125627551D01*
X149124500Y-125629765D01*
X149124500Y-127988330D01*
X149124499Y-127988348D01*
X149124499Y-128154054D01*
X149124498Y-128154054D01*
X149165423Y-128306785D01*
X149194358Y-128356900D01*
X149194359Y-128356904D01*
X149194360Y-128356904D01*
X149244479Y-128443714D01*
X149244481Y-128443717D01*
X149363349Y-128562585D01*
X149363355Y-128562590D01*
X150340425Y-129539660D01*
X150373910Y-129600983D01*
X150374361Y-129603149D01*
X150405261Y-129758491D01*
X150405264Y-129758501D01*
X150465602Y-129904172D01*
X150465609Y-129904185D01*
X150553210Y-130035288D01*
X150553213Y-130035292D01*
X150664707Y-130146786D01*
X150664711Y-130146789D01*
X150795814Y-130234390D01*
X150795827Y-130234397D01*
X150941498Y-130294735D01*
X150941503Y-130294737D01*
X151096153Y-130325499D01*
X151096156Y-130325500D01*
X151096158Y-130325500D01*
X151253844Y-130325500D01*
X151253845Y-130325499D01*
X151408497Y-130294737D01*
X151554179Y-130234394D01*
X151685289Y-130146789D01*
X151796789Y-130035289D01*
X151884394Y-129904179D01*
X151944737Y-129758497D01*
X151975500Y-129603842D01*
X151975500Y-129446158D01*
X151975500Y-129446155D01*
X151975499Y-129446153D01*
X151944738Y-129291510D01*
X151944737Y-129291503D01*
X151944735Y-129291498D01*
X151884397Y-129145827D01*
X151884390Y-129145814D01*
X151796789Y-129014711D01*
X151796786Y-129014707D01*
X151685292Y-128903213D01*
X151685288Y-128903210D01*
X151554185Y-128815609D01*
X151554172Y-128815602D01*
X151408501Y-128755264D01*
X151408491Y-128755261D01*
X151253151Y-128724362D01*
X151191241Y-128691977D01*
X151189662Y-128690426D01*
X150361819Y-127862583D01*
X150328334Y-127801260D01*
X150325500Y-127774902D01*
X150325500Y-125629765D01*
X150345185Y-125562726D01*
X150346398Y-125560874D01*
X150353238Y-125550638D01*
X150434394Y-125429179D01*
X150494737Y-125283497D01*
X150525500Y-125128842D01*
X150525500Y-124971158D01*
X150525500Y-124971155D01*
X150525499Y-124971153D01*
X150497192Y-124828846D01*
X150494737Y-124816503D01*
X150461118Y-124735339D01*
X150434397Y-124670827D01*
X150434390Y-124670814D01*
X150346789Y-124539711D01*
X150346786Y-124539707D01*
X150235292Y-124428213D01*
X150235288Y-124428210D01*
X150104185Y-124340609D01*
X150104172Y-124340602D01*
X149958501Y-124280264D01*
X149958489Y-124280261D01*
X149803845Y-124249500D01*
X149803842Y-124249500D01*
X149646158Y-124249500D01*
X149646155Y-124249500D01*
X149491510Y-124280261D01*
X149491498Y-124280264D01*
X149345827Y-124340602D01*
X149345814Y-124340609D01*
X149214711Y-124428210D01*
X149214707Y-124428213D01*
X149103213Y-124539707D01*
X149103210Y-124539711D01*
X149015609Y-124670814D01*
X149015602Y-124670827D01*
X148955264Y-124816498D01*
X148955261Y-124816510D01*
X148924500Y-124971153D01*
X147572192Y-124971153D01*
X147574406Y-124960025D01*
X147578216Y-124940874D01*
X147578216Y-124940873D01*
X147600499Y-124828846D01*
X147600500Y-124828844D01*
X147600500Y-124671155D01*
X147600499Y-124671153D01*
X147600432Y-124670814D01*
X147569737Y-124516503D01*
X147569735Y-124516498D01*
X147509397Y-124370827D01*
X147509390Y-124370814D01*
X147421789Y-124239711D01*
X147421786Y-124239707D01*
X147310292Y-124128213D01*
X147310288Y-124128210D01*
X147179185Y-124040609D01*
X147179172Y-124040602D01*
X147033501Y-123980264D01*
X147033489Y-123980261D01*
X146878845Y-123949500D01*
X146878842Y-123949500D01*
X146721158Y-123949500D01*
X146721155Y-123949500D01*
X146566510Y-123980261D01*
X146566498Y-123980264D01*
X146420827Y-124040602D01*
X146420814Y-124040609D01*
X146289711Y-124128210D01*
X146289707Y-124128213D01*
X146178213Y-124239707D01*
X146178210Y-124239711D01*
X146090609Y-124370814D01*
X146090602Y-124370827D01*
X146030264Y-124516498D01*
X146030261Y-124516508D01*
X145999361Y-124671850D01*
X145966976Y-124733761D01*
X145965425Y-124735339D01*
X139737584Y-130963181D01*
X139676261Y-130996666D01*
X139649903Y-130999500D01*
X139099169Y-130999500D01*
X139099153Y-130999499D01*
X139091557Y-130999499D01*
X138933443Y-130999499D01*
X138826087Y-131028265D01*
X138780710Y-131040424D01*
X138780709Y-131040425D01*
X138730596Y-131069359D01*
X138730595Y-131069360D01*
X138687189Y-131094420D01*
X138643785Y-131119479D01*
X138643782Y-131119481D01*
X138235339Y-131527925D01*
X138174016Y-131561410D01*
X138171850Y-131561861D01*
X138016508Y-131592761D01*
X138016498Y-131592764D01*
X137870827Y-131653102D01*
X137870814Y-131653109D01*
X137739711Y-131740710D01*
X137739707Y-131740713D01*
X137628213Y-131852207D01*
X137628210Y-131852211D01*
X137540609Y-131983314D01*
X137540602Y-131983327D01*
X137480264Y-132128998D01*
X137480261Y-132129010D01*
X137449500Y-132283653D01*
X120500500Y-132283653D01*
X120500500Y-123823225D01*
X120500843Y-123814014D01*
X120502056Y-123797729D01*
X120504216Y-123782150D01*
X120519341Y-123708024D01*
X120525345Y-123687681D01*
X120545370Y-123636466D01*
X120556570Y-123614541D01*
X120572106Y-123590395D01*
X120589541Y-123568983D01*
X120597270Y-123561400D01*
X120620439Y-123543508D01*
X120643419Y-123529758D01*
X120676144Y-123516088D01*
X120692916Y-123511767D01*
X120705865Y-123509157D01*
X120737281Y-123504553D01*
X120749515Y-123503376D01*
X120794690Y-123501283D01*
X120808718Y-123500633D01*
X120814457Y-123500500D01*
X122341643Y-123500500D01*
X122348978Y-123502234D01*
X122407426Y-123500500D01*
X122465892Y-123500500D01*
X122473171Y-123498549D01*
X122480704Y-123498326D01*
X122536700Y-123481527D01*
X122593186Y-123466392D01*
X122599713Y-123462623D01*
X122606931Y-123460458D01*
X122656673Y-123429737D01*
X122707314Y-123400500D01*
X122712642Y-123395171D01*
X122719055Y-123391211D01*
X122759151Y-123348662D01*
X122800500Y-123307314D01*
X122800501Y-123307313D01*
X122804271Y-123300782D01*
X122809436Y-123295303D01*
X122837147Y-123243839D01*
X122866392Y-123193186D01*
X122866392Y-123193183D01*
X122866394Y-123193181D01*
X122869502Y-123185678D01*
X122870133Y-123185939D01*
X122875196Y-123173174D01*
X122933331Y-123065210D01*
X122982446Y-123015517D01*
X123042509Y-123000000D01*
X159475018Y-123000000D01*
X159542057Y-123019685D01*
G37*
%TD.AperFunction*%
%TD*%
%TA.AperFunction,Conductor*%
%TO.N,/BQ76952 1/C12Jc*%
G36*
X166594039Y-56868685D02*
G01*
X166639794Y-56921489D01*
X166651000Y-56973000D01*
X166651000Y-62325000D01*
X166631315Y-62392039D01*
X166578511Y-62437794D01*
X166527000Y-62449000D01*
X162675000Y-62449000D01*
X162607961Y-62429315D01*
X162562206Y-62376511D01*
X162551000Y-62325000D01*
X162551000Y-59149000D01*
X155475000Y-59149000D01*
X155407961Y-59129315D01*
X155362206Y-59076511D01*
X155351000Y-59025000D01*
X155351000Y-56973000D01*
X155370685Y-56905961D01*
X155423489Y-56860206D01*
X155475000Y-56849000D01*
X166527000Y-56849000D01*
X166594039Y-56868685D01*
G37*
%TD.AperFunction*%
%TD*%
%TA.AperFunction,Conductor*%
%TO.N,/BQ76952 1/C4Jc*%
G36*
X134323043Y-38668685D02*
G01*
X134368798Y-38721489D01*
X134380004Y-38773000D01*
X134380004Y-44125000D01*
X134360319Y-44192039D01*
X134307515Y-44237794D01*
X134256004Y-44249000D01*
X130404004Y-44249000D01*
X130336965Y-44229315D01*
X130291210Y-44176511D01*
X130280004Y-44125000D01*
X130280004Y-40949000D01*
X123204004Y-40949000D01*
X123136965Y-40929315D01*
X123091210Y-40876511D01*
X123080004Y-40825000D01*
X123080004Y-38773000D01*
X123099689Y-38705961D01*
X123152493Y-38660206D01*
X123204004Y-38649000D01*
X134256004Y-38649000D01*
X134323043Y-38668685D01*
G37*
%TD.AperFunction*%
%TD*%
%TA.AperFunction,Conductor*%
%TO.N,/BQ76952 1/C13Jc*%
G36*
X166594039Y-47868685D02*
G01*
X166639794Y-47921489D01*
X166651000Y-47973000D01*
X166651000Y-53325000D01*
X166631315Y-53392039D01*
X166578511Y-53437794D01*
X166527000Y-53449000D01*
X162675000Y-53449000D01*
X162607961Y-53429315D01*
X162562206Y-53376511D01*
X162551000Y-53325000D01*
X162551000Y-50149000D01*
X155475000Y-50149000D01*
X155407961Y-50129315D01*
X155362206Y-50076511D01*
X155351000Y-50025000D01*
X155351000Y-47973000D01*
X155370685Y-47905961D01*
X155423489Y-47860206D01*
X155475000Y-47849000D01*
X166527000Y-47849000D01*
X166594039Y-47868685D01*
G37*
%TD.AperFunction*%
%TD*%
%TA.AperFunction,Conductor*%
%TO.N,/BQ76952 1/C6Jc*%
G36*
X150394039Y-65568685D02*
G01*
X150439794Y-65621489D01*
X150451000Y-65673000D01*
X150451000Y-71025000D01*
X150431315Y-71092039D01*
X150378511Y-71137794D01*
X150327000Y-71149000D01*
X146475000Y-71149000D01*
X146407961Y-71129315D01*
X146362206Y-71076511D01*
X146351000Y-71025000D01*
X146351000Y-67849000D01*
X139275000Y-67849000D01*
X139207961Y-67829315D01*
X139162206Y-67776511D01*
X139151000Y-67725000D01*
X139151000Y-65673000D01*
X139170685Y-65605961D01*
X139223489Y-65560206D01*
X139275000Y-65549000D01*
X150327000Y-65549000D01*
X150394039Y-65568685D01*
G37*
%TD.AperFunction*%
%TD*%
%TA.AperFunction,Conductor*%
%TO.N,-BATT*%
G36*
X139075860Y-82492875D02*
G01*
X139076980Y-82490237D01*
X139100000Y-82500000D01*
X152274890Y-82541300D01*
X152341866Y-82561194D01*
X152387455Y-82614141D01*
X152398500Y-82665299D01*
X152398500Y-92979430D01*
X152398499Y-92979448D01*
X152398499Y-93145154D01*
X152398498Y-93145154D01*
X152398499Y-93145157D01*
X152439423Y-93297885D01*
X152439424Y-93297887D01*
X152439423Y-93297887D01*
X152451161Y-93318216D01*
X152451162Y-93318218D01*
X152518475Y-93434809D01*
X152518481Y-93434817D01*
X152637349Y-93553685D01*
X152637355Y-93553690D01*
X153663181Y-94579516D01*
X153696666Y-94640839D01*
X153699500Y-94667197D01*
X153699500Y-96620234D01*
X153679815Y-96687273D01*
X153678602Y-96689125D01*
X153590609Y-96820814D01*
X153590602Y-96820827D01*
X153530264Y-96966498D01*
X153530261Y-96966510D01*
X153499500Y-97121153D01*
X153499500Y-97278846D01*
X153530261Y-97433489D01*
X153530264Y-97433501D01*
X153590602Y-97579172D01*
X153590609Y-97579185D01*
X153678210Y-97710288D01*
X153678213Y-97710292D01*
X153789707Y-97821786D01*
X153789711Y-97821789D01*
X153920814Y-97909390D01*
X153920827Y-97909397D01*
X154066498Y-97969735D01*
X154066503Y-97969737D01*
X154221153Y-98000499D01*
X154221156Y-98000500D01*
X154221158Y-98000500D01*
X154378844Y-98000500D01*
X154378845Y-98000499D01*
X154533497Y-97969737D01*
X154652550Y-97920423D01*
X154722017Y-97912955D01*
X154747450Y-97920422D01*
X154866506Y-97969737D01*
X155021156Y-98000499D01*
X155021159Y-98000500D01*
X155021161Y-98000500D01*
X155178847Y-98000500D01*
X155178848Y-98000499D01*
X155333500Y-97969737D01*
X155452553Y-97920423D01*
X155522020Y-97912955D01*
X155547453Y-97920422D01*
X155666509Y-97969737D01*
X155821159Y-98000499D01*
X155821162Y-98000500D01*
X155821164Y-98000500D01*
X155978850Y-98000500D01*
X155978851Y-98000499D01*
X156133503Y-97969737D01*
X156252556Y-97920423D01*
X156322023Y-97912955D01*
X156347456Y-97920422D01*
X156466512Y-97969737D01*
X156621162Y-98000499D01*
X156621165Y-98000500D01*
X156621167Y-98000500D01*
X156778853Y-98000500D01*
X156778854Y-98000499D01*
X156933506Y-97969737D01*
X157079188Y-97909394D01*
X157210298Y-97821789D01*
X157321798Y-97710289D01*
X157409403Y-97579179D01*
X157469746Y-97433497D01*
X157500509Y-97278842D01*
X157500509Y-97121158D01*
X157500509Y-97121155D01*
X157500508Y-97121153D01*
X157488824Y-97062415D01*
X157469746Y-96966503D01*
X157469744Y-96966498D01*
X157409406Y-96820827D01*
X157409399Y-96820814D01*
X157321407Y-96689125D01*
X157300529Y-96622447D01*
X157300509Y-96620234D01*
X157300509Y-95089068D01*
X157300510Y-95089055D01*
X157300510Y-94920954D01*
X157300510Y-94920952D01*
X157259586Y-94768224D01*
X157208107Y-94679060D01*
X157194318Y-94655176D01*
X157180530Y-94631294D01*
X157064394Y-94515158D01*
X157064383Y-94515148D01*
X154839819Y-92290584D01*
X154806334Y-92229261D01*
X154803500Y-92202903D01*
X154803500Y-82673615D01*
X154823185Y-82606576D01*
X154875989Y-82560821D01*
X154927883Y-82549617D01*
X161676891Y-82570773D01*
X161743866Y-82590667D01*
X161789455Y-82643614D01*
X161800500Y-82694772D01*
X161800500Y-83644064D01*
X161780815Y-83711103D01*
X161779603Y-83712954D01*
X161741608Y-83769817D01*
X161741602Y-83769828D01*
X161681264Y-83915498D01*
X161681261Y-83915510D01*
X161650500Y-84070153D01*
X161650500Y-84227846D01*
X161681261Y-84382489D01*
X161681264Y-84382501D01*
X161741602Y-84528172D01*
X161741609Y-84528185D01*
X161829210Y-84659288D01*
X161829213Y-84659292D01*
X161940707Y-84770786D01*
X161940711Y-84770789D01*
X162071814Y-84858390D01*
X162071827Y-84858397D01*
X162217498Y-84918735D01*
X162217503Y-84918737D01*
X162372153Y-84949499D01*
X162372156Y-84949500D01*
X162372158Y-84949500D01*
X162529844Y-84949500D01*
X162529845Y-84949499D01*
X162684497Y-84918737D01*
X162830179Y-84858394D01*
X162961289Y-84770789D01*
X163072789Y-84659289D01*
X163160394Y-84528179D01*
X163220737Y-84382497D01*
X163251500Y-84227842D01*
X163251500Y-84070158D01*
X163251500Y-84070155D01*
X163251499Y-84070153D01*
X163220738Y-83915510D01*
X163220737Y-83915503D01*
X163160394Y-83769821D01*
X163122396Y-83712953D01*
X163101520Y-83646276D01*
X163101500Y-83644064D01*
X163101500Y-83069807D01*
X163121185Y-83002768D01*
X163137814Y-82982131D01*
X163506845Y-82613100D01*
X163568164Y-82579618D01*
X163594898Y-82576786D01*
X164249935Y-82578839D01*
X164316910Y-82598733D01*
X164362499Y-82651680D01*
X164372226Y-82720870D01*
X164371161Y-82727029D01*
X164349500Y-82835926D01*
X164349500Y-83595064D01*
X164329815Y-83662103D01*
X164328603Y-83663954D01*
X164290608Y-83720817D01*
X164290602Y-83720828D01*
X164230264Y-83866498D01*
X164230261Y-83866510D01*
X164199500Y-84021153D01*
X164199500Y-84178846D01*
X164230261Y-84333489D01*
X164230264Y-84333501D01*
X164290602Y-84479172D01*
X164290609Y-84479185D01*
X164378210Y-84610288D01*
X164378213Y-84610292D01*
X164489707Y-84721786D01*
X164489711Y-84721789D01*
X164620814Y-84809390D01*
X164620827Y-84809397D01*
X164766498Y-84869735D01*
X164766503Y-84869737D01*
X164921153Y-84900499D01*
X164921156Y-84900500D01*
X164921158Y-84900500D01*
X165078844Y-84900500D01*
X165078845Y-84900499D01*
X165233497Y-84869737D01*
X165379179Y-84809394D01*
X165510289Y-84721789D01*
X165621789Y-84610289D01*
X165709394Y-84479179D01*
X165769737Y-84333497D01*
X165800500Y-84178842D01*
X165800500Y-84021158D01*
X165800500Y-84021155D01*
X165800499Y-84021153D01*
X165769738Y-83866510D01*
X165769737Y-83866503D01*
X165709394Y-83720821D01*
X165671396Y-83663953D01*
X165650520Y-83597276D01*
X165650500Y-83595064D01*
X165650500Y-83220808D01*
X165659144Y-83191367D01*
X165665668Y-83161381D01*
X165669422Y-83156365D01*
X165670185Y-83153769D01*
X165686819Y-83133127D01*
X165832127Y-82987819D01*
X165893450Y-82954334D01*
X165919808Y-82951500D01*
X166725500Y-82951500D01*
X166792539Y-82971185D01*
X166838294Y-83023989D01*
X166849500Y-83075500D01*
X166849500Y-83595064D01*
X166829815Y-83662103D01*
X166828603Y-83663954D01*
X166790608Y-83720817D01*
X166790602Y-83720828D01*
X166730264Y-83866498D01*
X166730261Y-83866510D01*
X166699500Y-84021153D01*
X166699500Y-84178846D01*
X166730261Y-84333489D01*
X166730264Y-84333501D01*
X166790602Y-84479172D01*
X166790609Y-84479185D01*
X166878210Y-84610288D01*
X166878213Y-84610292D01*
X166989707Y-84721786D01*
X166989711Y-84721789D01*
X167120814Y-84809390D01*
X167120827Y-84809397D01*
X167266498Y-84869735D01*
X167266503Y-84869737D01*
X167421153Y-84900499D01*
X167421156Y-84900500D01*
X167421158Y-84900500D01*
X167578844Y-84900500D01*
X167578845Y-84900499D01*
X167733497Y-84869737D01*
X167879179Y-84809394D01*
X168010289Y-84721789D01*
X168121789Y-84610289D01*
X168209394Y-84479179D01*
X168269737Y-84333497D01*
X168300500Y-84178842D01*
X168300500Y-84021158D01*
X168300500Y-84021155D01*
X168300499Y-84021153D01*
X168269738Y-83866510D01*
X168269737Y-83866503D01*
X168209394Y-83720821D01*
X168171396Y-83663953D01*
X168150520Y-83597276D01*
X168150500Y-83595064D01*
X168150500Y-83120807D01*
X168170185Y-83053768D01*
X168186814Y-83033131D01*
X168590907Y-82629038D01*
X168652226Y-82595556D01*
X168678965Y-82592723D01*
X169375890Y-82594908D01*
X169442866Y-82614802D01*
X169488455Y-82667749D01*
X169499500Y-82718907D01*
X169499500Y-116176765D01*
X169499157Y-116185987D01*
X169497942Y-116202279D01*
X169495782Y-116217848D01*
X169480659Y-116291964D01*
X169474648Y-116312328D01*
X169454629Y-116363528D01*
X169443422Y-116385469D01*
X169427898Y-116409596D01*
X169410460Y-116431013D01*
X169402729Y-116438598D01*
X169379558Y-116456490D01*
X169356584Y-116470237D01*
X169323854Y-116483910D01*
X169307088Y-116488230D01*
X169294128Y-116490841D01*
X169262719Y-116495444D01*
X169250483Y-116496622D01*
X169196463Y-116499126D01*
X169191280Y-116499367D01*
X169185540Y-116499500D01*
X167907039Y-116499500D01*
X167848175Y-116497848D01*
X167841237Y-116499500D01*
X167834102Y-116499500D01*
X167778950Y-116514278D01*
X167775581Y-116515131D01*
X167719971Y-116528372D01*
X167719969Y-116528373D01*
X167713695Y-116531763D01*
X167706814Y-116533608D01*
X167655869Y-116563019D01*
X167654317Y-116563859D01*
X167654316Y-116563859D01*
X167604042Y-116591035D01*
X167599646Y-116595191D01*
X167598859Y-116595935D01*
X167592686Y-116599500D01*
X167551076Y-116641108D01*
X167549813Y-116642303D01*
X167508276Y-116681574D01*
X167504539Y-116687645D01*
X167499500Y-116692686D01*
X167470095Y-116743615D01*
X167469174Y-116745113D01*
X167469151Y-116745153D01*
X167348638Y-116940988D01*
X167296738Y-116987766D01*
X167243032Y-117000000D01*
X122956967Y-117000000D01*
X122889928Y-116980315D01*
X122851361Y-116940988D01*
X122730854Y-116745164D01*
X122729939Y-116743678D01*
X122700500Y-116692686D01*
X122695457Y-116687643D01*
X122691721Y-116681572D01*
X122650178Y-116642297D01*
X122647719Y-116639905D01*
X122607316Y-116599502D01*
X122607314Y-116599500D01*
X122607311Y-116599498D01*
X122601698Y-116595191D01*
X122595957Y-116591036D01*
X122545686Y-116563862D01*
X122545686Y-116563863D01*
X122544169Y-116563043D01*
X122493186Y-116533608D01*
X122486300Y-116531763D01*
X122480027Y-116528372D01*
X122480026Y-116528371D01*
X122480025Y-116528371D01*
X122424434Y-116515134D01*
X122422695Y-116514720D01*
X122365892Y-116499500D01*
X122358768Y-116499500D01*
X122351834Y-116497849D01*
X122351828Y-116497848D01*
X122351826Y-116497848D01*
X122351823Y-116497848D01*
X122351822Y-116497848D01*
X122294708Y-116499451D01*
X122291229Y-116499500D01*
X120823233Y-116499500D01*
X120814021Y-116499157D01*
X120804987Y-116498484D01*
X120797719Y-116497942D01*
X120782150Y-116495782D01*
X120708035Y-116480660D01*
X120687668Y-116474648D01*
X120636474Y-116454630D01*
X120614539Y-116443427D01*
X120590398Y-116427895D01*
X120568969Y-116410445D01*
X120561389Y-116402717D01*
X120543508Y-116379557D01*
X120529760Y-116356581D01*
X120516090Y-116323858D01*
X120511765Y-116307076D01*
X120509159Y-116294146D01*
X120504551Y-116262702D01*
X120503376Y-116250480D01*
X120501506Y-116210133D01*
X120500633Y-116191282D01*
X120500500Y-116185542D01*
X120500500Y-108044555D01*
X120520185Y-107977516D01*
X120572989Y-107931761D01*
X120642147Y-107921817D01*
X120705703Y-107950842D01*
X120734985Y-107988261D01*
X120744949Y-108007817D01*
X120869890Y-108179786D01*
X121020213Y-108330109D01*
X121192179Y-108455048D01*
X121192181Y-108455049D01*
X121192184Y-108455051D01*
X121381588Y-108551557D01*
X121583757Y-108617246D01*
X121793713Y-108650500D01*
X121793714Y-108650500D01*
X122006286Y-108650500D01*
X122006287Y-108650500D01*
X122216243Y-108617246D01*
X122418412Y-108551557D01*
X122607816Y-108455051D01*
X122629789Y-108439086D01*
X122779786Y-108330109D01*
X122779788Y-108330106D01*
X122779792Y-108330104D01*
X122930104Y-108179792D01*
X122930106Y-108179788D01*
X122930109Y-108179786D01*
X123055048Y-108007820D01*
X123055050Y-108007817D01*
X123055051Y-108007816D01*
X123151557Y-107818412D01*
X123217246Y-107616243D01*
X123250500Y-107406287D01*
X123250500Y-107193713D01*
X123217246Y-106983757D01*
X123151557Y-106781588D01*
X123055051Y-106592184D01*
X123055049Y-106592181D01*
X123055048Y-106592179D01*
X122930109Y-106420213D01*
X122779786Y-106269890D01*
X122607820Y-106144951D01*
X122607115Y-106144591D01*
X122599054Y-106140485D01*
X122548259Y-106092512D01*
X122531463Y-106024692D01*
X122553999Y-105958556D01*
X122599054Y-105919515D01*
X122607816Y-105915051D01*
X122674143Y-105866862D01*
X122779786Y-105790109D01*
X122779788Y-105790106D01*
X122779792Y-105790104D01*
X122930104Y-105639792D01*
X122930106Y-105639788D01*
X122930109Y-105639786D01*
X123055048Y-105467820D01*
X123055050Y-105467817D01*
X123055051Y-105467816D01*
X123151557Y-105278412D01*
X123217246Y-105076243D01*
X123250500Y-104866287D01*
X123250500Y-104719097D01*
X123256738Y-104697851D01*
X123258318Y-104675763D01*
X123266390Y-104664979D01*
X123270185Y-104652058D01*
X123286918Y-104637558D01*
X123300190Y-104619830D01*
X123312810Y-104615122D01*
X123322989Y-104606303D01*
X123344906Y-104603151D01*
X123365654Y-104595413D01*
X123378814Y-104598275D01*
X123392147Y-104596359D01*
X123412290Y-104605558D01*
X123433927Y-104610265D01*
X123451652Y-104623533D01*
X123455703Y-104625384D01*
X123462181Y-104631416D01*
X123463181Y-104632416D01*
X123496666Y-104693739D01*
X123499500Y-104720097D01*
X123499500Y-111559955D01*
X123499499Y-111559973D01*
X123499499Y-111725679D01*
X123499498Y-111725679D01*
X123540423Y-111878410D01*
X123546967Y-111889744D01*
X123546968Y-111889746D01*
X123619477Y-112015337D01*
X123619481Y-112015342D01*
X123738349Y-112134210D01*
X123738355Y-112134215D01*
X124109230Y-112505090D01*
X124142715Y-112566413D01*
X124143166Y-112568579D01*
X124174066Y-112723921D01*
X124174069Y-112723931D01*
X124234407Y-112869602D01*
X124234414Y-112869615D01*
X124322015Y-113000718D01*
X124322018Y-113000722D01*
X124433512Y-113112216D01*
X124433516Y-113112219D01*
X124564619Y-113199820D01*
X124564632Y-113199827D01*
X124710303Y-113260165D01*
X124710308Y-113260167D01*
X124774952Y-113273025D01*
X124865654Y-113291068D01*
X124927565Y-113323453D01*
X124929144Y-113325004D01*
X125369514Y-113765374D01*
X125369524Y-113765385D01*
X125373854Y-113769715D01*
X125373855Y-113769716D01*
X125485659Y-113881520D01*
X125485661Y-113881521D01*
X125485665Y-113881524D01*
X125622584Y-113960573D01*
X125622591Y-113960577D01*
X125734394Y-113990534D01*
X125775317Y-114001500D01*
X125775318Y-114001500D01*
X137387532Y-114001500D01*
X137387548Y-114001501D01*
X137395144Y-114001501D01*
X137553255Y-114001501D01*
X137553258Y-114001501D01*
X137705986Y-113960577D01*
X137756105Y-113931639D01*
X137842917Y-113881520D01*
X137954721Y-113769716D01*
X137954721Y-113769714D01*
X137964929Y-113759507D01*
X137964930Y-113759504D01*
X143089026Y-108635409D01*
X143150347Y-108601926D01*
X143152514Y-108601475D01*
X143210449Y-108589950D01*
X143307861Y-108570574D01*
X143453543Y-108510231D01*
X143584653Y-108422626D01*
X143696153Y-108311126D01*
X143783758Y-108180016D01*
X143844101Y-108034334D01*
X143874864Y-107879679D01*
X143874864Y-107721995D01*
X143874864Y-107721992D01*
X143874863Y-107721990D01*
X143863469Y-107664711D01*
X143844101Y-107567340D01*
X143839862Y-107557105D01*
X143783761Y-107421664D01*
X143783754Y-107421651D01*
X143696153Y-107290548D01*
X143696150Y-107290544D01*
X143584656Y-107179050D01*
X143584652Y-107179047D01*
X143453549Y-107091446D01*
X143453543Y-107091443D01*
X143369525Y-107056641D01*
X143315122Y-107012799D01*
X143298184Y-106972919D01*
X143297344Y-106973175D01*
X143295573Y-106967338D01*
X143235234Y-106821664D01*
X143235227Y-106821651D01*
X143147626Y-106690548D01*
X143147623Y-106690544D01*
X143036129Y-106579050D01*
X143036125Y-106579047D01*
X142905022Y-106491446D01*
X142905009Y-106491439D01*
X142759338Y-106431101D01*
X142759326Y-106431098D01*
X142604682Y-106400337D01*
X142604679Y-106400337D01*
X142446995Y-106400337D01*
X142446992Y-106400337D01*
X142292347Y-106431098D01*
X142292335Y-106431101D01*
X142146664Y-106491439D01*
X142146651Y-106491446D01*
X142015548Y-106579047D01*
X142015544Y-106579050D01*
X141904050Y-106690544D01*
X141904047Y-106690548D01*
X141816446Y-106821651D01*
X141816439Y-106821664D01*
X141756101Y-106967335D01*
X141756098Y-106967345D01*
X141725198Y-107122687D01*
X141692813Y-107184598D01*
X141691262Y-107186176D01*
X141306962Y-107570476D01*
X141245639Y-107603961D01*
X141175947Y-107598977D01*
X141120014Y-107557105D01*
X141104720Y-107530247D01*
X141059397Y-107420827D01*
X141059390Y-107420814D01*
X140971398Y-107289125D01*
X140950520Y-107222447D01*
X140950500Y-107220234D01*
X140950500Y-102663892D01*
X142156761Y-102663892D01*
X142156761Y-102821585D01*
X142187522Y-102976228D01*
X142187525Y-102976240D01*
X142247863Y-103121911D01*
X142247870Y-103121924D01*
X142335471Y-103253027D01*
X142335474Y-103253031D01*
X142446968Y-103364525D01*
X142446972Y-103364528D01*
X142578075Y-103452129D01*
X142578088Y-103452136D01*
X142682326Y-103495312D01*
X142723764Y-103512476D01*
X142787055Y-103525065D01*
X142860982Y-103539771D01*
X142922893Y-103572156D01*
X142924472Y-103573707D01*
X143865425Y-104514660D01*
X143898910Y-104575983D01*
X143899361Y-104578149D01*
X143930261Y-104733491D01*
X143930264Y-104733501D01*
X143990602Y-104879172D01*
X143990609Y-104879185D01*
X144078210Y-105010288D01*
X144078213Y-105010292D01*
X144189707Y-105121786D01*
X144189711Y-105121789D01*
X144320814Y-105209390D01*
X144320827Y-105209397D01*
X144466498Y-105269735D01*
X144466503Y-105269737D01*
X144621153Y-105300499D01*
X144621156Y-105300500D01*
X144621158Y-105300500D01*
X144778844Y-105300500D01*
X144778845Y-105300499D01*
X144933497Y-105269737D01*
X145079179Y-105209394D01*
X145210289Y-105121789D01*
X145321789Y-105010289D01*
X145409394Y-104879179D01*
X145469737Y-104733497D01*
X145500500Y-104578842D01*
X145500500Y-104421158D01*
X145500500Y-104421155D01*
X145500499Y-104421153D01*
X145493061Y-104383761D01*
X145469737Y-104266503D01*
X145459417Y-104241588D01*
X145409397Y-104120827D01*
X145409390Y-104120814D01*
X145321789Y-103989711D01*
X145321786Y-103989707D01*
X145210292Y-103878213D01*
X145210288Y-103878210D01*
X145079185Y-103790609D01*
X145079172Y-103790602D01*
X144933501Y-103730264D01*
X144933491Y-103730261D01*
X144778149Y-103699361D01*
X144716238Y-103666976D01*
X144714660Y-103665425D01*
X143794009Y-102744774D01*
X143760524Y-102683451D01*
X143758286Y-102669236D01*
X143757761Y-102663906D01*
X143757761Y-102663897D01*
X143726998Y-102509242D01*
X143726996Y-102509237D01*
X143666658Y-102363566D01*
X143666651Y-102363553D01*
X143579050Y-102232450D01*
X143579047Y-102232446D01*
X143467553Y-102120952D01*
X143467549Y-102120949D01*
X143336446Y-102033348D01*
X143336433Y-102033341D01*
X143190762Y-101973003D01*
X143190750Y-101973000D01*
X143036106Y-101942239D01*
X143036103Y-101942239D01*
X142878419Y-101942239D01*
X142878416Y-101942239D01*
X142723771Y-101973000D01*
X142723759Y-101973003D01*
X142578088Y-102033341D01*
X142578075Y-102033348D01*
X142446972Y-102120949D01*
X142446968Y-102120952D01*
X142335474Y-102232446D01*
X142335471Y-102232450D01*
X142247870Y-102363553D01*
X142247863Y-102363566D01*
X142187525Y-102509237D01*
X142187522Y-102509249D01*
X142156761Y-102663892D01*
X140950500Y-102663892D01*
X140950500Y-99146153D01*
X150024500Y-99146153D01*
X150024500Y-99303846D01*
X150055261Y-99458489D01*
X150055264Y-99458501D01*
X150115602Y-99604172D01*
X150115609Y-99604185D01*
X150203210Y-99735288D01*
X150203213Y-99735292D01*
X150314707Y-99846786D01*
X150314711Y-99846789D01*
X150445814Y-99934390D01*
X150445827Y-99934397D01*
X150591498Y-99994735D01*
X150591503Y-99994737D01*
X150656147Y-100007595D01*
X150746849Y-100025638D01*
X150808760Y-100058023D01*
X150810338Y-100059573D01*
X153531284Y-102780520D01*
X153531286Y-102780521D01*
X153531290Y-102780524D01*
X153646749Y-102847183D01*
X153668216Y-102859577D01*
X153820943Y-102900501D01*
X153820945Y-102900501D01*
X153986654Y-102900501D01*
X153986670Y-102900500D01*
X158220234Y-102900500D01*
X158287273Y-102920185D01*
X158289125Y-102921398D01*
X158420814Y-103009390D01*
X158420827Y-103009397D01*
X158517786Y-103049558D01*
X158566503Y-103069737D01*
X158717569Y-103099786D01*
X158721153Y-103100499D01*
X158721156Y-103100500D01*
X158721158Y-103100500D01*
X158878844Y-103100500D01*
X158878845Y-103100499D01*
X159033497Y-103069737D01*
X159179179Y-103009394D01*
X159246285Y-102964555D01*
X159292939Y-102933382D01*
X159359616Y-102912504D01*
X159426996Y-102930988D01*
X159449511Y-102948803D01*
X160363181Y-103862473D01*
X160396666Y-103923796D01*
X160399500Y-103950154D01*
X160399500Y-109795234D01*
X160379815Y-109862273D01*
X160378602Y-109864125D01*
X160290609Y-109995814D01*
X160290602Y-109995827D01*
X160230264Y-110141498D01*
X160230261Y-110141510D01*
X160199500Y-110296153D01*
X160199500Y-110453846D01*
X160230261Y-110608489D01*
X160230264Y-110608501D01*
X160290602Y-110754172D01*
X160290609Y-110754185D01*
X160378210Y-110885288D01*
X160378213Y-110885292D01*
X160489707Y-110996786D01*
X160489711Y-110996789D01*
X160620814Y-111084390D01*
X160620827Y-111084397D01*
X160766498Y-111144735D01*
X160766503Y-111144737D01*
X160921153Y-111175499D01*
X160921156Y-111175500D01*
X160921158Y-111175500D01*
X161078844Y-111175500D01*
X161078845Y-111175499D01*
X161233497Y-111144737D01*
X161379179Y-111084394D01*
X161510289Y-110996789D01*
X161621789Y-110885289D01*
X161709394Y-110754179D01*
X161769737Y-110608497D01*
X161800500Y-110453842D01*
X161800500Y-110296158D01*
X161800500Y-110296155D01*
X161800499Y-110296153D01*
X161769738Y-110141510D01*
X161769737Y-110141503D01*
X161769735Y-110141498D01*
X161709397Y-109995827D01*
X161709390Y-109995814D01*
X161621398Y-109864125D01*
X161600520Y-109797447D01*
X161600500Y-109795234D01*
X161600500Y-105774098D01*
X161606737Y-105752855D01*
X161608317Y-105730767D01*
X161616390Y-105719981D01*
X161620185Y-105707059D01*
X161636916Y-105692560D01*
X161650188Y-105674832D01*
X161662810Y-105670123D01*
X161672989Y-105661304D01*
X161694904Y-105658152D01*
X161715652Y-105650414D01*
X161728814Y-105653277D01*
X161742147Y-105651360D01*
X161762289Y-105660558D01*
X161783925Y-105665265D01*
X161801651Y-105678534D01*
X161805703Y-105680385D01*
X161812165Y-105686401D01*
X161831284Y-105705520D01*
X161831286Y-105705521D01*
X161838355Y-105712590D01*
X164315425Y-108189660D01*
X164348910Y-108250983D01*
X164349361Y-108253149D01*
X164380261Y-108408491D01*
X164380264Y-108408501D01*
X164440602Y-108554172D01*
X164440609Y-108554185D01*
X164528210Y-108685288D01*
X164528213Y-108685292D01*
X164639707Y-108796786D01*
X164639711Y-108796789D01*
X164770814Y-108884390D01*
X164770827Y-108884397D01*
X164916498Y-108944735D01*
X164916503Y-108944737D01*
X165071153Y-108975499D01*
X165071156Y-108975500D01*
X165071158Y-108975500D01*
X165228844Y-108975500D01*
X165228845Y-108975499D01*
X165383497Y-108944737D01*
X165529179Y-108884394D01*
X165660289Y-108796789D01*
X165771789Y-108685289D01*
X165859394Y-108554179D01*
X165919737Y-108408497D01*
X165950500Y-108253842D01*
X165950500Y-108096158D01*
X165950500Y-108096155D01*
X165950499Y-108096153D01*
X165932928Y-108007817D01*
X165919737Y-107941503D01*
X165893782Y-107878842D01*
X165859397Y-107795827D01*
X165859390Y-107795814D01*
X165771789Y-107664711D01*
X165771786Y-107664707D01*
X165660292Y-107553213D01*
X165660288Y-107553210D01*
X165529185Y-107465609D01*
X165529172Y-107465602D01*
X165383501Y-107405264D01*
X165383491Y-107405261D01*
X165228149Y-107374361D01*
X165166238Y-107341976D01*
X165164660Y-107340425D01*
X162836819Y-105012584D01*
X162803334Y-104951261D01*
X162800500Y-104924903D01*
X162800500Y-97145943D01*
X162800499Y-97145940D01*
X162799409Y-97141872D01*
X162799406Y-97141862D01*
X162793858Y-97121158D01*
X162788055Y-97099499D01*
X162759577Y-96993216D01*
X162751469Y-96979173D01*
X162680524Y-96856290D01*
X162680521Y-96856286D01*
X162680520Y-96856284D01*
X162568716Y-96744480D01*
X162568715Y-96744479D01*
X162564385Y-96740149D01*
X162564374Y-96740139D01*
X161309574Y-95485339D01*
X161276089Y-95424016D01*
X161275638Y-95421849D01*
X161244738Y-95266510D01*
X161244737Y-95266503D01*
X161225812Y-95220814D01*
X161184397Y-95120827D01*
X161184390Y-95120814D01*
X161096789Y-94989711D01*
X161096786Y-94989707D01*
X160985292Y-94878213D01*
X160985288Y-94878210D01*
X160854185Y-94790609D01*
X160854172Y-94790602D01*
X160708501Y-94730264D01*
X160708489Y-94730261D01*
X160553845Y-94699500D01*
X160553842Y-94699500D01*
X160396158Y-94699500D01*
X160396155Y-94699500D01*
X160241510Y-94730261D01*
X160241498Y-94730264D01*
X160095827Y-94790602D01*
X160095814Y-94790609D01*
X159964711Y-94878210D01*
X159964707Y-94878213D01*
X159853213Y-94989707D01*
X159853210Y-94989711D01*
X159765609Y-95120814D01*
X159765602Y-95120827D01*
X159705264Y-95266498D01*
X159705261Y-95266510D01*
X159674500Y-95421153D01*
X159674500Y-95578846D01*
X159705261Y-95733489D01*
X159705264Y-95733501D01*
X159765602Y-95879172D01*
X159765609Y-95879185D01*
X159853210Y-96010288D01*
X159853213Y-96010292D01*
X159964707Y-96121786D01*
X159964711Y-96121789D01*
X160095814Y-96209390D01*
X160095827Y-96209397D01*
X160241498Y-96269735D01*
X160241503Y-96269737D01*
X160306147Y-96282595D01*
X160396849Y-96300638D01*
X160458760Y-96333023D01*
X160460339Y-96334574D01*
X161563181Y-97437416D01*
X161596666Y-97498739D01*
X161599500Y-97525097D01*
X161599500Y-103100958D01*
X161593262Y-103122200D01*
X161591684Y-103144287D01*
X161583609Y-103155073D01*
X161579815Y-103167997D01*
X161563085Y-103182493D01*
X161549815Y-103200222D01*
X161537190Y-103204931D01*
X161527011Y-103213752D01*
X161505097Y-103216902D01*
X161484351Y-103224642D01*
X161471186Y-103221778D01*
X161457853Y-103223696D01*
X161437713Y-103214498D01*
X161416078Y-103209793D01*
X161398348Y-103196521D01*
X161394297Y-103194671D01*
X161387822Y-103188643D01*
X161368716Y-103169537D01*
X161368713Y-103169535D01*
X159537533Y-101338355D01*
X159537531Y-101338352D01*
X159418660Y-101219481D01*
X159418659Y-101219480D01*
X159331847Y-101169360D01*
X159331847Y-101169359D01*
X159331843Y-101169358D01*
X159281728Y-101140423D01*
X159129000Y-101099499D01*
X158970886Y-101099499D01*
X158963290Y-101099499D01*
X158963274Y-101099500D01*
X156979766Y-101099500D01*
X156912727Y-101079815D01*
X156910875Y-101078602D01*
X156779185Y-100990609D01*
X156779172Y-100990602D01*
X156633501Y-100930264D01*
X156633489Y-100930261D01*
X156478845Y-100899500D01*
X156478842Y-100899500D01*
X156321158Y-100899500D01*
X156321155Y-100899500D01*
X156166510Y-100930261D01*
X156166498Y-100930264D01*
X156020827Y-100990602D01*
X156020814Y-100990609D01*
X155889711Y-101078210D01*
X155889707Y-101078213D01*
X155778213Y-101189707D01*
X155778210Y-101189711D01*
X155690609Y-101320814D01*
X155690602Y-101320827D01*
X155630264Y-101466498D01*
X155630261Y-101466508D01*
X155603769Y-101599692D01*
X155571384Y-101661603D01*
X155510668Y-101696177D01*
X155482152Y-101699500D01*
X154200098Y-101699500D01*
X154133059Y-101679815D01*
X154112417Y-101663181D01*
X151659573Y-99210337D01*
X151626088Y-99149014D01*
X151625637Y-99146847D01*
X151610778Y-99072147D01*
X151594737Y-98991503D01*
X151573832Y-98941034D01*
X151534397Y-98845827D01*
X151534390Y-98845814D01*
X151446789Y-98714711D01*
X151446786Y-98714707D01*
X151335292Y-98603213D01*
X151335288Y-98603210D01*
X151204185Y-98515609D01*
X151204172Y-98515602D01*
X151058501Y-98455264D01*
X151058489Y-98455261D01*
X150903845Y-98424500D01*
X150903842Y-98424500D01*
X150746158Y-98424500D01*
X150746155Y-98424500D01*
X150591510Y-98455261D01*
X150591498Y-98455264D01*
X150445827Y-98515602D01*
X150445814Y-98515609D01*
X150314711Y-98603210D01*
X150314707Y-98603213D01*
X150203213Y-98714707D01*
X150203210Y-98714711D01*
X150115609Y-98845814D01*
X150115602Y-98845827D01*
X150055264Y-98991498D01*
X150055261Y-98991510D01*
X150024500Y-99146153D01*
X140950500Y-99146153D01*
X140950500Y-96150097D01*
X140970185Y-96083058D01*
X140986819Y-96062416D01*
X141782737Y-95266498D01*
X142664662Y-94384572D01*
X142725983Y-94351089D01*
X142728150Y-94350638D01*
X142786085Y-94339113D01*
X142883497Y-94319737D01*
X143029179Y-94259394D01*
X143160289Y-94171789D01*
X143271789Y-94060289D01*
X143359394Y-93929179D01*
X143419737Y-93783497D01*
X143450500Y-93628842D01*
X143450500Y-93471158D01*
X143450500Y-93471155D01*
X143450499Y-93471153D01*
X143420078Y-93318218D01*
X143419737Y-93316503D01*
X143412555Y-93299166D01*
X143405087Y-93229697D01*
X143436362Y-93167218D01*
X143496451Y-93131566D01*
X143566276Y-93134060D01*
X143614798Y-93164033D01*
X147915425Y-97464660D01*
X147948910Y-97525983D01*
X147949361Y-97528149D01*
X147980261Y-97683491D01*
X147980264Y-97683501D01*
X148040602Y-97829172D01*
X148040609Y-97829185D01*
X148128210Y-97960288D01*
X148128213Y-97960292D01*
X148239707Y-98071786D01*
X148239711Y-98071789D01*
X148370814Y-98159390D01*
X148370827Y-98159397D01*
X148516498Y-98219735D01*
X148516503Y-98219737D01*
X148671153Y-98250499D01*
X148671156Y-98250500D01*
X148671158Y-98250500D01*
X148828844Y-98250500D01*
X148828845Y-98250499D01*
X148983497Y-98219737D01*
X149129179Y-98159394D01*
X149260289Y-98071789D01*
X149371789Y-97960289D01*
X149459394Y-97829179D01*
X149519737Y-97683497D01*
X149550500Y-97528842D01*
X149550500Y-97371158D01*
X149550500Y-97371155D01*
X149550499Y-97371153D01*
X149519738Y-97216510D01*
X149519737Y-97216503D01*
X149512686Y-97199480D01*
X149480459Y-97121675D01*
X149472990Y-97052206D01*
X149491917Y-97005334D01*
X149509394Y-96979179D01*
X149569737Y-96833497D01*
X149600500Y-96678842D01*
X149600500Y-96521158D01*
X149600500Y-96521155D01*
X149600499Y-96521153D01*
X149586692Y-96451740D01*
X149569737Y-96366503D01*
X149529655Y-96269735D01*
X149509396Y-96220825D01*
X149509394Y-96220822D01*
X149509394Y-96220821D01*
X149474694Y-96168889D01*
X149453816Y-96102215D01*
X149472300Y-96034835D01*
X149474676Y-96031136D01*
X149509394Y-95979179D01*
X149569737Y-95833497D01*
X149600500Y-95678842D01*
X149600500Y-95521158D01*
X149600500Y-95521155D01*
X149600499Y-95521153D01*
X149569737Y-95366503D01*
X149528314Y-95266498D01*
X149509397Y-95220827D01*
X149509390Y-95220814D01*
X149421789Y-95089711D01*
X149421786Y-95089707D01*
X149310292Y-94978213D01*
X149310288Y-94978210D01*
X149179185Y-94890609D01*
X149179172Y-94890602D01*
X149033501Y-94830264D01*
X149033491Y-94830261D01*
X148878149Y-94799361D01*
X148816238Y-94766976D01*
X148814660Y-94765425D01*
X138936819Y-84887584D01*
X138903334Y-84826261D01*
X138900500Y-84799903D01*
X138900500Y-82600217D01*
X138920185Y-82533178D01*
X138972989Y-82487423D01*
X139042147Y-82477479D01*
X139075860Y-82492875D01*
G37*
%TD.AperFunction*%
%TA.AperFunction,Conductor*%
G36*
X124443039Y-31520185D02*
G01*
X124488794Y-31572989D01*
X124500000Y-31624500D01*
X124500000Y-33429982D01*
X124480315Y-33497021D01*
X124427511Y-33542776D01*
X124358353Y-33552720D01*
X124332668Y-33546164D01*
X124223382Y-33505403D01*
X124223372Y-33505401D01*
X124163844Y-33499000D01*
X123516000Y-33499000D01*
X123516000Y-34415988D01*
X123458993Y-34383075D01*
X123331826Y-34349000D01*
X123200174Y-34349000D01*
X123073007Y-34383075D01*
X123016000Y-34415988D01*
X123016000Y-33499000D01*
X122368155Y-33499000D01*
X122308627Y-33505401D01*
X122308620Y-33505403D01*
X122173913Y-33555645D01*
X122173906Y-33555649D01*
X122058812Y-33641809D01*
X122058809Y-33641812D01*
X121972649Y-33756906D01*
X121972645Y-33756913D01*
X121922403Y-33891620D01*
X121922401Y-33891627D01*
X121916000Y-33951155D01*
X121916000Y-34599000D01*
X122832988Y-34599000D01*
X122800075Y-34656007D01*
X122766000Y-34783174D01*
X122766000Y-34914826D01*
X122800075Y-35041993D01*
X122832988Y-35099000D01*
X121916000Y-35099000D01*
X121916000Y-35746844D01*
X121922401Y-35806372D01*
X121922403Y-35806379D01*
X121972645Y-35941086D01*
X121972649Y-35941093D01*
X122058809Y-36056187D01*
X122058812Y-36056190D01*
X122173906Y-36142350D01*
X122173913Y-36142354D01*
X122308620Y-36192596D01*
X122308627Y-36192598D01*
X122368155Y-36198999D01*
X122368172Y-36199000D01*
X123016000Y-36199000D01*
X123016000Y-35282012D01*
X123073007Y-35314925D01*
X123200174Y-35349000D01*
X123331826Y-35349000D01*
X123458993Y-35314925D01*
X123516000Y-35282012D01*
X123516000Y-36199000D01*
X124163828Y-36199000D01*
X124163844Y-36198999D01*
X124223372Y-36192598D01*
X124223379Y-36192596D01*
X124332667Y-36151835D01*
X124402358Y-36146851D01*
X124463681Y-36180336D01*
X124497166Y-36241659D01*
X124500000Y-36268017D01*
X124500000Y-37376000D01*
X124480315Y-37443039D01*
X124427511Y-37488794D01*
X124376000Y-37500000D01*
X122500000Y-37500000D01*
X122500000Y-75100000D01*
X131847640Y-75100000D01*
X131914679Y-75119685D01*
X131936514Y-75137528D01*
X136863374Y-80201245D01*
X136896016Y-80263021D01*
X136898500Y-80287717D01*
X136898500Y-86112330D01*
X136898499Y-86112348D01*
X136898499Y-86278054D01*
X136898498Y-86278054D01*
X136939423Y-86430785D01*
X136968358Y-86480900D01*
X136968359Y-86480904D01*
X136968360Y-86480904D01*
X137018479Y-86567714D01*
X137018481Y-86567717D01*
X137137349Y-86686585D01*
X137137355Y-86686590D01*
X143035966Y-92585201D01*
X143069451Y-92646524D01*
X143064467Y-92716216D01*
X143022595Y-92772149D01*
X142957131Y-92796566D01*
X142900835Y-92787444D01*
X142883501Y-92780264D01*
X142883489Y-92780261D01*
X142728845Y-92749500D01*
X142728842Y-92749500D01*
X142571158Y-92749500D01*
X142571155Y-92749500D01*
X142416510Y-92780261D01*
X142416498Y-92780264D01*
X142270827Y-92840602D01*
X142270814Y-92840609D01*
X142139711Y-92928210D01*
X142139707Y-92928213D01*
X142028213Y-93039707D01*
X142028210Y-93039711D01*
X141940609Y-93170814D01*
X141940602Y-93170827D01*
X141880264Y-93316498D01*
X141880261Y-93316508D01*
X141849361Y-93471850D01*
X141816976Y-93533761D01*
X141815425Y-93535339D01*
X139869481Y-95481282D01*
X139869479Y-95481285D01*
X139819361Y-95568094D01*
X139819359Y-95568096D01*
X139790425Y-95618209D01*
X139790424Y-95618210D01*
X139790423Y-95618215D01*
X139749499Y-95770943D01*
X139749499Y-95770945D01*
X139749499Y-95939046D01*
X139749500Y-95939059D01*
X139749500Y-107220234D01*
X139729815Y-107287273D01*
X139728602Y-107289125D01*
X139640609Y-107420814D01*
X139640602Y-107420827D01*
X139580264Y-107566498D01*
X139580261Y-107566510D01*
X139549500Y-107721153D01*
X139549500Y-107878846D01*
X139580261Y-108033489D01*
X139580264Y-108033501D01*
X139640602Y-108179172D01*
X139640609Y-108179185D01*
X139728210Y-108310288D01*
X139728213Y-108310292D01*
X139839707Y-108421786D01*
X139839711Y-108421789D01*
X139970814Y-108509390D01*
X139970827Y-108509397D01*
X140080247Y-108554720D01*
X140134651Y-108598561D01*
X140156716Y-108664855D01*
X140139437Y-108732554D01*
X140120476Y-108756962D01*
X137806976Y-111070461D01*
X137745653Y-111103946D01*
X137675961Y-111098962D01*
X137620028Y-111057090D01*
X137597678Y-111006971D01*
X137573474Y-110885292D01*
X137569737Y-110866503D01*
X137523214Y-110754185D01*
X137509397Y-110720827D01*
X137509390Y-110720814D01*
X137421789Y-110589711D01*
X137421786Y-110589707D01*
X137310292Y-110478213D01*
X137310288Y-110478210D01*
X137179185Y-110390609D01*
X137179172Y-110390602D01*
X137033501Y-110330264D01*
X137033489Y-110330261D01*
X137000309Y-110323661D01*
X136938398Y-110291276D01*
X136903824Y-110230561D01*
X136900500Y-110202044D01*
X136900500Y-105800097D01*
X136920185Y-105733058D01*
X136936819Y-105712416D01*
X137144680Y-105504555D01*
X137414662Y-105234572D01*
X137475983Y-105201089D01*
X137478150Y-105200638D01*
X137536085Y-105189113D01*
X137633497Y-105169737D01*
X137779179Y-105109394D01*
X137910289Y-105021789D01*
X138021789Y-104910289D01*
X138109394Y-104779179D01*
X138110614Y-104776235D01*
X138169735Y-104633501D01*
X138169737Y-104633497D01*
X138200500Y-104478842D01*
X138200500Y-104321158D01*
X138200500Y-104321155D01*
X138200499Y-104321153D01*
X138178235Y-104209224D01*
X138169737Y-104166503D01*
X138158482Y-104139330D01*
X138109397Y-104020827D01*
X138109390Y-104020814D01*
X138021789Y-103889711D01*
X138021786Y-103889707D01*
X137910292Y-103778213D01*
X137910288Y-103778210D01*
X137779185Y-103690609D01*
X137779172Y-103690602D01*
X137633501Y-103630264D01*
X137633489Y-103630261D01*
X137478845Y-103599500D01*
X137478842Y-103599500D01*
X137321158Y-103599500D01*
X137321155Y-103599500D01*
X137166510Y-103630261D01*
X137166498Y-103630264D01*
X137020827Y-103690602D01*
X137020814Y-103690609D01*
X136889711Y-103778210D01*
X136889707Y-103778213D01*
X136778213Y-103889707D01*
X136778210Y-103889711D01*
X136690609Y-104020814D01*
X136690602Y-104020827D01*
X136630264Y-104166498D01*
X136630261Y-104166508D01*
X136599361Y-104321850D01*
X136566976Y-104383761D01*
X136565425Y-104385339D01*
X135819481Y-105131282D01*
X135819479Y-105131285D01*
X135774385Y-105209392D01*
X135774384Y-105209393D01*
X135740423Y-105268214D01*
X135740423Y-105268215D01*
X135699499Y-105420943D01*
X135699499Y-105420945D01*
X135699499Y-105589046D01*
X135699500Y-105589059D01*
X135699500Y-105718750D01*
X135679815Y-105785789D01*
X135627011Y-105831544D01*
X135599692Y-105840367D01*
X135466508Y-105866859D01*
X135466498Y-105866862D01*
X135320827Y-105927200D01*
X135320814Y-105927207D01*
X135189711Y-106014808D01*
X135189707Y-106014811D01*
X135078213Y-106126305D01*
X135078210Y-106126309D01*
X134990609Y-106257412D01*
X134990602Y-106257425D01*
X134930264Y-106403096D01*
X134930261Y-106403108D01*
X134899500Y-106557751D01*
X134899500Y-106557756D01*
X134899500Y-106696674D01*
X134899499Y-106696678D01*
X134899499Y-106854792D01*
X134899500Y-106854795D01*
X134899500Y-111013330D01*
X134899499Y-111013348D01*
X134899499Y-111179054D01*
X134899498Y-111179054D01*
X134940424Y-111331789D01*
X134940425Y-111331790D01*
X134961455Y-111368214D01*
X134961456Y-111368216D01*
X135019475Y-111468709D01*
X135019481Y-111468717D01*
X135138349Y-111587585D01*
X135138355Y-111587590D01*
X135265425Y-111714660D01*
X135298910Y-111775983D01*
X135299361Y-111778149D01*
X135330261Y-111933491D01*
X135330263Y-111933497D01*
X135369427Y-112028047D01*
X135376896Y-112097517D01*
X135345621Y-112159996D01*
X135285532Y-112195648D01*
X135254866Y-112199500D01*
X127095548Y-112199500D01*
X127028509Y-112179815D01*
X126982754Y-112127011D01*
X126980987Y-112122952D01*
X126959394Y-112070821D01*
X126959392Y-112070819D01*
X126959392Y-112070817D01*
X126871789Y-111939711D01*
X126871786Y-111939707D01*
X126760292Y-111828213D01*
X126760288Y-111828210D01*
X126629185Y-111740609D01*
X126629172Y-111740602D01*
X126483501Y-111680264D01*
X126483491Y-111680261D01*
X126328151Y-111649362D01*
X126266241Y-111616977D01*
X126264662Y-111615426D01*
X126036819Y-111387583D01*
X126003334Y-111326260D01*
X126000500Y-111299902D01*
X126000500Y-103100944D01*
X126000500Y-103100943D01*
X126000381Y-103100500D01*
X125986731Y-103049557D01*
X125959577Y-102948216D01*
X125944094Y-102921398D01*
X125880524Y-102811290D01*
X125880521Y-102811286D01*
X125880520Y-102811284D01*
X125768716Y-102699480D01*
X125768715Y-102699479D01*
X125764385Y-102695149D01*
X125764374Y-102695139D01*
X123233757Y-100164522D01*
X123200272Y-100103199D01*
X123203507Y-100038523D01*
X123217246Y-99996243D01*
X123250500Y-99786287D01*
X123250500Y-99573713D01*
X123217246Y-99363757D01*
X123151557Y-99161588D01*
X123055051Y-98972184D01*
X123055049Y-98972181D01*
X123055048Y-98972179D01*
X122930109Y-98800213D01*
X122779790Y-98649894D01*
X122779785Y-98649890D01*
X122701418Y-98592953D01*
X122658752Y-98537623D01*
X122652773Y-98468010D01*
X122685379Y-98406215D01*
X122742207Y-98372861D01*
X122791785Y-98359577D01*
X122928716Y-98280519D01*
X123040519Y-98168716D01*
X123119577Y-98031785D01*
X123160501Y-97879057D01*
X123160501Y-97720943D01*
X123156783Y-97707068D01*
X123157213Y-97688954D01*
X123152608Y-97671432D01*
X123158430Y-97637784D01*
X123158444Y-97637221D01*
X123158626Y-97636655D01*
X123163663Y-97621153D01*
X126499500Y-97621153D01*
X126499500Y-97778846D01*
X126530261Y-97933489D01*
X126530264Y-97933501D01*
X126590602Y-98079172D01*
X126590609Y-98079185D01*
X126678210Y-98210288D01*
X126678213Y-98210292D01*
X126789707Y-98321786D01*
X126789711Y-98321789D01*
X126920814Y-98409390D01*
X126920827Y-98409397D01*
X127066498Y-98469735D01*
X127066503Y-98469737D01*
X127221153Y-98500499D01*
X127221156Y-98500500D01*
X127221158Y-98500500D01*
X127237355Y-98500500D01*
X127304394Y-98520185D01*
X127350149Y-98572989D01*
X127361355Y-98624500D01*
X127361355Y-98640701D01*
X127392116Y-98795344D01*
X127392119Y-98795356D01*
X127452457Y-98941027D01*
X127452464Y-98941040D01*
X127540065Y-99072143D01*
X127540068Y-99072147D01*
X127651562Y-99183641D01*
X127651566Y-99183644D01*
X127782669Y-99271245D01*
X127782682Y-99271252D01*
X127928353Y-99331590D01*
X127928358Y-99331592D01*
X128080012Y-99361758D01*
X128083008Y-99362354D01*
X128083011Y-99362355D01*
X128083013Y-99362355D01*
X128240699Y-99362355D01*
X128246762Y-99361758D01*
X128247007Y-99364251D01*
X128305666Y-99369488D01*
X128347971Y-99397206D01*
X130987446Y-102036681D01*
X131020931Y-102098004D01*
X131023765Y-102124362D01*
X131023765Y-103395969D01*
X131004080Y-103463008D01*
X131002867Y-103464860D01*
X130914874Y-103596549D01*
X130914867Y-103596562D01*
X130854529Y-103742233D01*
X130854526Y-103742245D01*
X130823765Y-103896888D01*
X130823765Y-104054581D01*
X130854526Y-104209224D01*
X130854529Y-104209236D01*
X130914867Y-104354907D01*
X130914874Y-104354920D01*
X131002475Y-104486023D01*
X131002478Y-104486027D01*
X131113972Y-104597521D01*
X131113976Y-104597524D01*
X131245079Y-104685125D01*
X131245092Y-104685132D01*
X131361867Y-104733501D01*
X131390768Y-104745472D01*
X131545418Y-104776234D01*
X131545421Y-104776235D01*
X131545423Y-104776235D01*
X131703109Y-104776235D01*
X131703110Y-104776234D01*
X131857762Y-104745472D01*
X131972730Y-104697851D01*
X132003437Y-104685132D01*
X132003437Y-104685131D01*
X132003444Y-104685129D01*
X132134554Y-104597524D01*
X132246054Y-104486024D01*
X132333659Y-104354914D01*
X132335171Y-104351265D01*
X132394000Y-104209236D01*
X132394002Y-104209232D01*
X132424765Y-104054577D01*
X132424765Y-103896893D01*
X132424765Y-103896890D01*
X132424764Y-103896888D01*
X132417918Y-103862473D01*
X132394002Y-103742238D01*
X132388887Y-103729890D01*
X132333662Y-103596562D01*
X132333655Y-103596549D01*
X132245663Y-103464860D01*
X132224785Y-103398182D01*
X132224765Y-103395969D01*
X132224765Y-101745211D01*
X132224765Y-101745208D01*
X132223233Y-101739492D01*
X132223233Y-101739480D01*
X132223230Y-101739481D01*
X132206813Y-101678211D01*
X132183842Y-101592481D01*
X132174784Y-101576792D01*
X132104789Y-101455555D01*
X132104786Y-101455551D01*
X132104785Y-101455549D01*
X131992981Y-101343745D01*
X131992980Y-101343744D01*
X131988650Y-101339414D01*
X131988639Y-101339404D01*
X129261416Y-98612181D01*
X129227931Y-98550858D01*
X129232915Y-98481166D01*
X129274787Y-98425233D01*
X129340251Y-98400816D01*
X129349097Y-98400500D01*
X137920234Y-98400500D01*
X137987273Y-98420185D01*
X137989125Y-98421398D01*
X138120814Y-98509390D01*
X138120827Y-98509397D01*
X138266498Y-98569735D01*
X138266503Y-98569737D01*
X138383217Y-98592953D01*
X138421153Y-98600499D01*
X138421156Y-98600500D01*
X138421158Y-98600500D01*
X138578844Y-98600500D01*
X138578845Y-98600499D01*
X138733497Y-98569737D01*
X138864182Y-98515606D01*
X138879172Y-98509397D01*
X138879172Y-98509396D01*
X138879179Y-98509394D01*
X139010289Y-98421789D01*
X139121789Y-98310289D01*
X139209394Y-98179179D01*
X139269737Y-98033497D01*
X139300500Y-97878842D01*
X139300500Y-97721158D01*
X139300500Y-97721155D01*
X139300499Y-97721153D01*
X139294094Y-97688954D01*
X139269737Y-97566503D01*
X139254138Y-97528844D01*
X139209397Y-97420827D01*
X139209390Y-97420814D01*
X139121789Y-97289711D01*
X139121786Y-97289707D01*
X139010292Y-97178213D01*
X139010288Y-97178210D01*
X138879185Y-97090609D01*
X138879172Y-97090602D01*
X138733501Y-97030264D01*
X138733489Y-97030261D01*
X138578845Y-96999500D01*
X138578842Y-96999500D01*
X138421158Y-96999500D01*
X138421155Y-96999500D01*
X138266510Y-97030261D01*
X138266498Y-97030264D01*
X138120827Y-97090602D01*
X138120814Y-97090609D01*
X137989125Y-97178602D01*
X137922447Y-97199480D01*
X137920234Y-97199500D01*
X127982940Y-97199500D01*
X127915901Y-97179815D01*
X127895263Y-97163185D01*
X127810289Y-97078211D01*
X127810288Y-97078210D01*
X127810287Y-97078209D01*
X127679185Y-96990609D01*
X127679172Y-96990602D01*
X127533501Y-96930264D01*
X127533489Y-96930261D01*
X127378845Y-96899500D01*
X127378842Y-96899500D01*
X127221158Y-96899500D01*
X127221155Y-96899500D01*
X127066510Y-96930261D01*
X127066498Y-96930264D01*
X126920827Y-96990602D01*
X126920814Y-96990609D01*
X126789711Y-97078210D01*
X126789707Y-97078213D01*
X126678213Y-97189707D01*
X126678210Y-97189711D01*
X126590609Y-97320814D01*
X126590602Y-97320827D01*
X126530264Y-97466498D01*
X126530261Y-97466510D01*
X126499500Y-97621153D01*
X123163663Y-97621153D01*
X123217246Y-97456243D01*
X123250500Y-97246287D01*
X123250500Y-97033713D01*
X123217246Y-96823757D01*
X123151557Y-96621588D01*
X123055051Y-96432184D01*
X123055049Y-96432181D01*
X123055048Y-96432179D01*
X122930109Y-96260213D01*
X122816181Y-96146285D01*
X122782696Y-96084962D01*
X122787680Y-96015270D01*
X122829552Y-95959337D01*
X122860529Y-95942422D01*
X122992086Y-95893354D01*
X122992093Y-95893350D01*
X123107187Y-95807190D01*
X123107190Y-95807187D01*
X123193350Y-95692093D01*
X123193354Y-95692086D01*
X123243596Y-95557379D01*
X123243598Y-95557372D01*
X123249999Y-95497844D01*
X123250000Y-95497827D01*
X123250000Y-94850000D01*
X122333012Y-94850000D01*
X122365925Y-94792993D01*
X122400000Y-94665826D01*
X122400000Y-94534174D01*
X122365925Y-94407007D01*
X122333012Y-94350000D01*
X123250000Y-94350000D01*
X123250000Y-93702172D01*
X123249999Y-93702155D01*
X123243598Y-93642627D01*
X123243596Y-93642620D01*
X123193354Y-93507913D01*
X123193350Y-93507906D01*
X123107190Y-93392812D01*
X123107187Y-93392809D01*
X122992093Y-93306649D01*
X122992086Y-93306645D01*
X122857379Y-93256403D01*
X122857372Y-93256401D01*
X122797844Y-93250000D01*
X122150000Y-93250000D01*
X122150000Y-94166988D01*
X122092993Y-94134075D01*
X121965826Y-94100000D01*
X121834174Y-94100000D01*
X121707007Y-94134075D01*
X121650000Y-94166988D01*
X121650000Y-93250000D01*
X121002155Y-93250000D01*
X120942627Y-93256401D01*
X120942620Y-93256403D01*
X120807913Y-93306645D01*
X120807906Y-93306649D01*
X120698811Y-93388319D01*
X120633347Y-93412737D01*
X120565074Y-93397886D01*
X120515668Y-93348481D01*
X120500500Y-93289053D01*
X120500500Y-31624500D01*
X120520185Y-31557461D01*
X120572989Y-31511706D01*
X120624500Y-31500500D01*
X124376000Y-31500500D01*
X124443039Y-31520185D01*
G37*
%TD.AperFunction*%
%TD*%
%TA.AperFunction,Conductor*%
%TO.N,/BQ76952 1/C11Jc*%
G36*
X166594039Y-65868685D02*
G01*
X166639794Y-65921489D01*
X166651000Y-65973000D01*
X166651000Y-71325000D01*
X166631315Y-71392039D01*
X166578511Y-71437794D01*
X166527000Y-71449000D01*
X162675000Y-71449000D01*
X162607961Y-71429315D01*
X162562206Y-71376511D01*
X162551000Y-71325000D01*
X162551000Y-68149000D01*
X155475000Y-68149000D01*
X155407961Y-68129315D01*
X155362206Y-68076511D01*
X155351000Y-68025000D01*
X155351000Y-65973000D01*
X155370685Y-65905961D01*
X155423489Y-65860206D01*
X155475000Y-65849000D01*
X166527000Y-65849000D01*
X166594039Y-65868685D01*
G37*
%TD.AperFunction*%
%TD*%
%TA.AperFunction,Conductor*%
%TO.N,/BQ76952 1/C8Jc*%
G36*
X150394039Y-47568685D02*
G01*
X150439794Y-47621489D01*
X150451000Y-47673000D01*
X150451000Y-53025000D01*
X150431315Y-53092039D01*
X150378511Y-53137794D01*
X150327000Y-53149000D01*
X146475000Y-53149000D01*
X146407961Y-53129315D01*
X146362206Y-53076511D01*
X146351000Y-53025000D01*
X146351000Y-49849000D01*
X139275000Y-49849000D01*
X139207961Y-49829315D01*
X139162206Y-49776511D01*
X139151000Y-49725000D01*
X139151000Y-47673000D01*
X139170685Y-47605961D01*
X139223489Y-47560206D01*
X139275000Y-47549000D01*
X150327000Y-47549000D01*
X150394039Y-47568685D01*
G37*
%TD.AperFunction*%
%TD*%
%TA.AperFunction,Conductor*%
%TO.N,/BQ76952 1/C3Jc*%
G36*
X134323043Y-47668685D02*
G01*
X134368798Y-47721489D01*
X134380004Y-47773000D01*
X134380004Y-53125000D01*
X134360319Y-53192039D01*
X134307515Y-53237794D01*
X134256004Y-53249000D01*
X130404004Y-53249000D01*
X130336965Y-53229315D01*
X130291210Y-53176511D01*
X130280004Y-53125000D01*
X130280004Y-49949000D01*
X123204004Y-49949000D01*
X123136965Y-49929315D01*
X123091210Y-49876511D01*
X123080004Y-49825000D01*
X123080004Y-47773000D01*
X123099689Y-47705961D01*
X123152493Y-47660206D01*
X123204004Y-47649000D01*
X134256004Y-47649000D01*
X134323043Y-47668685D01*
G37*
%TD.AperFunction*%
%TD*%
%TA.AperFunction,Conductor*%
%TO.N,/BQ76952 1/C5Jc*%
G36*
X150394039Y-74868685D02*
G01*
X150439794Y-74921489D01*
X150451000Y-74973000D01*
X150451000Y-80325000D01*
X150431315Y-80392039D01*
X150378511Y-80437794D01*
X150327000Y-80449000D01*
X146475000Y-80449000D01*
X146407961Y-80429315D01*
X146362206Y-80376511D01*
X146351000Y-80325000D01*
X146351000Y-77149000D01*
X139275000Y-77149000D01*
X139207961Y-77129315D01*
X139162206Y-77076511D01*
X139151000Y-77025000D01*
X139151000Y-74973000D01*
X139170685Y-74905961D01*
X139223489Y-74860206D01*
X139275000Y-74849000D01*
X150327000Y-74849000D01*
X150394039Y-74868685D01*
G37*
%TD.AperFunction*%
%TD*%
%TA.AperFunction,Conductor*%
%TO.N,/BQ76952 1/C14Jc*%
G36*
X166594039Y-38868685D02*
G01*
X166639794Y-38921489D01*
X166651000Y-38973000D01*
X166651000Y-44325000D01*
X166631315Y-44392039D01*
X166578511Y-44437794D01*
X166527000Y-44449000D01*
X162675000Y-44449000D01*
X162607961Y-44429315D01*
X162562206Y-44376511D01*
X162551000Y-44325000D01*
X162551000Y-41149000D01*
X155475000Y-41149000D01*
X155407961Y-41129315D01*
X155362206Y-41076511D01*
X155351000Y-41025000D01*
X155351000Y-38973000D01*
X155370685Y-38905961D01*
X155423489Y-38860206D01*
X155475000Y-38849000D01*
X166527000Y-38849000D01*
X166594039Y-38868685D01*
G37*
%TD.AperFunction*%
%TD*%
%TA.AperFunction,Conductor*%
%TO.N,/BQ76952 1/C2Jc*%
G36*
X134323043Y-56668685D02*
G01*
X134368798Y-56721489D01*
X134380004Y-56773000D01*
X134380004Y-62125000D01*
X134360319Y-62192039D01*
X134307515Y-62237794D01*
X134256004Y-62249000D01*
X130404004Y-62249000D01*
X130336965Y-62229315D01*
X130291210Y-62176511D01*
X130280004Y-62125000D01*
X130280004Y-58949000D01*
X123204004Y-58949000D01*
X123136965Y-58929315D01*
X123091210Y-58876511D01*
X123080004Y-58825000D01*
X123080004Y-56773000D01*
X123099689Y-56705961D01*
X123152493Y-56660206D01*
X123204004Y-56649000D01*
X134256004Y-56649000D01*
X134323043Y-56668685D01*
G37*
%TD.AperFunction*%
%TD*%
%TA.AperFunction,Conductor*%
%TO.N,/BQ76952 1/C7Jc*%
G36*
X150394039Y-56568685D02*
G01*
X150439794Y-56621489D01*
X150451000Y-56673000D01*
X150451000Y-62025000D01*
X150431315Y-62092039D01*
X150378511Y-62137794D01*
X150327000Y-62149000D01*
X146475000Y-62149000D01*
X146407961Y-62129315D01*
X146362206Y-62076511D01*
X146351000Y-62025000D01*
X146351000Y-58849000D01*
X139275000Y-58849000D01*
X139207961Y-58829315D01*
X139162206Y-58776511D01*
X139151000Y-58725000D01*
X139151000Y-56673000D01*
X139170685Y-56605961D01*
X139223489Y-56560206D01*
X139275000Y-56549000D01*
X150327000Y-56549000D01*
X150394039Y-56568685D01*
G37*
%TD.AperFunction*%
%TD*%
%TA.AperFunction,Conductor*%
%TO.N,/BQ76952 1/C10Jc*%
G36*
X166594039Y-74868685D02*
G01*
X166639794Y-74921489D01*
X166651000Y-74973000D01*
X166651000Y-80177692D01*
X166642355Y-80207132D01*
X166635832Y-80237119D01*
X166632077Y-80242134D01*
X166631315Y-80244731D01*
X166614681Y-80265373D01*
X166467373Y-80412681D01*
X166406050Y-80446166D01*
X166379692Y-80449000D01*
X162675000Y-80449000D01*
X162607961Y-80429315D01*
X162562206Y-80376511D01*
X162551000Y-80325000D01*
X162551000Y-77149000D01*
X155475000Y-77149000D01*
X155407961Y-77129315D01*
X155362206Y-77076511D01*
X155351000Y-77025000D01*
X155351000Y-74973000D01*
X155370685Y-74905961D01*
X155423489Y-74860206D01*
X155475000Y-74849000D01*
X166527000Y-74849000D01*
X166594039Y-74868685D01*
G37*
%TD.AperFunction*%
%TD*%
%TA.AperFunction,Conductor*%
%TO.N,/BQ76952 1/C9Jc*%
G36*
X150423043Y-38568685D02*
G01*
X150468798Y-38621489D01*
X150480004Y-38673000D01*
X150480004Y-44025000D01*
X150460319Y-44092039D01*
X150407515Y-44137794D01*
X150356004Y-44149000D01*
X146504004Y-44149000D01*
X146436965Y-44129315D01*
X146391210Y-44076511D01*
X146380004Y-44025000D01*
X146380004Y-40849000D01*
X139304004Y-40849000D01*
X139236965Y-40829315D01*
X139191210Y-40776511D01*
X139180004Y-40725000D01*
X139180004Y-38673000D01*
X139199689Y-38605961D01*
X139252493Y-38560206D01*
X139304004Y-38549000D01*
X150356004Y-38549000D01*
X150423043Y-38568685D01*
G37*
%TD.AperFunction*%
%TD*%
%TA.AperFunction,Conductor*%
%TO.N,/BQ76952 1/C1Jc*%
G36*
X134323043Y-65668685D02*
G01*
X134368798Y-65721489D01*
X134380004Y-65773000D01*
X134380004Y-70623688D01*
X134360319Y-70690727D01*
X134343685Y-70711369D01*
X133842373Y-71212681D01*
X133781050Y-71246166D01*
X133754692Y-71249000D01*
X130404004Y-71249000D01*
X130336965Y-71229315D01*
X130291210Y-71176511D01*
X130280004Y-71125000D01*
X130280004Y-67949000D01*
X123204004Y-67949000D01*
X123136965Y-67929315D01*
X123091210Y-67876511D01*
X123080004Y-67825000D01*
X123080004Y-65773000D01*
X123099689Y-65705961D01*
X123152493Y-65660206D01*
X123204004Y-65649000D01*
X134256004Y-65649000D01*
X134323043Y-65668685D01*
G37*
%TD.AperFunction*%
%TD*%
D19*
X170000000Y-136000000D02*
X170000000Y-123800000D01*
X167100000Y-121700000D02*
X168100000Y-120000000D01*
X170000000Y-31000000D02*
X170000000Y-98600000D01*
X122100000Y-120000000D02*
X123100000Y-118300000D01*
X123100000Y-118300000D02*
X122300000Y-117000000D01*
X167800000Y-123000000D02*
X167100000Y-121700000D01*
X170000000Y-136000000D02*
X120000000Y-136000000D01*
X169200000Y-123000001D02*
X167800000Y-123000000D01*
D20*
X170000000Y-123800000D02*
X169999990Y-123795111D01*
X169999960Y-123790242D01*
X169999910Y-123785393D01*
X169999841Y-123780564D01*
X169999752Y-123775754D01*
X169999643Y-123770964D01*
X169999515Y-123766193D01*
X169999367Y-123761442D01*
X169999200Y-123756711D01*
X169999013Y-123751999D01*
X169998808Y-123747305D01*
X169998583Y-123742632D01*
X169998339Y-123737977D01*
X169998076Y-123733341D01*
X169997795Y-123728724D01*
X169997494Y-123724126D01*
X169997175Y-123719547D01*
X169996837Y-123714986D01*
X169996480Y-123710444D01*
X169996105Y-123705921D01*
X169995711Y-123701415D01*
X169995299Y-123696929D01*
X169994869Y-123692460D01*
X169994420Y-123688010D01*
X169993953Y-123683578D01*
X169993468Y-123679164D01*
X169992964Y-123674768D01*
X169992443Y-123670390D01*
X169991904Y-123666029D01*
X169991347Y-123661687D01*
X169990771Y-123657362D01*
X169990179Y-123653055D01*
X169989568Y-123648765D01*
X169988940Y-123644493D01*
X169988294Y-123640238D01*
X169987631Y-123636001D01*
X169986950Y-123631780D01*
X169986251Y-123627577D01*
X169985536Y-123623390D01*
X169984803Y-123619222D01*
X169984052Y-123615069D01*
X169983285Y-123610935D01*
X169982500Y-123606815D01*
X169981698Y-123602714D01*
X169980879Y-123598628D01*
X169980043Y-123594561D01*
X169979190Y-123590508D01*
X169978320Y-123586473D01*
X169977434Y-123582453D01*
X169976530Y-123578451D01*
X169975610Y-123574463D01*
X169974673Y-123570493D01*
X169973719Y-123566538D01*
X169972748Y-123562600D01*
X169971761Y-123558677D01*
X169970758Y-123554771D01*
X169969737Y-123550879D01*
X169968701Y-123547005D01*
X169967647Y-123543145D01*
X169966578Y-123539302D01*
X169965492Y-123535473D01*
X169964390Y-123531661D01*
X169963271Y-123527862D01*
X169962137Y-123524082D01*
X169960985Y-123520314D01*
X169959818Y-123516564D01*
X169957435Y-123509106D01*
X169954988Y-123501709D01*
X169952476Y-123494371D01*
X169949901Y-123487092D01*
X169947261Y-123479872D01*
X169944558Y-123472711D01*
X169941792Y-123465607D01*
X169938963Y-123458560D01*
X169936070Y-123451570D01*
X169933114Y-123444636D01*
X169930096Y-123437758D01*
X169927015Y-123430936D01*
X169923872Y-123424169D01*
X169920666Y-123417456D01*
X169917397Y-123410798D01*
X169914067Y-123404194D01*
X169910674Y-123397643D01*
X169907219Y-123391145D01*
X169903701Y-123384700D01*
X169900122Y-123378307D01*
X169896480Y-123371966D01*
X169892776Y-123365677D01*
X169889010Y-123359440D01*
X169885182Y-123353253D01*
X169881291Y-123347117D01*
X169877338Y-123341032D01*
X169873322Y-123334996D01*
X169869244Y-123329011D01*
X169865104Y-123323075D01*
X169860901Y-123317189D01*
X169856635Y-123311352D01*
X169852306Y-123305564D01*
X169847914Y-123299824D01*
X169843459Y-123294133D01*
X169838941Y-123288491D01*
X169834359Y-123282896D01*
X169829713Y-123277350D01*
X169825004Y-123271851D01*
X169820230Y-123266400D01*
X169815393Y-123260997D01*
X169810491Y-123255641D01*
X169805524Y-123250333D01*
X169800493Y-123245072D01*
X169795396Y-123239858D01*
X169790235Y-123234691D01*
X169785008Y-123229572D01*
X169779715Y-123224500D01*
X169774356Y-123219474D01*
X169768931Y-123214496D01*
X169763440Y-123209565D01*
X169757882Y-123204681D01*
X169752258Y-123199845D01*
X169746566Y-123195055D01*
X169740806Y-123190313D01*
X169734980Y-123185619D01*
X169729085Y-123180972D01*
X169723122Y-123176373D01*
X169717091Y-123171821D01*
X169710992Y-123167318D01*
X169704824Y-123162863D01*
X169698586Y-123158456D01*
X169692280Y-123154097D01*
X169685905Y-123149788D01*
X169679459Y-123145527D01*
X169672945Y-123141316D01*
X169666360Y-123137154D01*
X169659705Y-123133043D01*
X169652981Y-123128981D01*
X169646186Y-123124970D01*
X169639320Y-123121009D01*
X169632385Y-123117100D01*
X169625379Y-123113242D01*
X169618302Y-123109437D01*
X169611156Y-123105683D01*
X169603938Y-123101983D01*
X169596651Y-123098335D01*
X169589294Y-123094742D01*
X169581866Y-123091202D01*
X169574369Y-123087717D01*
X169566803Y-123084288D01*
X169559167Y-123080914D01*
X169551462Y-123077597D01*
X169543689Y-123074336D01*
X169535849Y-123071133D01*
X169527940Y-123067988D01*
X169519966Y-123064902D01*
X169511925Y-123061876D01*
X169503819Y-123058909D01*
X169495650Y-123056004D01*
X169487417Y-123053160D01*
X169479122Y-123050378D01*
X169470767Y-123047659D01*
X169462352Y-123045005D01*
X169453881Y-123042415D01*
X169445353Y-123039890D01*
X169436772Y-123037432D01*
X169428139Y-123035042D01*
X169419458Y-123032719D01*
X169410730Y-123030466D01*
X169401959Y-123028283D01*
X169393148Y-123026172D01*
X169384302Y-123024132D01*
X169375423Y-123022166D01*
X169366518Y-123020274D01*
X169357590Y-123018458D01*
X169348647Y-123016718D01*
X169339694Y-123015056D01*
X169330740Y-123013473D01*
X169321792Y-123011971D01*
X169312860Y-123010550D01*
X169303956Y-123009212D01*
X169295092Y-123007958D01*
X169286283Y-123006790D01*
X169277547Y-123005710D01*
X169268903Y-123004718D01*
X169260376Y-123003816D01*
X169251998Y-123003006D01*
X169243804Y-123002290D01*
X169235842Y-123001669D01*
X169228175Y-123001144D01*
X169220888Y-123000718D01*
X169214106Y-123000391D01*
X169208027Y-123000164D01*
X169203026Y-123000037D01*
X169200000Y-123000000D01*
D19*
X120000000Y-31000000D02*
X120000000Y-116200000D01*
X122300000Y-117000000D02*
X120800000Y-117000000D01*
D20*
X169200000Y-117000000D02*
X169204889Y-116999990D01*
X169209758Y-116999960D01*
X169214607Y-116999910D01*
X169219437Y-116999841D01*
X169224246Y-116999752D01*
X169229036Y-116999643D01*
X169233807Y-116999515D01*
X169238558Y-116999367D01*
X169243289Y-116999200D01*
X169248001Y-116999013D01*
X169252695Y-116998808D01*
X169257368Y-116998583D01*
X169262023Y-116998339D01*
X169266659Y-116998076D01*
X169271276Y-116997795D01*
X169275874Y-116997494D01*
X169280454Y-116997175D01*
X169285014Y-116996837D01*
X169289556Y-116996480D01*
X169294079Y-116996105D01*
X169298585Y-116995711D01*
X169303071Y-116995299D01*
X169307540Y-116994869D01*
X169311990Y-116994420D01*
X169316422Y-116993953D01*
X169320836Y-116993468D01*
X169325232Y-116992964D01*
X169329610Y-116992443D01*
X169333971Y-116991904D01*
X169338313Y-116991347D01*
X169342638Y-116990771D01*
X169346945Y-116990179D01*
X169351235Y-116989568D01*
X169355507Y-116988940D01*
X169359762Y-116988294D01*
X169363999Y-116987631D01*
X169368220Y-116986950D01*
X169372423Y-116986251D01*
X169376610Y-116985536D01*
X169380778Y-116984803D01*
X169384931Y-116984052D01*
X169389066Y-116983285D01*
X169393185Y-116982500D01*
X169397286Y-116981698D01*
X169401372Y-116980879D01*
X169405440Y-116980043D01*
X169409493Y-116979190D01*
X169413527Y-116978320D01*
X169417548Y-116977434D01*
X169421549Y-116976530D01*
X169425537Y-116975610D01*
X169429507Y-116974673D01*
X169433462Y-116973719D01*
X169437400Y-116972748D01*
X169441324Y-116971761D01*
X169445229Y-116970758D01*
X169449121Y-116969737D01*
X169452995Y-116968701D01*
X169456856Y-116967647D01*
X169460698Y-116966578D01*
X169464528Y-116965492D01*
X169468339Y-116964390D01*
X169472138Y-116963271D01*
X169475918Y-116962137D01*
X169479687Y-116960985D01*
X169483437Y-116959818D01*
X169490894Y-116957435D01*
X169498291Y-116954988D01*
X169505629Y-116952476D01*
X169512908Y-116949901D01*
X169520128Y-116947261D01*
X169527290Y-116944558D01*
X169534394Y-116941792D01*
X169541440Y-116938963D01*
X169548431Y-116936070D01*
X169555364Y-116933114D01*
X169562242Y-116930096D01*
X169569064Y-116927015D01*
X169575831Y-116923872D01*
X169582544Y-116920666D01*
X169589202Y-116917397D01*
X169595807Y-116914067D01*
X169602358Y-116910674D01*
X169608855Y-116907219D01*
X169615301Y-116903701D01*
X169621693Y-116900122D01*
X169628034Y-116896480D01*
X169634323Y-116892776D01*
X169640561Y-116889010D01*
X169646747Y-116885182D01*
X169652883Y-116881291D01*
X169658969Y-116877338D01*
X169665004Y-116873322D01*
X169670989Y-116869245D01*
X169676925Y-116865104D01*
X169682811Y-116860901D01*
X169688648Y-116856635D01*
X169694437Y-116852306D01*
X169700176Y-116847914D01*
X169705867Y-116843459D01*
X169711510Y-116838941D01*
X169717104Y-116834359D01*
X169722650Y-116829713D01*
X169728149Y-116825004D01*
X169733600Y-116820230D01*
X169739003Y-116815393D01*
X169744359Y-116810491D01*
X169749667Y-116805524D01*
X169754928Y-116800493D01*
X169760142Y-116795397D01*
X169765309Y-116790235D01*
X169770428Y-116785008D01*
X169775501Y-116779715D01*
X169780526Y-116774356D01*
X169785504Y-116768932D01*
X169790435Y-116763440D01*
X169795319Y-116757882D01*
X169800156Y-116752258D01*
X169804945Y-116746566D01*
X169809687Y-116740807D01*
X169814381Y-116734980D01*
X169819028Y-116729085D01*
X169823628Y-116723123D01*
X169828179Y-116717092D01*
X169832682Y-116710992D01*
X169837138Y-116704824D01*
X169841545Y-116698587D01*
X169845903Y-116692280D01*
X169850212Y-116685905D01*
X169854473Y-116679460D01*
X169858684Y-116672945D01*
X169862846Y-116666360D01*
X169866958Y-116659706D01*
X169871019Y-116652981D01*
X169875031Y-116646186D01*
X169878991Y-116639321D01*
X169882900Y-116632385D01*
X169886758Y-116625379D01*
X169890564Y-116618303D01*
X169894317Y-116611156D01*
X169898018Y-116603939D01*
X169901665Y-116596651D01*
X169905259Y-116589294D01*
X169908798Y-116581867D01*
X169912283Y-116574370D01*
X169915712Y-116566803D01*
X169919086Y-116559167D01*
X169922403Y-116551463D01*
X169925664Y-116543690D01*
X169928867Y-116535849D01*
X169932012Y-116527941D01*
X169935098Y-116519966D01*
X169938124Y-116511926D01*
X169941091Y-116503820D01*
X169943996Y-116495650D01*
X169946840Y-116487417D01*
X169949622Y-116479123D01*
X169952341Y-116470767D01*
X169954995Y-116462353D01*
X169957585Y-116453881D01*
X169960110Y-116445354D01*
X169962568Y-116436772D01*
X169964958Y-116428140D01*
X169967281Y-116419458D01*
X169969534Y-116410731D01*
X169971717Y-116401960D01*
X169973828Y-116393149D01*
X169975868Y-116384302D01*
X169977834Y-116375424D01*
X169979726Y-116366518D01*
X169981543Y-116357591D01*
X169983282Y-116348648D01*
X169984944Y-116339695D01*
X169986527Y-116330740D01*
X169988029Y-116321793D01*
X169989450Y-116312861D01*
X169990788Y-116303957D01*
X169992042Y-116295093D01*
X169993210Y-116286284D01*
X169994290Y-116277547D01*
X169995282Y-116268903D01*
X169996184Y-116260377D01*
X169996994Y-116251998D01*
X169997710Y-116243804D01*
X169998331Y-116235843D01*
X169998856Y-116228176D01*
X169999282Y-116220889D01*
X169999609Y-116214106D01*
X169999836Y-116208028D01*
X169999963Y-116203027D01*
X170000000Y-116200000D01*
X120000000Y-116200000D02*
X120000010Y-116204889D01*
X120000040Y-116209758D01*
X120000090Y-116214607D01*
X120000159Y-116219436D01*
X120000248Y-116224246D01*
X120000357Y-116229036D01*
X120000485Y-116233807D01*
X120000633Y-116238558D01*
X120000800Y-116243289D01*
X120000987Y-116248001D01*
X120001192Y-116252695D01*
X120001417Y-116257368D01*
X120001661Y-116262023D01*
X120001924Y-116266659D01*
X120002205Y-116271276D01*
X120002506Y-116275874D01*
X120002825Y-116280453D01*
X120003163Y-116285014D01*
X120003520Y-116289556D01*
X120003895Y-116294079D01*
X120004289Y-116298585D01*
X120004701Y-116303071D01*
X120005131Y-116307540D01*
X120005580Y-116311990D01*
X120006047Y-116316422D01*
X120006532Y-116320836D01*
X120007036Y-116325232D01*
X120007557Y-116329610D01*
X120008096Y-116333971D01*
X120008653Y-116338313D01*
X120009229Y-116342638D01*
X120009821Y-116346945D01*
X120010432Y-116351235D01*
X120011060Y-116355507D01*
X120011706Y-116359762D01*
X120012369Y-116363999D01*
X120013050Y-116368220D01*
X120013749Y-116372423D01*
X120014464Y-116376610D01*
X120015197Y-116380778D01*
X120015948Y-116384931D01*
X120016715Y-116389065D01*
X120017500Y-116393185D01*
X120018302Y-116397286D01*
X120019121Y-116401372D01*
X120019957Y-116405439D01*
X120020810Y-116409492D01*
X120021680Y-116413527D01*
X120022566Y-116417547D01*
X120023470Y-116421549D01*
X120024390Y-116425537D01*
X120025327Y-116429507D01*
X120026281Y-116433462D01*
X120027252Y-116437400D01*
X120028239Y-116441323D01*
X120029242Y-116445229D01*
X120030263Y-116449121D01*
X120031299Y-116452995D01*
X120032353Y-116456855D01*
X120033422Y-116460698D01*
X120034508Y-116464527D01*
X120035610Y-116468339D01*
X120036729Y-116472138D01*
X120037863Y-116475918D01*
X120039015Y-116479686D01*
X120040182Y-116483436D01*
X120042565Y-116490894D01*
X120045012Y-116498291D01*
X120047524Y-116505629D01*
X120050099Y-116512908D01*
X120052739Y-116520128D01*
X120055442Y-116527289D01*
X120058208Y-116534393D01*
X120061037Y-116541440D01*
X120063930Y-116548430D01*
X120066886Y-116555364D01*
X120069904Y-116562242D01*
X120072985Y-116569064D01*
X120076128Y-116575831D01*
X120079334Y-116582544D01*
X120082603Y-116589202D01*
X120085933Y-116595806D01*
X120089326Y-116602357D01*
X120092781Y-116608855D01*
X120096299Y-116615300D01*
X120099878Y-116621693D01*
X120103520Y-116628034D01*
X120107224Y-116634323D01*
X120110990Y-116640560D01*
X120114818Y-116646747D01*
X120118709Y-116652883D01*
X120122662Y-116658968D01*
X120126678Y-116665004D01*
X120130756Y-116670989D01*
X120134896Y-116676925D01*
X120139099Y-116682811D01*
X120143365Y-116688648D01*
X120147694Y-116694436D01*
X120152086Y-116700176D01*
X120156541Y-116705867D01*
X120161059Y-116711509D01*
X120165641Y-116717104D01*
X120170287Y-116722650D01*
X120174996Y-116728149D01*
X120179770Y-116733600D01*
X120184607Y-116739003D01*
X120189509Y-116744359D01*
X120194476Y-116749667D01*
X120199507Y-116754928D01*
X120204604Y-116760142D01*
X120209765Y-116765309D01*
X120214992Y-116770428D01*
X120220285Y-116775500D01*
X120225644Y-116780526D01*
X120231069Y-116785504D01*
X120236560Y-116790435D01*
X120242118Y-116795319D01*
X120247742Y-116800155D01*
X120253434Y-116804945D01*
X120259194Y-116809687D01*
X120265020Y-116814381D01*
X120270915Y-116819028D01*
X120276878Y-116823627D01*
X120282909Y-116828179D01*
X120289008Y-116832682D01*
X120295176Y-116837137D01*
X120301414Y-116841544D01*
X120307720Y-116845903D01*
X120314095Y-116850212D01*
X120320541Y-116854473D01*
X120327055Y-116858684D01*
X120333640Y-116862846D01*
X120340295Y-116866957D01*
X120347019Y-116871019D01*
X120353814Y-116875030D01*
X120360680Y-116878991D01*
X120367615Y-116882900D01*
X120374621Y-116886758D01*
X120381698Y-116890563D01*
X120388844Y-116894317D01*
X120396062Y-116898017D01*
X120403349Y-116901665D01*
X120410706Y-116905258D01*
X120418134Y-116908798D01*
X120425631Y-116912283D01*
X120433197Y-116915712D01*
X120440833Y-116919086D01*
X120448538Y-116922403D01*
X120456311Y-116925664D01*
X120464151Y-116928867D01*
X120472060Y-116932012D01*
X120480034Y-116935098D01*
X120488075Y-116938124D01*
X120496181Y-116941091D01*
X120504350Y-116943996D01*
X120512583Y-116946840D01*
X120520878Y-116949622D01*
X120529233Y-116952341D01*
X120537648Y-116954995D01*
X120546119Y-116957585D01*
X120554647Y-116960110D01*
X120563228Y-116962568D01*
X120571861Y-116964958D01*
X120580542Y-116967281D01*
X120589270Y-116969534D01*
X120598041Y-116971717D01*
X120606852Y-116973828D01*
X120615698Y-116975868D01*
X120624577Y-116977834D01*
X120633482Y-116979726D01*
X120642410Y-116981542D01*
X120651353Y-116983282D01*
X120660306Y-116984944D01*
X120669260Y-116986527D01*
X120678208Y-116988029D01*
X120687140Y-116989450D01*
X120696044Y-116990788D01*
X120704908Y-116992042D01*
X120713717Y-116993210D01*
X120722453Y-116994290D01*
X120731097Y-116995282D01*
X120739624Y-116996184D01*
X120748002Y-116996994D01*
X120756196Y-116997710D01*
X120764158Y-116998331D01*
X120771825Y-116998856D01*
X120779112Y-116999282D01*
X120785894Y-116999609D01*
X120791973Y-116999836D01*
X120796974Y-116999963D01*
X120800000Y-117000000D01*
D19*
X167900000Y-117000000D02*
X169200000Y-117000000D01*
X123100000Y-121700000D02*
X122100000Y-120000000D01*
X168100000Y-120000000D02*
X167100000Y-118300000D01*
D20*
X120800000Y-123000000D02*
X120795111Y-123000010D01*
X120790242Y-123000040D01*
X120785393Y-123000090D01*
X120780564Y-123000159D01*
X120775754Y-123000248D01*
X120770964Y-123000357D01*
X120766193Y-123000485D01*
X120761442Y-123000633D01*
X120756711Y-123000800D01*
X120751999Y-123000987D01*
X120747305Y-123001192D01*
X120742632Y-123001417D01*
X120737977Y-123001661D01*
X120733341Y-123001924D01*
X120728724Y-123002205D01*
X120724126Y-123002506D01*
X120719547Y-123002825D01*
X120714986Y-123003163D01*
X120710444Y-123003520D01*
X120705921Y-123003895D01*
X120701415Y-123004289D01*
X120696929Y-123004701D01*
X120692460Y-123005131D01*
X120688010Y-123005580D01*
X120683578Y-123006047D01*
X120679164Y-123006532D01*
X120674768Y-123007036D01*
X120670390Y-123007557D01*
X120666029Y-123008096D01*
X120661687Y-123008653D01*
X120657362Y-123009229D01*
X120653055Y-123009821D01*
X120648765Y-123010432D01*
X120644493Y-123011060D01*
X120640238Y-123011706D01*
X120636001Y-123012369D01*
X120631780Y-123013050D01*
X120627577Y-123013749D01*
X120623390Y-123014464D01*
X120619222Y-123015197D01*
X120615069Y-123015948D01*
X120610935Y-123016715D01*
X120606815Y-123017500D01*
X120602714Y-123018302D01*
X120598628Y-123019121D01*
X120594561Y-123019957D01*
X120590508Y-123020810D01*
X120586473Y-123021680D01*
X120582453Y-123022566D01*
X120578451Y-123023470D01*
X120574463Y-123024390D01*
X120570493Y-123025327D01*
X120566538Y-123026281D01*
X120562600Y-123027252D01*
X120558677Y-123028239D01*
X120554771Y-123029242D01*
X120550879Y-123030263D01*
X120547005Y-123031299D01*
X120543145Y-123032353D01*
X120539302Y-123033422D01*
X120535473Y-123034508D01*
X120531661Y-123035610D01*
X120527862Y-123036729D01*
X120524082Y-123037863D01*
X120520314Y-123039015D01*
X120516564Y-123040182D01*
X120509106Y-123042565D01*
X120501709Y-123045012D01*
X120494371Y-123047524D01*
X120487092Y-123050099D01*
X120479872Y-123052739D01*
X120472711Y-123055442D01*
X120465607Y-123058208D01*
X120458560Y-123061037D01*
X120451570Y-123063930D01*
X120444636Y-123066886D01*
X120437758Y-123069904D01*
X120430936Y-123072985D01*
X120424169Y-123076128D01*
X120417456Y-123079334D01*
X120410798Y-123082603D01*
X120404194Y-123085933D01*
X120397643Y-123089326D01*
X120391145Y-123092781D01*
X120384700Y-123096299D01*
X120378307Y-123099878D01*
X120371966Y-123103520D01*
X120365677Y-123107224D01*
X120359440Y-123110990D01*
X120353253Y-123114818D01*
X120347117Y-123118709D01*
X120341032Y-123122662D01*
X120334996Y-123126678D01*
X120329011Y-123130756D01*
X120323075Y-123134896D01*
X120317189Y-123139099D01*
X120311352Y-123143365D01*
X120305564Y-123147694D01*
X120299824Y-123152086D01*
X120294133Y-123156541D01*
X120288491Y-123161059D01*
X120282896Y-123165641D01*
X120277350Y-123170287D01*
X120271851Y-123174996D01*
X120266400Y-123179770D01*
X120260997Y-123184607D01*
X120255641Y-123189509D01*
X120250333Y-123194476D01*
X120245072Y-123199507D01*
X120239858Y-123204604D01*
X120234691Y-123209765D01*
X120229572Y-123214992D01*
X120224500Y-123220285D01*
X120219474Y-123225644D01*
X120214496Y-123231069D01*
X120209565Y-123236560D01*
X120204681Y-123242118D01*
X120199845Y-123247742D01*
X120195055Y-123253434D01*
X120190313Y-123259194D01*
X120185619Y-123265020D01*
X120180972Y-123270915D01*
X120176373Y-123276878D01*
X120171821Y-123282909D01*
X120167318Y-123289008D01*
X120162863Y-123295176D01*
X120158456Y-123301414D01*
X120154097Y-123307720D01*
X120149788Y-123314095D01*
X120145527Y-123320541D01*
X120141316Y-123327055D01*
X120137154Y-123333640D01*
X120133043Y-123340295D01*
X120128981Y-123347019D01*
X120124970Y-123353814D01*
X120121009Y-123360680D01*
X120117100Y-123367615D01*
X120113242Y-123374621D01*
X120109437Y-123381698D01*
X120105683Y-123388844D01*
X120101983Y-123396062D01*
X120098335Y-123403349D01*
X120094742Y-123410706D01*
X120091202Y-123418134D01*
X120087717Y-123425631D01*
X120084288Y-123433197D01*
X120080914Y-123440833D01*
X120077597Y-123448538D01*
X120074336Y-123456311D01*
X120071133Y-123464151D01*
X120067988Y-123472060D01*
X120064902Y-123480034D01*
X120061876Y-123488075D01*
X120058909Y-123496181D01*
X120056004Y-123504350D01*
X120053160Y-123512583D01*
X120050378Y-123520878D01*
X120047659Y-123529233D01*
X120045005Y-123537648D01*
X120042415Y-123546119D01*
X120039890Y-123554647D01*
X120037432Y-123563228D01*
X120035042Y-123571861D01*
X120032719Y-123580542D01*
X120030466Y-123589270D01*
X120028283Y-123598041D01*
X120026172Y-123606852D01*
X120024132Y-123615698D01*
X120022166Y-123624577D01*
X120020274Y-123633482D01*
X120018458Y-123642410D01*
X120016718Y-123651353D01*
X120015056Y-123660306D01*
X120013473Y-123669260D01*
X120011971Y-123678208D01*
X120010550Y-123687140D01*
X120009212Y-123696044D01*
X120007958Y-123704908D01*
X120006790Y-123713717D01*
X120005710Y-123722453D01*
X120004718Y-123731097D01*
X120003816Y-123739624D01*
X120003006Y-123748002D01*
X120002290Y-123756196D01*
X120001669Y-123764158D01*
X120001144Y-123771825D01*
X120000718Y-123779112D01*
X120000391Y-123785894D01*
X120000164Y-123791973D01*
X120000037Y-123796974D01*
X120000000Y-123800000D01*
D19*
X167100000Y-118300000D02*
X167900000Y-117000000D01*
X120800000Y-123000000D02*
X122400000Y-123000000D01*
X122400000Y-123000000D02*
X123100000Y-121700000D01*
X120000000Y-31000000D02*
X170000000Y-31000000D01*
X120000000Y-123800000D02*
X120000000Y-136000000D01*
X170000000Y-104700000D02*
X170000000Y-116200000D01*
X170000000Y-98600000D02*
X170000000Y-104700000D01*
M02*
