%TF.GenerationSoftware,KiCad,Pcbnew,9.0.2*%
%TF.CreationDate,2025-07-19T22:24:43-05:00*%
%TF.ProjectId,XDS110 onboard prog breakout,58445331-3130-4206-9f6e-626f61726420,rev?*%
%TF.SameCoordinates,Original*%
%TF.FileFunction,Copper,L1,Top*%
%TF.FilePolarity,Positive*%
%FSLAX46Y46*%
G04 Gerber Fmt 4.6, Leading zero omitted, Abs format (unit mm)*
G04 Created by KiCad (PCBNEW 9.0.2) date 2025-07-19 22:24:43*
%MOMM*%
%LPD*%
G01*
G04 APERTURE LIST*
G04 Aperture macros list*
%AMRoundRect*
0 Rectangle with rounded corners*
0 $1 Rounding radius*
0 $2 $3 $4 $5 $6 $7 $8 $9 X,Y pos of 4 corners*
0 Add a 4 corners polygon primitive as box body*
4,1,4,$2,$3,$4,$5,$6,$7,$8,$9,$2,$3,0*
0 Add four circle primitives for the rounded corners*
1,1,$1+$1,$2,$3*
1,1,$1+$1,$4,$5*
1,1,$1+$1,$6,$7*
1,1,$1+$1,$8,$9*
0 Add four rect primitives between the rounded corners*
20,1,$1+$1,$2,$3,$4,$5,0*
20,1,$1+$1,$4,$5,$6,$7,0*
20,1,$1+$1,$6,$7,$8,$9,0*
20,1,$1+$1,$8,$9,$2,$3,0*%
%AMRotRect*
0 Rectangle, with rotation*
0 The origin of the aperture is its center*
0 $1 length*
0 $2 width*
0 $3 Rotation angle, in degrees counterclockwise*
0 Add horizontal line*
21,1,$1,$2,0,0,$3*%
%AMFreePoly0*
4,1,23,0.499999,-0.750000,0.000000,-0.750000,0.000000,-0.745722,-0.065263,-0.745722,-0.191342,-0.711940,-0.304381,-0.646677,-0.396677,-0.554382,-0.461940,-0.441342,-0.495722,-0.315263,-0.495722,-0.250000,-0.500000,-0.250000,-0.500000,0.250000,-0.495722,0.250000,-0.495722,0.315263,-0.461940,0.441342,-0.396677,0.554382,-0.304381,0.646677,-0.191342,0.711940,-0.065263,0.745722,0.000000,0.745722,
0.000000,0.750000,0.499999,0.750000,0.499999,-0.750000,0.499999,-0.750000,$1*%
%AMFreePoly1*
4,1,23,0.000000,0.745722,0.065263,0.745722,0.191342,0.711940,0.304381,0.646677,0.396677,0.554382,0.461940,0.441342,0.495722,0.315263,0.495722,0.250000,0.500000,0.250000,0.500000,-0.250000,0.495722,-0.250000,0.495722,-0.315263,0.461940,-0.441342,0.396677,-0.554382,0.304381,-0.646677,0.191342,-0.711940,0.065263,-0.745722,0.000000,-0.745722,0.000000,-0.750000,-0.499999,-0.750000,
-0.499999,0.750000,0.000000,0.750000,0.000000,0.745722,0.000000,0.745722,$1*%
G04 Aperture macros list end*
%TA.AperFunction,SMDPad,CuDef*%
%ADD10RoundRect,0.250000X-0.724784X-0.159099X-0.159099X-0.724784X0.724784X0.159099X0.159099X0.724784X0*%
%TD*%
%TA.AperFunction,SMDPad,CuDef*%
%ADD11RoundRect,0.250000X0.724784X0.159099X0.159099X0.724784X-0.724784X-0.159099X-0.159099X-0.724784X0*%
%TD*%
%TA.AperFunction,SMDPad,CuDef*%
%ADD12RoundRect,0.100000X-0.083085X-0.224506X0.224506X0.083085X0.083085X0.224506X-0.224506X-0.083085X0*%
%TD*%
%TA.AperFunction,SMDPad,CuDef*%
%ADD13RoundRect,0.150000X-0.309359X-0.521491X0.521491X0.309359X0.309359X0.521491X-0.521491X-0.309359X0*%
%TD*%
%TA.AperFunction,SMDPad,CuDef*%
%ADD14FreePoly0,45.000000*%
%TD*%
%TA.AperFunction,SMDPad,CuDef*%
%ADD15FreePoly1,45.000000*%
%TD*%
%TA.AperFunction,ComponentPad*%
%ADD16RotRect,1.700000X1.700000X135.000000*%
%TD*%
%TA.AperFunction,ComponentPad*%
%ADD17C,1.700000*%
%TD*%
%TA.AperFunction,SMDPad,CuDef*%
%ADD18R,1.000000X1.500000*%
%TD*%
%TA.AperFunction,SMDPad,CuDef*%
%ADD19FreePoly0,135.000000*%
%TD*%
%TA.AperFunction,SMDPad,CuDef*%
%ADD20FreePoly1,135.000000*%
%TD*%
%TA.AperFunction,ComponentPad*%
%ADD21C,2.000000*%
%TD*%
%TA.AperFunction,ComponentPad*%
%ADD22R,1.700000X1.700000*%
%TD*%
%TA.AperFunction,ViaPad*%
%ADD23C,0.600000*%
%TD*%
%TA.AperFunction,Conductor*%
%ADD24C,0.200000*%
%TD*%
%TA.AperFunction,Conductor*%
%ADD25C,0.250000*%
%TD*%
%TA.AperFunction,Conductor*%
%ADD26C,0.750000*%
%TD*%
%TA.AperFunction,Conductor*%
%ADD27C,1.250000*%
%TD*%
G04 APERTURE END LIST*
D10*
%TO.P,R1,1*%
%TO.N,Net-(D2-K)*%
X101903984Y-103503984D03*
%TO.P,R1,2*%
%TO.N,Net-(D1-K)*%
X104096016Y-105696016D03*
%TD*%
D11*
%TO.P,R12,1*%
%TO.N,Net-(JP1-B)*%
X122296016Y-124796016D03*
%TO.P,R12,2*%
%TO.N,Net-(D1-K)*%
X120103984Y-122603984D03*
%TD*%
D12*
%TO.P,D7,1,K*%
%TO.N,Net-(D1-K)*%
X110499954Y-112600046D03*
%TO.P,D7,2,A*%
%TO.N,Net-(D7-A)*%
X111076246Y-112023754D03*
%TD*%
D13*
%TO.P,Q6,1,G*%
%TO.N,/XDS_TXD*%
X106063436Y-102903761D03*
%TO.P,Q6,2,S*%
%TO.N,Net-(D3-A)*%
X107406939Y-104247264D03*
%TO.P,Q6,3,D*%
%TO.N,Net-(JP3-A)*%
X108061013Y-102249687D03*
%TD*%
D14*
%TO.P,JP3,1,A*%
%TO.N,Net-(JP3-A)*%
X111509681Y-101628919D03*
D15*
%TO.P,JP3,2,B*%
%TO.N,Net-(JP2-C)*%
X112428919Y-100709681D03*
%TD*%
D16*
%TO.P,J2,1,Pin_1*%
%TO.N,/XDS_GND*%
X127115800Y-129984200D03*
D17*
%TO.P,J2,2,Pin_2*%
%TO.N,/XDS_5v_supply*%
X128911851Y-128188149D03*
%TO.P,J2,3,Pin_3*%
%TO.N,/XDS_3v_supply*%
X130707902Y-126392098D03*
%TO.P,J2,4,Pin_4*%
%TO.N,/XDS_TXD*%
X132503954Y-124596046D03*
%TO.P,J2,5,Pin_5*%
%TO.N,/XDS_RXD*%
X134300005Y-122799995D03*
%TO.P,J2,6,Pin_6*%
%TO.N,/XDS_RESET_OUT*%
X136096056Y-121003944D03*
%TO.P,J2,7,Pin_7*%
%TO.N,/XDS_TMS_SWDIO*%
X137892107Y-119207893D03*
%TO.P,J2,8,Pin_8*%
%TO.N,/XDS_TCK_SWDCLK*%
X139688159Y-117411841D03*
%TO.P,J2,9,Pin_9*%
%TO.N,/XDS_BLS_INVOKE*%
X141484210Y-115615790D03*
%TD*%
D14*
%TO.P,JP6,1,A*%
%TO.N,Net-(JP6-A)*%
X119040381Y-109159619D03*
D15*
%TO.P,JP6,2,B*%
%TO.N,Net-(JP2-C)*%
X119959619Y-108240381D03*
%TD*%
D12*
%TO.P,D8,1,K*%
%TO.N,Net-(D1-K)*%
X112093254Y-114281146D03*
%TO.P,D8,2,A*%
%TO.N,Net-(D8-A)*%
X112669546Y-113704854D03*
%TD*%
D18*
%TO.P,JP2,1,A*%
%TO.N,/XDS_3v_supply*%
X97100000Y-98800000D03*
%TO.P,JP2,2,C*%
%TO.N,Net-(JP2-C)*%
X98400000Y-98800000D03*
%TO.P,JP2,3,B*%
%TO.N,/XDS_5v_supply*%
X99700000Y-98800000D03*
%TD*%
D12*
%TO.P,D1,1,K*%
%TO.N,Net-(D1-K)*%
X115406054Y-117393946D03*
%TO.P,D1,2,A*%
%TO.N,/XDS_3v_supply*%
X115982346Y-116817654D03*
%TD*%
D13*
%TO.P,Q2,1,G*%
%TO.N,/XDS_TCK_SWDCLK*%
X119144936Y-115985261D03*
%TO.P,Q2,2,S*%
%TO.N,Net-(D7-A)*%
X120488439Y-117328764D03*
%TO.P,Q2,3,D*%
%TO.N,Net-(JP7-A)*%
X121142513Y-115331187D03*
%TD*%
D14*
%TO.P,JP8,1,A*%
%TO.N,Net-(JP8-A)*%
X124060881Y-114180119D03*
D15*
%TO.P,JP8,2,B*%
%TO.N,Net-(JP2-C)*%
X124980119Y-113260881D03*
%TD*%
D13*
%TO.P,Q3,1,G*%
%TO.N,/XDS_TMS_SWDIO*%
X115874536Y-112714861D03*
%TO.P,Q3,2,S*%
%TO.N,Net-(D6-A)*%
X117218039Y-114058364D03*
%TO.P,Q3,3,D*%
%TO.N,Net-(JP6-A)*%
X117872113Y-112060787D03*
%TD*%
%TO.P,Q4,1,G*%
%TO.N,/XDS_RESET_OUT*%
X112604236Y-109444461D03*
%TO.P,Q4,2,S*%
%TO.N,Net-(D5-A)*%
X113947739Y-110787964D03*
%TO.P,Q4,3,D*%
%TO.N,Net-(JP5-A)*%
X114601813Y-108790387D03*
%TD*%
D14*
%TO.P,JP5,1,A*%
%TO.N,Net-(JP5-A)*%
X116530181Y-106649419D03*
D15*
%TO.P,JP5,2,B*%
%TO.N,Net-(JP2-C)*%
X117449419Y-105730181D03*
%TD*%
D14*
%TO.P,JP7,1,A*%
%TO.N,Net-(JP7-A)*%
X121550581Y-111669819D03*
D15*
%TO.P,JP7,2,B*%
%TO.N,Net-(JP2-C)*%
X122469819Y-110750581D03*
%TD*%
D13*
%TO.P,Q1,1,G*%
%TO.N,/XDS_BLS_INVOKE*%
X122415336Y-119255561D03*
%TO.P,Q1,2,S*%
%TO.N,Net-(D8-A)*%
X123758839Y-120599064D03*
%TO.P,Q1,3,D*%
%TO.N,Net-(JP8-A)*%
X124412913Y-118601487D03*
%TD*%
D12*
%TO.P,D5,1,K*%
%TO.N,Net-(D1-K)*%
X107511854Y-109588146D03*
%TO.P,D5,2,A*%
%TO.N,Net-(D5-A)*%
X108088146Y-109011854D03*
%TD*%
D19*
%TO.P,JP1,1,A*%
%TO.N,/XDS_GND*%
X124659619Y-127259619D03*
D20*
%TO.P,JP1,2,B*%
%TO.N,Net-(JP1-B)*%
X123740381Y-126340381D03*
%TD*%
D14*
%TO.P,JP4,1,A*%
%TO.N,Net-(JP4-A)*%
X114019881Y-104139119D03*
D15*
%TO.P,JP4,2,B*%
%TO.N,Net-(JP2-C)*%
X114939119Y-103219881D03*
%TD*%
D21*
%TO.P,TP16,1,1*%
%TO.N,Net-(D1-K)*%
X117700000Y-119900000D03*
%TD*%
D12*
%TO.P,D3,1,K*%
%TO.N,Net-(D1-K)*%
X113711854Y-115888146D03*
%TO.P,D3,2,A*%
%TO.N,Net-(D3-A)*%
X114288146Y-115311854D03*
%TD*%
%TO.P,D4,1,K*%
%TO.N,Net-(D1-K)*%
X105999954Y-108000046D03*
%TO.P,D4,2,A*%
%TO.N,Net-(D4-A)*%
X106576246Y-107423754D03*
%TD*%
D13*
%TO.P,Q5,1,G*%
%TO.N,/XDS_RXD*%
X109333836Y-106174161D03*
%TO.P,Q5,2,S*%
%TO.N,Net-(D4-A)*%
X110677339Y-107517664D03*
%TO.P,Q5,3,D*%
%TO.N,Net-(JP4-A)*%
X111331413Y-105520087D03*
%TD*%
D22*
%TO.P,J1,1,Pin_1*%
%TO.N,/XDS_GND*%
X86800000Y-94500000D03*
D17*
%TO.P,J1,2,Pin_2*%
%TO.N,/XDS_5v_supply*%
X89340000Y-94500000D03*
%TO.P,J1,3,Pin_3*%
%TO.N,/XDS_3v_supply*%
X91879999Y-94500000D03*
%TO.P,J1,4,Pin_4*%
%TO.N,/XDS_TXD*%
X94420000Y-94500000D03*
%TO.P,J1,5,Pin_5*%
%TO.N,/XDS_RXD*%
X96960000Y-94500000D03*
%TO.P,J1,6,Pin_6*%
%TO.N,/XDS_RESET_OUT*%
X99500000Y-94500000D03*
%TO.P,J1,7,Pin_7*%
%TO.N,/XDS_TMS_SWDIO*%
X102040000Y-94500000D03*
%TO.P,J1,8,Pin_8*%
%TO.N,/XDS_TCK_SWDCLK*%
X104580001Y-94500000D03*
%TO.P,J1,9,Pin_9*%
%TO.N,/XDS_BLS_INVOKE*%
X107120000Y-94500000D03*
%TD*%
D12*
%TO.P,D2,1,K*%
%TO.N,Net-(D2-K)*%
X100011854Y-102188146D03*
%TO.P,D2,2,A*%
%TO.N,/XDS_5v_supply*%
X100588146Y-101611854D03*
%TD*%
%TO.P,D6,1,K*%
%TO.N,Net-(D1-K)*%
X109011854Y-111088146D03*
%TO.P,D6,2,A*%
%TO.N,Net-(D6-A)*%
X109588146Y-110511854D03*
%TD*%
D23*
%TO.N,/XDS_3v_supply*%
X95550200Y-97318900D03*
X117022900Y-118201100D03*
%TO.N,/XDS_5v_supply*%
X113318400Y-99950800D03*
%TO.N,Net-(D3-A)*%
X112175900Y-108122400D03*
X114995600Y-115933200D03*
%TO.N,/XDS_RESET_OUT*%
X108892900Y-109993900D03*
X111706900Y-97255600D03*
%TO.N,/XDS_TMS_SWDIO*%
X113086500Y-112367800D03*
X121788500Y-120993900D03*
%TO.N,/XDS_BLS_INVOKE*%
X121555000Y-118189100D03*
%TO.N,/XDS_TCK_SWDCLK*%
X124966300Y-120669800D03*
X118218300Y-115030800D03*
%TO.N,/XDS_RXD*%
X112262200Y-103264200D03*
X122621900Y-121810200D03*
X101499500Y-102258700D03*
%TO.N,/XDS_TXD*%
X104853400Y-102591600D03*
X124676500Y-123959400D03*
%TO.N,/XDS_GND*%
X105100000Y-96200000D03*
X139000000Y-114000000D03*
X130800000Y-118400000D03*
X113900000Y-106800000D03*
X109500000Y-100700000D03*
X127500000Y-119700000D03*
X135800000Y-116500000D03*
X126000000Y-107500000D03*
X132750000Y-122050000D03*
X101800000Y-98800000D03*
X107400000Y-98700000D03*
X122800000Y-115900000D03*
X114000000Y-117600000D03*
X98100000Y-101800000D03*
X109600000Y-108300000D03*
X120100000Y-112800000D03*
X112200000Y-98700000D03*
X102800000Y-96300000D03*
X110000000Y-96200000D03*
X132200000Y-120450000D03*
X106500000Y-105900000D03*
X94700000Y-96100000D03*
X98300000Y-95900000D03*
X88600000Y-95900000D03*
X103200000Y-100900000D03*
X124600000Y-122250000D03*
X107400000Y-96200000D03*
X107100000Y-100900000D03*
X121200000Y-123700000D03*
X127100000Y-123800000D03*
X126500000Y-117000000D03*
X135200000Y-118300000D03*
X116400000Y-109400000D03*
X127100000Y-125500000D03*
X93100000Y-96500000D03*
X105100000Y-98700000D03*
X131500000Y-113700000D03*
X130500000Y-123800000D03*
X110400000Y-104300000D03*
X110000000Y-98700000D03*
%TD*%
D24*
%TO.N,/XDS_RXD*%
X123750000Y-122900000D02*
X122621900Y-121810200D01*
X134300000Y-122800000D02*
X123750000Y-122900000D01*
%TO.N,/XDS_3v_supply*%
X116534600Y-116817700D02*
X126109000Y-126392100D01*
X95550200Y-97318900D02*
X95550200Y-98051900D01*
X95550200Y-98051900D02*
X96298300Y-98800000D01*
X97100000Y-98800000D02*
X96298300Y-98800000D01*
X117022900Y-118201100D02*
X117022900Y-117858300D01*
X117022900Y-117858300D02*
X115982300Y-116817700D01*
X126109000Y-126392100D02*
X130707900Y-126392100D01*
X115982300Y-116817700D02*
X116534600Y-116817700D01*
D25*
%TO.N,Net-(D1-K)*%
X104096000Y-105696000D02*
X104096000Y-106296000D01*
D24*
X113711900Y-115911800D02*
X113724500Y-115924400D01*
X112093300Y-114281100D02*
X112093300Y-114293200D01*
X110185900Y-112385900D02*
X110400000Y-112600000D01*
X106000000Y-108079600D02*
X106003400Y-108079600D01*
D26*
X120104000Y-122604000D02*
X120104000Y-122304000D01*
D24*
X106003400Y-108079600D02*
X107511900Y-109588100D01*
D25*
X104096000Y-106296000D02*
X105879600Y-108079600D01*
X112111700Y-114311600D02*
X113724500Y-115924400D01*
D26*
X120104000Y-122304000D02*
X117700000Y-119900000D01*
D25*
X110185900Y-112385900D02*
X112111700Y-114311600D01*
D24*
X113711900Y-115888100D02*
X113711900Y-115911800D01*
X106000000Y-108000000D02*
X106000000Y-108079600D01*
X109011900Y-111088100D02*
X108950000Y-111150000D01*
D25*
X115324500Y-117524400D02*
X117700000Y-119900000D01*
D24*
X112093300Y-114293200D02*
X112111700Y-114311600D01*
D25*
X108950000Y-111150000D02*
X110185900Y-112385900D01*
D24*
X115406100Y-117442800D02*
X115324500Y-117524400D01*
X105879600Y-108079600D02*
X106000000Y-108079600D01*
X115406100Y-117393900D02*
X115406100Y-117442800D01*
D25*
X113724500Y-115924400D02*
X115324500Y-117524400D01*
X105879600Y-108079600D02*
X108950000Y-111150000D01*
D24*
X110400000Y-112600000D02*
X110500000Y-112600000D01*
D27*
X117700000Y-119900000D02*
X117700000Y-120200000D01*
D25*
%TO.N,Net-(D2-K)*%
X101328000Y-103504000D02*
X101904000Y-103504000D01*
X100012000Y-102188000D02*
X101328000Y-103504000D01*
D24*
X100011900Y-102188100D02*
X100012000Y-102188000D01*
%TO.N,/XDS_5v_supply*%
X113072300Y-99704700D02*
X113318400Y-99950800D01*
D25*
X100588000Y-100650000D02*
X100588000Y-100169000D01*
X100588000Y-101612000D02*
X100588000Y-101082600D01*
X100588000Y-100169000D02*
X100588000Y-99688100D01*
D24*
X90196100Y-94500000D02*
X89340000Y-94500000D01*
X101533300Y-99704700D02*
X113072300Y-99704700D01*
X100588000Y-101611900D02*
X100588100Y-101611900D01*
X95865100Y-100169000D02*
X90196100Y-94500000D01*
D25*
X100588000Y-101082600D02*
X100588000Y-100650000D01*
X100588000Y-99688100D02*
X99700000Y-98800000D01*
D24*
X100588000Y-101082600D02*
X100588000Y-101611900D01*
X100588000Y-100650000D02*
X101533300Y-99704700D01*
X100588000Y-100169000D02*
X95865100Y-100169000D01*
%TO.N,Net-(D3-A)*%
X114995600Y-115933200D02*
X114909400Y-115933200D01*
X112175900Y-107509300D02*
X112175900Y-108122400D01*
X108951100Y-104247300D02*
X110350300Y-105646500D01*
X110818800Y-106536500D02*
X111203100Y-106536500D01*
X110350300Y-105646500D02*
X110350300Y-106068000D01*
X107406900Y-104247300D02*
X108951100Y-104247300D01*
X111203100Y-106536500D02*
X112175900Y-107509300D01*
X114909400Y-115933200D02*
X114288100Y-115311900D01*
X110350300Y-106068000D02*
X110818800Y-106536500D01*
%TO.N,Net-(D4-A)*%
X110583400Y-107423800D02*
X110677300Y-107517700D01*
X106576200Y-107423800D02*
X110583400Y-107423800D01*
%TO.N,Net-(D5-A)*%
X108088100Y-109011900D02*
X112137300Y-109011900D01*
X113585400Y-110425700D02*
X113947700Y-110788000D01*
X113585400Y-108888100D02*
X113585400Y-110425700D01*
X113135000Y-108437700D02*
X113585400Y-108888100D01*
X112711500Y-108437700D02*
X113135000Y-108437700D01*
X112137300Y-109011900D02*
X112711500Y-108437700D01*
%TO.N,Net-(D6-A)*%
X116412400Y-111739800D02*
X115924100Y-111739800D01*
X116891000Y-112218400D02*
X116412400Y-111739800D01*
X112637900Y-111766100D02*
X111383700Y-110511900D01*
X116891000Y-113731400D02*
X116891000Y-112218400D01*
X111383700Y-110511900D02*
X109588100Y-110511900D01*
X117218000Y-114058400D02*
X116891000Y-113731400D01*
X115924100Y-111739800D02*
X115897800Y-111766100D01*
X115897800Y-111766100D02*
X112637900Y-111766100D01*
%TO.N,Net-(D7-A)*%
X120488400Y-117328800D02*
X118976700Y-117328800D01*
X115352800Y-113704900D02*
X113545800Y-113704900D01*
X113545800Y-113704900D02*
X111864700Y-112023800D01*
X118976700Y-117328800D02*
X115352800Y-113704900D01*
X111864700Y-112023800D02*
X111076200Y-112023800D01*
%TO.N,Net-(D8-A)*%
X123758800Y-120599100D02*
X123389100Y-120229400D01*
X115173300Y-114508000D02*
X113472600Y-114508000D01*
X123389100Y-120229400D02*
X120894700Y-120229400D01*
X120894700Y-120229400D02*
X115173300Y-114508000D01*
X113472600Y-114508000D02*
X112669500Y-113704900D01*
%TO.N,/XDS_RESET_OUT*%
X112604200Y-109444500D02*
X109442300Y-109444500D01*
X99500000Y-94500000D02*
X102255600Y-97255600D01*
X109442300Y-109444500D02*
X108892900Y-109993900D01*
X102255600Y-97255600D02*
X111706900Y-97255600D01*
%TO.N,/XDS_TMS_SWDIO*%
X115874500Y-112714900D02*
X113433600Y-112714900D01*
X113433600Y-112714900D02*
X113086500Y-112367800D01*
X121788500Y-120993900D02*
X122656500Y-120993900D01*
X122656500Y-120993900D02*
X123255500Y-121592900D01*
X132030800Y-121592900D02*
X134415800Y-119207900D01*
X134415800Y-119207900D02*
X137892100Y-119207900D01*
X123255500Y-121592900D02*
X132030800Y-121592900D01*
%TO.N,/XDS_BLS_INVOKE*%
X130298400Y-115615800D02*
X126331600Y-119582600D01*
X122742300Y-119582600D02*
X122415300Y-119255600D01*
X126331600Y-119582600D02*
X122742300Y-119582600D01*
X121555000Y-118189100D02*
X122415300Y-119049400D01*
X122415300Y-119049400D02*
X122415300Y-119255600D01*
X141484200Y-115615800D02*
X130298400Y-115615800D01*
%TO.N,/XDS_TCK_SWDCLK*%
X131022700Y-120669800D02*
X134280700Y-117411800D01*
X118218300Y-115030800D02*
X119144900Y-115957400D01*
X119144900Y-115957400D02*
X119144900Y-115985300D01*
X124966300Y-120669800D02*
X131022700Y-120669800D01*
X134280700Y-117411800D02*
X139688200Y-117411800D01*
%TO.N,/XDS_RXD*%
X104604300Y-103193300D02*
X104704400Y-103193300D01*
X107500500Y-103266100D02*
X106190400Y-104576200D01*
X112260300Y-103266100D02*
X107500500Y-103266100D01*
X106087400Y-104576300D02*
X106190300Y-104576300D01*
X103607800Y-102196800D02*
X104604300Y-103193300D01*
X107788300Y-106174200D02*
X106190400Y-104576200D01*
X106190300Y-104576300D02*
X106190400Y-104576200D01*
X101499500Y-102258700D02*
X101561400Y-102196800D01*
X112262200Y-103264200D02*
X112260300Y-103266100D01*
X101561400Y-102196800D02*
X103607800Y-102196800D01*
X104704400Y-103193300D02*
X106087400Y-104576300D01*
X109333800Y-106174200D02*
X107788300Y-106174200D01*
%TO.N,/XDS_TXD*%
X125313100Y-124596000D02*
X124676500Y-123959400D01*
X104853400Y-102591600D02*
X105751200Y-102591600D01*
X132504000Y-124596000D02*
X125313100Y-124596000D01*
X105751200Y-102591600D02*
X106063400Y-102903800D01*
D26*
%TO.N,/XDS_GND*%
X124660000Y-127260000D02*
X127096000Y-129696000D01*
X127096000Y-129696000D02*
X127096000Y-129965000D01*
%TO.N,Net-(JP1-B)*%
X122296000Y-124796000D02*
X122296000Y-124896000D01*
X122296000Y-124896000D02*
X123740000Y-126340000D01*
D24*
X123740400Y-126340400D02*
X123740000Y-126340000D01*
%TO.N,Net-(JP2-C)*%
X98400000Y-98800000D02*
X98400000Y-97857300D01*
X117449400Y-105730200D02*
X114939100Y-103219900D01*
X119959600Y-108240400D02*
X122469800Y-110750600D01*
X113439900Y-100709700D02*
X113439900Y-101720700D01*
X98899000Y-97857300D02*
X98899000Y-97749000D01*
X113439900Y-100709700D02*
X112428900Y-100709700D01*
X124980100Y-113260900D02*
X122469800Y-110750600D01*
X113922300Y-99663200D02*
X113922300Y-100227300D01*
X98899000Y-97749000D02*
X100501000Y-97749000D01*
X98400000Y-97857300D02*
X98899000Y-97857300D01*
X100501000Y-97857300D02*
X112116400Y-97857300D01*
X113439900Y-101720700D02*
X114939100Y-103219900D01*
X113922300Y-100227300D02*
X113439900Y-100709700D01*
X112116400Y-97857300D02*
X113922300Y-99663200D01*
X119959600Y-108240400D02*
X117449400Y-105730200D01*
X100501000Y-97749000D02*
X100501000Y-97857300D01*
%TO.N,Net-(JP3-A)*%
X110888900Y-102249700D02*
X111509700Y-101628900D01*
X108061000Y-102249700D02*
X110888900Y-102249700D01*
%TO.N,Net-(JP4-A)*%
X114019900Y-104139100D02*
X112712400Y-104139100D01*
X112712400Y-104139100D02*
X111331400Y-105520100D01*
%TO.N,Net-(JP5-A)*%
X114601800Y-108790400D02*
X114601800Y-108577800D01*
X114601800Y-108577800D02*
X116530200Y-106649400D01*
%TO.N,Net-(JP6-A)*%
X117872100Y-112060800D02*
X117872100Y-110327900D01*
X117872100Y-110327900D02*
X119040400Y-109159600D01*
%TO.N,Net-(JP7-A)*%
X121550600Y-114923100D02*
X121142500Y-115331200D01*
X121550600Y-111669800D02*
X121550600Y-114923100D01*
%TO.N,Net-(JP8-A)*%
X124412900Y-114532100D02*
X124060900Y-114180100D01*
X124412900Y-118601500D02*
X124412900Y-114532100D01*
%TD*%
%TA.AperFunction,Conductor*%
%TO.N,/XDS_GND*%
G36*
X123713548Y-124496336D02*
G01*
X123734187Y-124512968D01*
X125828531Y-126607312D01*
X125893788Y-126672569D01*
X125893791Y-126672570D01*
X125893794Y-126672573D01*
X125973706Y-126718711D01*
X125973707Y-126718711D01*
X125973712Y-126718714D01*
X126062856Y-126742600D01*
X129575384Y-126742600D01*
X129642423Y-126762285D01*
X129685869Y-126810305D01*
X129699929Y-126837899D01*
X129766670Y-126968886D01*
X129868488Y-127109026D01*
X129990974Y-127231512D01*
X130087643Y-127301746D01*
X130099058Y-127316550D01*
X130114025Y-127327754D01*
X130119952Y-127343644D01*
X130130309Y-127357076D01*
X130131908Y-127375701D01*
X130138442Y-127393218D01*
X130134836Y-127409791D01*
X130136288Y-127426689D01*
X130127564Y-127443222D01*
X130123590Y-127461491D01*
X130104396Y-127487130D01*
X130103682Y-127488484D01*
X130102439Y-127489745D01*
X130009498Y-127582686D01*
X129948175Y-127616171D01*
X129878483Y-127611187D01*
X129822550Y-127569315D01*
X129821499Y-127567890D01*
X129764723Y-127489745D01*
X129751265Y-127471221D01*
X129628779Y-127348735D01*
X129488639Y-127246917D01*
X129334296Y-127168276D01*
X129169552Y-127114747D01*
X129169550Y-127114746D01*
X129169549Y-127114746D01*
X129038122Y-127093930D01*
X128998462Y-127087649D01*
X128825240Y-127087649D01*
X128785579Y-127093930D01*
X128654153Y-127114746D01*
X128489403Y-127168277D01*
X128335062Y-127246917D01*
X128259598Y-127301746D01*
X128194923Y-127348735D01*
X128194921Y-127348737D01*
X128194920Y-127348737D01*
X128072439Y-127471218D01*
X128072439Y-127471219D01*
X128072437Y-127471221D01*
X128028710Y-127531405D01*
X127970619Y-127611360D01*
X127891979Y-127765701D01*
X127838448Y-127930451D01*
X127811351Y-128101538D01*
X127811351Y-128274759D01*
X127838448Y-128445846D01*
X127848172Y-128475773D01*
X127850167Y-128545614D01*
X127814087Y-128605447D01*
X127751386Y-128636275D01*
X127681972Y-128628310D01*
X127642560Y-128601772D01*
X127435532Y-128394744D01*
X127388897Y-128357164D01*
X127258118Y-128297438D01*
X127258113Y-128297437D01*
X127115800Y-128276977D01*
X126973486Y-128297437D01*
X126973481Y-128297438D01*
X126842702Y-128357164D01*
X126796067Y-128394744D01*
X126796063Y-128394748D01*
X126337983Y-128852829D01*
X126986391Y-129501237D01*
X126922807Y-129518275D01*
X126808793Y-129584101D01*
X126715701Y-129677193D01*
X126649875Y-129791207D01*
X126632837Y-129854791D01*
X125984429Y-129206383D01*
X125636994Y-129553818D01*
X125575671Y-129587303D01*
X125505979Y-129582319D01*
X125461632Y-129553818D01*
X123580822Y-127673008D01*
X123547337Y-127611685D01*
X123552321Y-127541993D01*
X123594193Y-127486060D01*
X123644313Y-127463709D01*
X123661380Y-127460315D01*
X123744270Y-127404930D01*
X124804930Y-126344270D01*
X124860315Y-126261380D01*
X124879764Y-126163604D01*
X124879764Y-126163601D01*
X124860316Y-126065832D01*
X124860315Y-126065829D01*
X124860315Y-126065828D01*
X124804930Y-125982938D01*
X124804928Y-125982935D01*
X124404836Y-125582843D01*
X124401646Y-125580395D01*
X124351914Y-125542235D01*
X124237899Y-125476409D01*
X124237897Y-125476408D01*
X124237887Y-125476403D01*
X124176293Y-125450890D01*
X124176280Y-125450886D01*
X124176281Y-125450886D01*
X124176278Y-125450885D01*
X124049112Y-125416811D01*
X124049111Y-125416810D01*
X124049108Y-125416810D01*
X123982991Y-125408105D01*
X123982984Y-125408105D01*
X123851332Y-125408105D01*
X123851324Y-125408105D01*
X123792724Y-125415821D01*
X123785204Y-125416811D01*
X123785201Y-125416811D01*
X123781212Y-125417605D01*
X123780857Y-125415821D01*
X123718382Y-125414318D01*
X123668488Y-125383897D01*
X123412643Y-125128052D01*
X123379158Y-125066729D01*
X123384142Y-124997037D01*
X123406718Y-124959755D01*
X123406474Y-124959558D01*
X123407939Y-124957739D01*
X123408087Y-124957496D01*
X123408541Y-124956988D01*
X123408557Y-124956973D01*
X123446178Y-124910290D01*
X123505966Y-124779374D01*
X123526447Y-124636917D01*
X123523770Y-124618296D01*
X123533714Y-124549139D01*
X123579469Y-124496335D01*
X123646509Y-124476651D01*
X123713548Y-124496336D01*
G37*
%TD.AperFunction*%
%TA.AperFunction,Conductor*%
G36*
X131438452Y-124966185D02*
G01*
X131481898Y-125014206D01*
X131562720Y-125172832D01*
X131593311Y-125214936D01*
X131664540Y-125312974D01*
X131787026Y-125435460D01*
X131883695Y-125505694D01*
X131895110Y-125520498D01*
X131910077Y-125531702D01*
X131916004Y-125547592D01*
X131926361Y-125561024D01*
X131927960Y-125579649D01*
X131934494Y-125597166D01*
X131930888Y-125613739D01*
X131932340Y-125630637D01*
X131923616Y-125647170D01*
X131919642Y-125665439D01*
X131900448Y-125691078D01*
X131899734Y-125692432D01*
X131898491Y-125693693D01*
X131805549Y-125786635D01*
X131744226Y-125820120D01*
X131674534Y-125815136D01*
X131618601Y-125773264D01*
X131617550Y-125771839D01*
X131559857Y-125692432D01*
X131547316Y-125675170D01*
X131424830Y-125552684D01*
X131284690Y-125450866D01*
X131130347Y-125372225D01*
X130965603Y-125318696D01*
X130965601Y-125318695D01*
X130965600Y-125318695D01*
X130834173Y-125297879D01*
X130794513Y-125291598D01*
X130621291Y-125291598D01*
X130581630Y-125297879D01*
X130450204Y-125318695D01*
X130285454Y-125372226D01*
X130131113Y-125450866D01*
X130095957Y-125476409D01*
X129990974Y-125552684D01*
X129990972Y-125552686D01*
X129990971Y-125552686D01*
X129868490Y-125675167D01*
X129868490Y-125675168D01*
X129868488Y-125675170D01*
X129824761Y-125735354D01*
X129766670Y-125815309D01*
X129685867Y-125973895D01*
X129637892Y-126024691D01*
X129575382Y-126041600D01*
X126305543Y-126041600D01*
X126238504Y-126021915D01*
X126217862Y-126005281D01*
X125370762Y-125158181D01*
X125337277Y-125096858D01*
X125342261Y-125027166D01*
X125384133Y-124971233D01*
X125449597Y-124946816D01*
X125458443Y-124946500D01*
X131371413Y-124946500D01*
X131438452Y-124966185D01*
G37*
%TD.AperFunction*%
%TA.AperFunction,Conductor*%
G36*
X121521516Y-122304304D02*
G01*
X121542153Y-122320935D01*
X122401476Y-123180257D01*
X122579061Y-123357842D01*
X122612546Y-123419165D01*
X122607562Y-123488857D01*
X122565690Y-123544790D01*
X122500226Y-123569207D01*
X122473738Y-123568262D01*
X122459837Y-123566263D01*
X122455115Y-123565585D01*
X122455114Y-123565585D01*
X122312659Y-123586065D01*
X122312655Y-123586066D01*
X122181744Y-123645852D01*
X122135049Y-123683481D01*
X121183478Y-124635055D01*
X121183469Y-124635065D01*
X121145853Y-124681741D01*
X121086066Y-124812655D01*
X121086065Y-124812659D01*
X121075364Y-124887096D01*
X121046340Y-124950652D01*
X120987562Y-124988427D01*
X120917692Y-124988427D01*
X120864945Y-124957131D01*
X119942868Y-124035054D01*
X119909383Y-123973731D01*
X119914367Y-123904039D01*
X119956239Y-123848106D01*
X120012902Y-123824636D01*
X120087342Y-123813934D01*
X120218258Y-123754146D01*
X120264941Y-123716527D01*
X121216525Y-122764941D01*
X121254146Y-122718258D01*
X121313934Y-122587342D01*
X121334415Y-122444885D01*
X121331738Y-122426264D01*
X121341682Y-122357107D01*
X121387437Y-122304303D01*
X121454477Y-122284619D01*
X121521516Y-122304304D01*
G37*
%TD.AperFunction*%
%TA.AperFunction,Conductor*%
G36*
X133238990Y-123180257D02*
G01*
X133283427Y-123228908D01*
X133306982Y-123275137D01*
X133358773Y-123376783D01*
X133460591Y-123516923D01*
X133583077Y-123639409D01*
X133679746Y-123709643D01*
X133691161Y-123724447D01*
X133706128Y-123735651D01*
X133712055Y-123751541D01*
X133722412Y-123764973D01*
X133724011Y-123783598D01*
X133730545Y-123801115D01*
X133726939Y-123817688D01*
X133728391Y-123834586D01*
X133719667Y-123851119D01*
X133715693Y-123869388D01*
X133696499Y-123895027D01*
X133695785Y-123896381D01*
X133694542Y-123897642D01*
X133601601Y-123990583D01*
X133540278Y-124024068D01*
X133470586Y-124019084D01*
X133414653Y-123977212D01*
X133413602Y-123975787D01*
X133412108Y-123973731D01*
X133343368Y-123879118D01*
X133220882Y-123756632D01*
X133080742Y-123654814D01*
X132926399Y-123576173D01*
X132761655Y-123522644D01*
X132761653Y-123522643D01*
X132761652Y-123522643D01*
X132630225Y-123501827D01*
X132590565Y-123495546D01*
X132417343Y-123495546D01*
X132377682Y-123501827D01*
X132246256Y-123522643D01*
X132081506Y-123576174D01*
X131927165Y-123654814D01*
X131887709Y-123683481D01*
X131787026Y-123756632D01*
X131787024Y-123756634D01*
X131787023Y-123756634D01*
X131664542Y-123879115D01*
X131664542Y-123879116D01*
X131664540Y-123879118D01*
X131646434Y-123904039D01*
X131562722Y-124019257D01*
X131481944Y-124177795D01*
X131433970Y-124228591D01*
X131371459Y-124245500D01*
X125509643Y-124245500D01*
X125480202Y-124236855D01*
X125450216Y-124230332D01*
X125445200Y-124226577D01*
X125442604Y-124225815D01*
X125421966Y-124209185D01*
X125263316Y-124050535D01*
X125229834Y-123989214D01*
X125227000Y-123962856D01*
X125227000Y-123886927D01*
X125227000Y-123886925D01*
X125189484Y-123746915D01*
X125171939Y-123716527D01*
X125117011Y-123621388D01*
X125117006Y-123621382D01*
X125014517Y-123518893D01*
X125014511Y-123518888D01*
X124930068Y-123470135D01*
X124881852Y-123419568D01*
X124868630Y-123350961D01*
X124894598Y-123286096D01*
X124951512Y-123245568D01*
X124990892Y-123238754D01*
X133171770Y-123161209D01*
X133238990Y-123180257D01*
G37*
%TD.AperFunction*%
%TA.AperFunction,Conductor*%
G36*
X136826631Y-119578085D02*
G01*
X136870077Y-119626105D01*
X136872234Y-119630338D01*
X136950875Y-119784681D01*
X137052693Y-119924821D01*
X137175179Y-120047307D01*
X137271848Y-120117541D01*
X137283263Y-120132345D01*
X137298230Y-120143549D01*
X137304157Y-120159439D01*
X137314514Y-120172871D01*
X137316113Y-120191496D01*
X137322647Y-120209013D01*
X137319041Y-120225586D01*
X137320493Y-120242484D01*
X137311769Y-120259017D01*
X137307795Y-120277286D01*
X137288601Y-120302925D01*
X137287887Y-120304279D01*
X137286644Y-120305540D01*
X137193703Y-120398481D01*
X137132380Y-120431966D01*
X137062688Y-120426982D01*
X137006755Y-120385110D01*
X137005704Y-120383685D01*
X136948928Y-120305540D01*
X136935470Y-120287016D01*
X136812984Y-120164530D01*
X136672844Y-120062712D01*
X136606280Y-120028796D01*
X136518503Y-119984072D01*
X136518502Y-119984071D01*
X136518501Y-119984071D01*
X136353757Y-119930542D01*
X136353755Y-119930541D01*
X136353754Y-119930541D01*
X136219085Y-119909212D01*
X136182667Y-119903444D01*
X136009445Y-119903444D01*
X135973027Y-119909212D01*
X135838358Y-119930541D01*
X135673608Y-119984072D01*
X135519267Y-120062712D01*
X135464518Y-120102490D01*
X135379128Y-120164530D01*
X135379126Y-120164532D01*
X135379125Y-120164532D01*
X135256644Y-120287013D01*
X135256644Y-120287014D01*
X135256642Y-120287016D01*
X135233186Y-120319300D01*
X135154824Y-120427155D01*
X135076184Y-120581496D01*
X135022653Y-120746246D01*
X134998941Y-120895962D01*
X134995556Y-120917333D01*
X134995556Y-121090555D01*
X135000174Y-121119709D01*
X135019594Y-121242329D01*
X135022654Y-121261645D01*
X135076183Y-121426389D01*
X135154824Y-121580732D01*
X135256642Y-121720872D01*
X135379128Y-121843358D01*
X135475797Y-121913592D01*
X135487212Y-121928396D01*
X135502179Y-121939600D01*
X135508106Y-121955490D01*
X135518463Y-121968922D01*
X135520062Y-121987547D01*
X135526596Y-122005064D01*
X135522990Y-122021637D01*
X135524442Y-122038535D01*
X135515718Y-122055068D01*
X135511744Y-122073337D01*
X135492550Y-122098976D01*
X135491836Y-122100330D01*
X135490593Y-122101591D01*
X135397652Y-122194532D01*
X135336329Y-122228017D01*
X135266637Y-122223033D01*
X135210704Y-122181161D01*
X135209653Y-122179736D01*
X135152877Y-122101591D01*
X135139419Y-122083067D01*
X135016933Y-121960581D01*
X134876793Y-121858763D01*
X134722450Y-121780122D01*
X134557706Y-121726593D01*
X134557704Y-121726592D01*
X134557703Y-121726592D01*
X134426276Y-121705776D01*
X134386616Y-121699495D01*
X134213394Y-121699495D01*
X134173733Y-121705776D01*
X134042307Y-121726592D01*
X133877557Y-121780123D01*
X133723216Y-121858763D01*
X133647752Y-121913592D01*
X133583077Y-121960581D01*
X133583075Y-121960583D01*
X133583074Y-121960583D01*
X133460593Y-122083064D01*
X133460593Y-122083065D01*
X133460591Y-122083067D01*
X133430249Y-122124829D01*
X133358773Y-122223206D01*
X133280131Y-122377551D01*
X133278271Y-122382043D01*
X133276498Y-122381308D01*
X133241649Y-122432258D01*
X133177287Y-122459447D01*
X133164344Y-122460247D01*
X123941051Y-122547672D01*
X123873828Y-122528624D01*
X123853722Y-122512860D01*
X123484923Y-122156582D01*
X123450384Y-122095846D01*
X123454164Y-122026079D01*
X123495064Y-121969431D01*
X123560097Y-121943887D01*
X123571077Y-121943400D01*
X132076942Y-121943400D01*
X132076944Y-121943400D01*
X132166088Y-121919514D01*
X132246012Y-121873370D01*
X134524662Y-119594718D01*
X134585985Y-119561234D01*
X134612343Y-119558400D01*
X136759592Y-119558400D01*
X136826631Y-119578085D01*
G37*
%TD.AperFunction*%
%TA.AperFunction,Conductor*%
G36*
X138622659Y-117781985D02*
G01*
X138666105Y-117830006D01*
X138746925Y-117988627D01*
X138777516Y-118030731D01*
X138848745Y-118128769D01*
X138971231Y-118251255D01*
X139067900Y-118321489D01*
X139079315Y-118336293D01*
X139094282Y-118347497D01*
X139100209Y-118363387D01*
X139110566Y-118376819D01*
X139112165Y-118395444D01*
X139118699Y-118412961D01*
X139115093Y-118429534D01*
X139116545Y-118446432D01*
X139107821Y-118462965D01*
X139103847Y-118481234D01*
X139084653Y-118506873D01*
X139083939Y-118508227D01*
X139082696Y-118509488D01*
X138989754Y-118602430D01*
X138928431Y-118635915D01*
X138858739Y-118630931D01*
X138802806Y-118589059D01*
X138801755Y-118587634D01*
X138776620Y-118553039D01*
X138731521Y-118490965D01*
X138609035Y-118368479D01*
X138468895Y-118266661D01*
X138357286Y-118209794D01*
X138314554Y-118188021D01*
X138314553Y-118188020D01*
X138314552Y-118188020D01*
X138149808Y-118134491D01*
X138149806Y-118134490D01*
X138149805Y-118134490D01*
X138018378Y-118113674D01*
X137978718Y-118107393D01*
X137805496Y-118107393D01*
X137765835Y-118113674D01*
X137634409Y-118134490D01*
X137469659Y-118188021D01*
X137315318Y-118266661D01*
X137296633Y-118280237D01*
X137175179Y-118368479D01*
X137175177Y-118368481D01*
X137175176Y-118368481D01*
X137052695Y-118490962D01*
X137052695Y-118490963D01*
X137052693Y-118490965D01*
X137026427Y-118527117D01*
X136950875Y-118631104D01*
X136870070Y-118789695D01*
X136822096Y-118840491D01*
X136759585Y-118857400D01*
X134369656Y-118857400D01*
X134280512Y-118881286D01*
X134280511Y-118881286D01*
X134280509Y-118881287D01*
X134280506Y-118881288D01*
X134200594Y-118927426D01*
X134200585Y-118927433D01*
X131921937Y-121206081D01*
X131860614Y-121239566D01*
X131834256Y-121242400D01*
X131181828Y-121242400D01*
X131171561Y-121239385D01*
X131160934Y-121240627D01*
X131138618Y-121229712D01*
X131114789Y-121222715D01*
X131107783Y-121214630D01*
X131098170Y-121209928D01*
X131085297Y-121188679D01*
X131069034Y-121169911D01*
X131067511Y-121159321D01*
X131061967Y-121150170D01*
X131062625Y-121125338D01*
X131059090Y-121100753D01*
X131063534Y-121091020D01*
X131063818Y-121080324D01*
X131077797Y-121059789D01*
X131088115Y-121037197D01*
X131098154Y-121029887D01*
X131103137Y-121022568D01*
X131120363Y-121013716D01*
X131133324Y-121004280D01*
X131141327Y-121000878D01*
X131157988Y-120996414D01*
X131168612Y-120990280D01*
X131237912Y-120950270D01*
X134389563Y-117798619D01*
X134450886Y-117765134D01*
X134477244Y-117762300D01*
X138555620Y-117762300D01*
X138622659Y-117781985D01*
G37*
%TD.AperFunction*%
%TA.AperFunction,Conductor*%
G36*
X100155539Y-100539185D02*
G01*
X100201294Y-100591989D01*
X100212500Y-100643500D01*
X100212500Y-101299034D01*
X100192815Y-101366073D01*
X100176181Y-101386715D01*
X100092277Y-101470618D01*
X100051124Y-101525810D01*
X100051122Y-101525814D01*
X100038780Y-101561764D01*
X99998393Y-101618779D01*
X99961765Y-101638779D01*
X99925813Y-101651122D01*
X99925810Y-101651123D01*
X99925810Y-101651124D01*
X99870618Y-101692277D01*
X99515985Y-102046910D01*
X99474829Y-102102106D01*
X99474826Y-102102111D01*
X99436848Y-102212739D01*
X99436848Y-102329722D01*
X99474826Y-102440350D01*
X99474829Y-102440355D01*
X99515985Y-102495551D01*
X99704448Y-102684014D01*
X99724827Y-102699209D01*
X99759643Y-102725170D01*
X99759645Y-102725170D01*
X99759649Y-102725173D01*
X99870277Y-102763151D01*
X99870280Y-102763152D01*
X99997532Y-102763152D01*
X99997532Y-102765529D01*
X100052668Y-102772189D01*
X100091401Y-102798438D01*
X100670637Y-103377674D01*
X100704122Y-103438997D01*
X100699138Y-103508689D01*
X100695753Y-103516861D01*
X100694035Y-103520622D01*
X100694033Y-103520628D01*
X100673553Y-103663083D01*
X100694033Y-103805538D01*
X100694034Y-103805542D01*
X100753820Y-103936453D01*
X100753821Y-103936454D01*
X100753822Y-103936456D01*
X100791441Y-103983139D01*
X100791444Y-103983142D01*
X100791449Y-103983148D01*
X101334223Y-104525919D01*
X101424829Y-104616525D01*
X101424833Y-104616528D01*
X101424835Y-104616530D01*
X101471511Y-104654146D01*
X101602425Y-104713933D01*
X101602426Y-104713933D01*
X101602428Y-104713934D01*
X101744885Y-104734415D01*
X101887342Y-104713934D01*
X102018258Y-104654146D01*
X102064941Y-104616527D01*
X103016525Y-103664941D01*
X103054146Y-103618258D01*
X103113934Y-103487342D01*
X103134415Y-103344885D01*
X103113934Y-103202428D01*
X103084299Y-103137538D01*
X103054147Y-103071514D01*
X103054146Y-103071513D01*
X103054146Y-103071512D01*
X103016527Y-103024829D01*
X102899480Y-102907782D01*
X102750678Y-102758981D01*
X102717193Y-102697658D01*
X102722177Y-102627967D01*
X102764048Y-102572033D01*
X102829513Y-102547616D01*
X102838359Y-102547300D01*
X103411256Y-102547300D01*
X103478295Y-102566985D01*
X103498937Y-102583619D01*
X104389088Y-103473770D01*
X104389089Y-103473771D01*
X104389091Y-103473772D01*
X104390645Y-103474669D01*
X104469012Y-103519914D01*
X104527513Y-103535589D01*
X104583100Y-103567682D01*
X105245617Y-104230198D01*
X105806931Y-104791512D01*
X105872188Y-104856769D01*
X105872191Y-104856770D01*
X105872194Y-104856773D01*
X105952106Y-104902911D01*
X105952107Y-104902911D01*
X105952112Y-104902914D01*
X106014701Y-104919684D01*
X106070291Y-104951781D01*
X107422571Y-106304146D01*
X107507829Y-106389409D01*
X107507831Y-106389412D01*
X107512023Y-106393604D01*
X107518919Y-106400500D01*
X107518920Y-106400502D01*
X107573076Y-106454661D01*
X107573079Y-106454663D01*
X107573087Y-106454668D01*
X107573088Y-106454669D01*
X107597995Y-106469048D01*
X107598002Y-106469055D01*
X107598003Y-106469053D01*
X107653002Y-106500810D01*
X107653314Y-106500990D01*
X107653466Y-106501050D01*
X107656824Y-106501835D01*
X107711860Y-106516582D01*
X107742146Y-106524698D01*
X107742148Y-106524698D01*
X107742156Y-106524700D01*
X107742572Y-106524700D01*
X107803671Y-106524700D01*
X107834433Y-106524701D01*
X107834437Y-106524700D01*
X108314523Y-106524700D01*
X108381562Y-106544385D01*
X108427317Y-106597189D01*
X108432454Y-106610381D01*
X108451049Y-106667609D01*
X108451050Y-106667612D01*
X108494379Y-106727249D01*
X108506861Y-106744429D01*
X108624053Y-106861620D01*
X108657537Y-106922941D01*
X108652553Y-106992633D01*
X108610682Y-107048567D01*
X108545218Y-107072984D01*
X108536371Y-107073300D01*
X107080428Y-107073300D01*
X107013389Y-107053615D01*
X106992747Y-107036981D01*
X106883651Y-106927885D01*
X106849755Y-106902611D01*
X106828457Y-106886730D01*
X106828455Y-106886729D01*
X106828450Y-106886726D01*
X106717821Y-106848748D01*
X106717819Y-106848748D01*
X106600843Y-106848748D01*
X106600841Y-106848748D01*
X106490211Y-106886726D01*
X106490206Y-106886729D01*
X106435010Y-106927885D01*
X106080377Y-107282518D01*
X106039224Y-107337710D01*
X106039222Y-107337714D01*
X106026880Y-107373664D01*
X106025648Y-107375402D01*
X106025482Y-107377525D01*
X106005554Y-107403769D01*
X105986493Y-107430679D01*
X105984112Y-107432009D01*
X105983230Y-107433171D01*
X105963539Y-107443503D01*
X105952138Y-107449874D01*
X105950992Y-107450292D01*
X105913913Y-107463022D01*
X105911777Y-107464614D01*
X105901010Y-107468547D01*
X105874201Y-107470280D01*
X105847870Y-107475618D01*
X105839861Y-107472500D01*
X105831286Y-107473055D01*
X105807796Y-107460019D01*
X105782759Y-107450274D01*
X105770790Y-107439753D01*
X104785964Y-106454927D01*
X104752479Y-106393604D01*
X104757463Y-106323912D01*
X104785960Y-106279570D01*
X105208557Y-105856973D01*
X105246178Y-105810290D01*
X105305966Y-105679374D01*
X105326447Y-105536917D01*
X105305966Y-105394460D01*
X105284376Y-105347186D01*
X105246179Y-105263546D01*
X105246178Y-105263545D01*
X105246178Y-105263544D01*
X105208559Y-105216861D01*
X105208554Y-105216856D01*
X105208550Y-105216851D01*
X104575174Y-104583478D01*
X104575168Y-104583473D01*
X104575164Y-104583469D01*
X104528488Y-104545853D01*
X104397574Y-104486066D01*
X104397570Y-104486065D01*
X104255115Y-104465585D01*
X104112659Y-104486065D01*
X104112655Y-104486066D01*
X103981744Y-104545852D01*
X103935049Y-104583481D01*
X102983478Y-105535055D01*
X102983469Y-105535065D01*
X102945853Y-105581741D01*
X102886066Y-105712655D01*
X102886065Y-105712659D01*
X102865585Y-105855115D01*
X102886065Y-105997570D01*
X102886066Y-105997574D01*
X102945852Y-106128485D01*
X102945853Y-106128486D01*
X102945854Y-106128488D01*
X102983473Y-106175171D01*
X102983476Y-106175174D01*
X102983481Y-106175180D01*
X103616857Y-106808553D01*
X103616867Y-106808562D01*
X103663543Y-106846178D01*
X103794457Y-106905965D01*
X103794458Y-106905965D01*
X103794460Y-106905966D01*
X103936917Y-106926447D01*
X104079374Y-106905966D01*
X104079380Y-106905963D01*
X104082636Y-106905007D01*
X104086047Y-106905006D01*
X104088153Y-106904704D01*
X104088196Y-106905006D01*
X104152506Y-106905001D01*
X104205263Y-106936300D01*
X105412172Y-108143209D01*
X105441773Y-108190628D01*
X105462929Y-108252255D01*
X105504085Y-108307451D01*
X105692548Y-108495914D01*
X105711158Y-108509790D01*
X105747743Y-108537070D01*
X105809372Y-108558226D01*
X105856790Y-108587827D01*
X106900529Y-109631566D01*
X106934014Y-109692889D01*
X106936848Y-109719247D01*
X106936848Y-109729722D01*
X106974826Y-109840350D01*
X106974829Y-109840355D01*
X106974830Y-109840357D01*
X106983568Y-109852075D01*
X107015985Y-109895551D01*
X107204448Y-110084014D01*
X107215018Y-110091895D01*
X107259643Y-110125170D01*
X107259645Y-110125170D01*
X107259649Y-110125173D01*
X107370277Y-110163151D01*
X107370280Y-110163152D01*
X107370281Y-110163152D01*
X107380753Y-110163152D01*
X107447792Y-110182837D01*
X107468434Y-110199471D01*
X108400529Y-111131566D01*
X108434014Y-111192889D01*
X108436848Y-111219247D01*
X108436848Y-111229722D01*
X108474826Y-111340350D01*
X108474829Y-111340355D01*
X108474830Y-111340357D01*
X108488159Y-111358232D01*
X108515985Y-111395551D01*
X108704448Y-111584014D01*
X108716009Y-111592634D01*
X108759643Y-111625170D01*
X108759645Y-111625170D01*
X108759649Y-111625173D01*
X108870277Y-111663151D01*
X108870280Y-111663152D01*
X108870281Y-111663152D01*
X108880753Y-111663152D01*
X108947792Y-111682837D01*
X108968434Y-111699471D01*
X109880056Y-112611093D01*
X109885430Y-112616469D01*
X109885432Y-112616471D01*
X109887919Y-112618958D01*
X109888639Y-112619678D01*
X109903444Y-112646799D01*
X109922113Y-112680984D01*
X109922114Y-112681001D01*
X109922117Y-112681005D01*
X109922116Y-112681014D01*
X109924948Y-112707349D01*
X109924948Y-112741622D01*
X109962926Y-112852250D01*
X109962929Y-112852255D01*
X109962930Y-112852257D01*
X109979049Y-112873874D01*
X110004085Y-112907451D01*
X110192548Y-113095914D01*
X110209237Y-113108358D01*
X110247743Y-113137070D01*
X110247745Y-113137070D01*
X110247749Y-113137073D01*
X110358377Y-113175051D01*
X110358380Y-113175052D01*
X110358381Y-113175052D01*
X110392682Y-113175052D01*
X110459721Y-113194737D01*
X110480355Y-113211363D01*
X111481928Y-114212885D01*
X111515414Y-114274205D01*
X111518248Y-114300566D01*
X111518248Y-114422722D01*
X111556226Y-114533350D01*
X111556229Y-114533355D01*
X111556230Y-114533357D01*
X111559367Y-114537564D01*
X111597385Y-114588551D01*
X111785848Y-114777014D01*
X111801212Y-114788470D01*
X111841043Y-114818170D01*
X111841045Y-114818170D01*
X111841049Y-114818173D01*
X111951677Y-114856151D01*
X111951680Y-114856152D01*
X112073853Y-114856152D01*
X112140892Y-114875837D01*
X112161533Y-114892470D01*
X113100530Y-115831468D01*
X113134014Y-115892789D01*
X113136848Y-115919147D01*
X113136848Y-116029722D01*
X113174826Y-116140350D01*
X113174829Y-116140355D01*
X113174830Y-116140357D01*
X113188107Y-116158163D01*
X113215985Y-116195551D01*
X113404448Y-116384014D01*
X113415117Y-116391969D01*
X113459643Y-116425170D01*
X113459645Y-116425170D01*
X113459649Y-116425173D01*
X113570277Y-116463151D01*
X113570280Y-116463152D01*
X113680853Y-116463152D01*
X113747892Y-116482837D01*
X113768534Y-116499471D01*
X114824597Y-117555535D01*
X114854197Y-117602951D01*
X114869030Y-117646156D01*
X114869032Y-117646160D01*
X114910183Y-117701349D01*
X115098648Y-117889814D01*
X115111011Y-117899032D01*
X115153843Y-117930970D01*
X115197037Y-117945798D01*
X115244454Y-117975399D01*
X115385674Y-118116625D01*
X116464784Y-119195781D01*
X116527322Y-119258321D01*
X116560806Y-119319644D01*
X116555820Y-119389336D01*
X116550125Y-119402292D01*
X116541115Y-119419975D01*
X116541114Y-119419978D01*
X116480291Y-119607169D01*
X116480291Y-119607172D01*
X116449500Y-119801577D01*
X116449500Y-119998422D01*
X116480291Y-120192827D01*
X116480291Y-120192830D01*
X116503412Y-120263987D01*
X116505407Y-120333828D01*
X116469327Y-120393661D01*
X116406626Y-120424489D01*
X116337212Y-120416524D01*
X116297800Y-120389986D01*
X96638995Y-100731181D01*
X96605510Y-100669858D01*
X96610494Y-100600166D01*
X96652366Y-100544233D01*
X96717830Y-100519816D01*
X96726676Y-100519500D01*
X100088500Y-100519500D01*
X100155539Y-100539185D01*
G37*
%TD.AperFunction*%
%TA.AperFunction,Conductor*%
G36*
X140418736Y-115985985D02*
G01*
X140462182Y-116034006D01*
X140542976Y-116192576D01*
X140558523Y-116213974D01*
X140644796Y-116332718D01*
X140767282Y-116455204D01*
X140863951Y-116525438D01*
X140875366Y-116540242D01*
X140890333Y-116551446D01*
X140896260Y-116567336D01*
X140906617Y-116580768D01*
X140908216Y-116599393D01*
X140914750Y-116616910D01*
X140911144Y-116633483D01*
X140912596Y-116650381D01*
X140903872Y-116666914D01*
X140899898Y-116685183D01*
X140880704Y-116710822D01*
X140879990Y-116712176D01*
X140878747Y-116713437D01*
X140785806Y-116806378D01*
X140724483Y-116839863D01*
X140654791Y-116834879D01*
X140598858Y-116793007D01*
X140597807Y-116791582D01*
X140581546Y-116769201D01*
X140527573Y-116694913D01*
X140405087Y-116572427D01*
X140264947Y-116470609D01*
X140110604Y-116391968D01*
X139945860Y-116338439D01*
X139945858Y-116338438D01*
X139945857Y-116338438D01*
X139814430Y-116317622D01*
X139774770Y-116311341D01*
X139601548Y-116311341D01*
X139561887Y-116317622D01*
X139430461Y-116338438D01*
X139265711Y-116391969D01*
X139111370Y-116470609D01*
X139067979Y-116502135D01*
X138971231Y-116572427D01*
X138971229Y-116572429D01*
X138971228Y-116572429D01*
X138848747Y-116694910D01*
X138848747Y-116694911D01*
X138848745Y-116694913D01*
X138822083Y-116731610D01*
X138746927Y-116835052D01*
X138666146Y-116993595D01*
X138618171Y-117044391D01*
X138555661Y-117061300D01*
X134234556Y-117061300D01*
X134145412Y-117085186D01*
X134145409Y-117085187D01*
X134065491Y-117131327D01*
X134065486Y-117131331D01*
X130913837Y-120282981D01*
X130852514Y-120316466D01*
X130826156Y-120319300D01*
X125445686Y-120319300D01*
X125378647Y-120299615D01*
X125373150Y-120295871D01*
X125365060Y-120290036D01*
X125304315Y-120229291D01*
X125186632Y-120161346D01*
X125181536Y-120157671D01*
X125163804Y-120134841D01*
X125143856Y-120113920D01*
X125142635Y-120107584D01*
X125138678Y-120102490D01*
X125136104Y-120073696D01*
X125130634Y-120045313D01*
X125133031Y-120039324D01*
X125132457Y-120032898D01*
X125145858Y-120007284D01*
X125156602Y-119980448D01*
X125161857Y-119976705D01*
X125164848Y-119970990D01*
X125189968Y-119956687D01*
X125213516Y-119939920D01*
X125221895Y-119938510D01*
X125225566Y-119936421D01*
X125232203Y-119936777D01*
X125254072Y-119933100D01*
X126377742Y-119933100D01*
X126377744Y-119933100D01*
X126466888Y-119909214D01*
X126476882Y-119903444D01*
X126476883Y-119903444D01*
X126546805Y-119863074D01*
X126546804Y-119863074D01*
X126546812Y-119863070D01*
X130407262Y-116002618D01*
X130468585Y-115969134D01*
X130494943Y-115966300D01*
X140351697Y-115966300D01*
X140418736Y-115985985D01*
G37*
%TD.AperFunction*%
%TA.AperFunction,Conductor*%
G36*
X122951794Y-111766863D02*
G01*
X122976283Y-111768614D01*
X122987469Y-111775802D01*
X122995760Y-111777880D01*
X123003462Y-111786080D01*
X123020636Y-111797117D01*
X123933582Y-112710063D01*
X123949425Y-112739077D01*
X123966183Y-112767605D01*
X123966102Y-112769619D01*
X123967067Y-112771386D01*
X123964707Y-112804376D01*
X123963382Y-112837419D01*
X123962173Y-112839806D01*
X123962083Y-112841078D01*
X123959483Y-112845123D01*
X123947446Y-112868910D01*
X123941233Y-112877773D01*
X123915570Y-112903438D01*
X123860185Y-112986328D01*
X123858215Y-112996230D01*
X123845192Y-113014813D01*
X123791105Y-113058206D01*
X123786330Y-113060183D01*
X123703435Y-113115571D01*
X123303343Y-113515663D01*
X123296572Y-113524488D01*
X123262735Y-113568586D01*
X123262734Y-113568588D01*
X123262732Y-113568590D01*
X123196908Y-113682602D01*
X123196903Y-113682612D01*
X123171390Y-113744206D01*
X123171386Y-113744219D01*
X123137310Y-113871391D01*
X123128605Y-113937508D01*
X123128605Y-114069175D01*
X123131277Y-114089467D01*
X123137311Y-114135296D01*
X123143261Y-114157500D01*
X123171385Y-114262463D01*
X123171385Y-114262464D01*
X123196903Y-114324070D01*
X123196908Y-114324080D01*
X123196909Y-114324082D01*
X123262735Y-114438098D01*
X123303339Y-114491016D01*
X123749984Y-114937661D01*
X123802902Y-114978265D01*
X123916918Y-115044091D01*
X123916921Y-115044092D01*
X123916924Y-115044094D01*
X123982289Y-115071169D01*
X123981906Y-115072092D01*
X124035397Y-115109689D01*
X124061764Y-115174393D01*
X124062400Y-115186939D01*
X124062400Y-118122113D01*
X124042715Y-118189152D01*
X124026081Y-118209794D01*
X123585943Y-118649933D01*
X123585939Y-118649937D01*
X123530125Y-118726757D01*
X123525280Y-118741670D01*
X123485842Y-118799344D01*
X123421482Y-118826541D01*
X123352636Y-118814625D01*
X123303950Y-118769940D01*
X123303859Y-118770007D01*
X123303530Y-118769554D01*
X123301161Y-118767380D01*
X123298602Y-118762772D01*
X123298123Y-118762113D01*
X123298123Y-118762112D01*
X123242311Y-118685293D01*
X122985604Y-118428588D01*
X122985600Y-118428585D01*
X122985599Y-118428584D01*
X122908786Y-118372774D01*
X122788129Y-118333570D01*
X122788128Y-118333570D01*
X122661262Y-118333570D01*
X122661260Y-118333570D01*
X122540602Y-118372775D01*
X122463789Y-118428582D01*
X122460083Y-118431749D01*
X122459187Y-118430700D01*
X122456712Y-118432052D01*
X122451287Y-118439300D01*
X122426527Y-118448534D01*
X122403335Y-118461199D01*
X122394305Y-118460553D01*
X122385823Y-118463717D01*
X122360002Y-118458100D01*
X122333643Y-118456215D01*
X122324589Y-118450396D01*
X122317550Y-118448865D01*
X122289296Y-118427714D01*
X122141819Y-118280237D01*
X122108334Y-118218914D01*
X122105500Y-118192556D01*
X122105500Y-118116627D01*
X122105500Y-118116625D01*
X122067984Y-117976615D01*
X122023191Y-117899032D01*
X121995511Y-117851088D01*
X121995506Y-117851082D01*
X121893017Y-117748593D01*
X121893011Y-117748588D01*
X121767488Y-117676117D01*
X121767489Y-117676117D01*
X121756006Y-117673040D01*
X121627475Y-117638600D01*
X121482525Y-117638600D01*
X121353993Y-117673040D01*
X121342511Y-117676117D01*
X121216988Y-117748588D01*
X121216982Y-117748593D01*
X121114493Y-117851082D01*
X121114488Y-117851088D01*
X121042017Y-117976611D01*
X121042016Y-117976615D01*
X121004500Y-118116625D01*
X121004500Y-118261575D01*
X121042016Y-118401585D01*
X121042017Y-118401588D01*
X121114488Y-118527111D01*
X121114490Y-118527113D01*
X121114491Y-118527115D01*
X121216985Y-118629609D01*
X121216986Y-118629610D01*
X121216988Y-118629611D01*
X121342511Y-118702082D01*
X121342512Y-118702082D01*
X121342515Y-118702084D01*
X121482525Y-118739600D01*
X121558456Y-118739600D01*
X121587896Y-118748244D01*
X121617883Y-118754768D01*
X121622898Y-118758522D01*
X121625495Y-118759285D01*
X121646137Y-118775919D01*
X121793613Y-118923395D01*
X121827098Y-118984718D01*
X121822114Y-119054410D01*
X121793614Y-119098756D01*
X121588366Y-119304007D01*
X121588362Y-119304011D01*
X121532549Y-119380829D01*
X121493345Y-119501485D01*
X121493345Y-119628356D01*
X121522012Y-119716582D01*
X121524007Y-119786423D01*
X121487927Y-119846256D01*
X121425226Y-119877084D01*
X121404081Y-119878900D01*
X121091244Y-119878900D01*
X121024205Y-119859215D01*
X121003563Y-119842581D01*
X119051963Y-117890981D01*
X119018478Y-117829658D01*
X119023462Y-117759966D01*
X119065334Y-117704033D01*
X119130798Y-117679616D01*
X119139644Y-117679300D01*
X119469125Y-117679300D01*
X119536164Y-117698985D01*
X119581919Y-117751789D01*
X119587056Y-117764981D01*
X119605652Y-117822213D01*
X119605652Y-117822214D01*
X119605653Y-117822215D01*
X119654765Y-117889812D01*
X119661464Y-117899032D01*
X119918171Y-118155737D01*
X119918174Y-118155739D01*
X119918175Y-118155740D01*
X119994988Y-118211550D01*
X119994989Y-118211550D01*
X119994990Y-118211551D01*
X120115647Y-118250755D01*
X120115648Y-118250755D01*
X120242512Y-118250755D01*
X120242513Y-118250755D01*
X120363169Y-118211551D01*
X120365588Y-118209794D01*
X120439985Y-118155742D01*
X120439985Y-118155741D01*
X120439989Y-118155739D01*
X121315412Y-117280314D01*
X121371226Y-117203494D01*
X121410430Y-117082838D01*
X121410430Y-116955972D01*
X121371226Y-116835315D01*
X121364200Y-116825645D01*
X121326022Y-116773097D01*
X121315414Y-116758496D01*
X121058707Y-116501791D01*
X121058703Y-116501788D01*
X121058702Y-116501787D01*
X120973992Y-116440240D01*
X120975195Y-116438583D01*
X120933558Y-116399257D01*
X120916764Y-116331436D01*
X120939303Y-116265301D01*
X120994019Y-116221851D01*
X121002310Y-116218825D01*
X121017243Y-116213974D01*
X121042597Y-116195554D01*
X121094059Y-116158165D01*
X121094059Y-116158164D01*
X121094063Y-116158162D01*
X121969486Y-115282737D01*
X122025300Y-115205917D01*
X122064504Y-115085261D01*
X122064504Y-114958395D01*
X122025300Y-114837738D01*
X121981182Y-114777014D01*
X121969491Y-114760922D01*
X121937419Y-114728850D01*
X121903934Y-114667527D01*
X121901100Y-114641169D01*
X121901100Y-112677153D01*
X121920785Y-112610114D01*
X121973589Y-112564359D01*
X121985271Y-112559724D01*
X121986460Y-112559319D01*
X121986478Y-112559315D01*
X122048099Y-112533791D01*
X122162114Y-112467965D01*
X122215031Y-112427361D01*
X122615130Y-112027262D01*
X122670515Y-111944372D01*
X122670515Y-111944367D01*
X122672488Y-111939607D01*
X122715886Y-111885507D01*
X122734466Y-111872485D01*
X122744372Y-111870515D01*
X122827262Y-111815130D01*
X122852930Y-111789461D01*
X122861789Y-111783253D01*
X122885046Y-111775398D01*
X122906591Y-111763633D01*
X122917564Y-111764417D01*
X122927985Y-111760898D01*
X122951794Y-111766863D01*
G37*
%TD.AperFunction*%
%TA.AperFunction,Conductor*%
G36*
X114478003Y-99986263D02*
G01*
X114484481Y-99992295D01*
X120799500Y-106307314D01*
X120892686Y-106400500D01*
X121006814Y-106466392D01*
X121134108Y-106500500D01*
X133441324Y-106500500D01*
X133508363Y-106520185D01*
X133529005Y-106536819D01*
X141320368Y-114328182D01*
X141353853Y-114389505D01*
X141348869Y-114459197D01*
X141306997Y-114515130D01*
X141252089Y-114538336D01*
X141226509Y-114542388D01*
X141061762Y-114595918D01*
X140907421Y-114674558D01*
X140832696Y-114728850D01*
X140767282Y-114776376D01*
X140767280Y-114776378D01*
X140767279Y-114776378D01*
X140644798Y-114898859D01*
X140644798Y-114898860D01*
X140644796Y-114898862D01*
X140614071Y-114941151D01*
X140542978Y-115039001D01*
X140462171Y-115197595D01*
X140414196Y-115248391D01*
X140351686Y-115265300D01*
X130252256Y-115265300D01*
X130170310Y-115287257D01*
X130170309Y-115287256D01*
X130163116Y-115289184D01*
X130163112Y-115289186D01*
X130083191Y-115335328D01*
X130083185Y-115335333D01*
X126222737Y-119195781D01*
X126161414Y-119229266D01*
X126135056Y-119232100D01*
X124860186Y-119232100D01*
X124793147Y-119212415D01*
X124747392Y-119159611D01*
X124737448Y-119090453D01*
X124766473Y-119026897D01*
X124772505Y-119020419D01*
X124869529Y-118923395D01*
X125239886Y-118553037D01*
X125295700Y-118476217D01*
X125334904Y-118355561D01*
X125334904Y-118228695D01*
X125295700Y-118108038D01*
X125295231Y-118107393D01*
X125239890Y-118031222D01*
X125239888Y-118031219D01*
X124983181Y-117774514D01*
X124983177Y-117774511D01*
X124983176Y-117774510D01*
X124906362Y-117718700D01*
X124849081Y-117700088D01*
X124791406Y-117660650D01*
X124764208Y-117596291D01*
X124763400Y-117582157D01*
X124763400Y-114950954D01*
X124783085Y-114883915D01*
X124799719Y-114863273D01*
X125125428Y-114537564D01*
X125125430Y-114537562D01*
X125180815Y-114454672D01*
X125180815Y-114454667D01*
X125182788Y-114449907D01*
X125226626Y-114395500D01*
X125249907Y-114382788D01*
X125254667Y-114380815D01*
X125254672Y-114380815D01*
X125337562Y-114325430D01*
X125737661Y-113925331D01*
X125778265Y-113872414D01*
X125844091Y-113758399D01*
X125849963Y-113744222D01*
X125869609Y-113696793D01*
X125869609Y-113696790D01*
X125869615Y-113696778D01*
X125903689Y-113569612D01*
X125912395Y-113503484D01*
X125912395Y-113371832D01*
X125903689Y-113305704D01*
X125869615Y-113178538D01*
X125866012Y-113169840D01*
X125844096Y-113116929D01*
X125844091Y-113116919D01*
X125844091Y-113116918D01*
X125778265Y-113002902D01*
X125737661Y-112949984D01*
X125291016Y-112503339D01*
X125238098Y-112462735D01*
X125124082Y-112396909D01*
X125124080Y-112396908D01*
X125124070Y-112396903D01*
X125062463Y-112371385D01*
X124988093Y-112351458D01*
X124935296Y-112337311D01*
X124920600Y-112335376D01*
X124869175Y-112328605D01*
X124869168Y-112328605D01*
X124737516Y-112328605D01*
X124737508Y-112328605D01*
X124674576Y-112336891D01*
X124671388Y-112337311D01*
X124646528Y-112343971D01*
X124576680Y-112342307D01*
X124526758Y-112311877D01*
X123418822Y-111203940D01*
X123385337Y-111142617D01*
X123386728Y-111084167D01*
X123393389Y-111059312D01*
X123402095Y-110993184D01*
X123402095Y-110861532D01*
X123393389Y-110795404D01*
X123359315Y-110668238D01*
X123333791Y-110606618D01*
X123267965Y-110492602D01*
X123227361Y-110439684D01*
X122780716Y-109993039D01*
X122727798Y-109952435D01*
X122613782Y-109886609D01*
X122613780Y-109886608D01*
X122613770Y-109886603D01*
X122552163Y-109861085D01*
X122500402Y-109847216D01*
X122424996Y-109827011D01*
X122410300Y-109825076D01*
X122358875Y-109818305D01*
X122358868Y-109818305D01*
X122227216Y-109818305D01*
X122227208Y-109818305D01*
X122168435Y-109826043D01*
X122161088Y-109827011D01*
X122161086Y-109827011D01*
X122161083Y-109827012D01*
X122136230Y-109833671D01*
X122066380Y-109832006D01*
X122016458Y-109801576D01*
X120908622Y-108693740D01*
X120875137Y-108632417D01*
X120876528Y-108573967D01*
X120883189Y-108549112D01*
X120891895Y-108482984D01*
X120891895Y-108351332D01*
X120883189Y-108285204D01*
X120849115Y-108158038D01*
X120848781Y-108157231D01*
X120823596Y-108096429D01*
X120823591Y-108096419D01*
X120823591Y-108096418D01*
X120757765Y-107982402D01*
X120717161Y-107929484D01*
X120270516Y-107482839D01*
X120265322Y-107478854D01*
X120254148Y-107470280D01*
X120217598Y-107442235D01*
X120103582Y-107376409D01*
X120103580Y-107376408D01*
X120103570Y-107376403D01*
X120041963Y-107350885D01*
X119992792Y-107337710D01*
X119914796Y-107316811D01*
X119900100Y-107314876D01*
X119848675Y-107308105D01*
X119848668Y-107308105D01*
X119717016Y-107308105D01*
X119717008Y-107308105D01*
X119658235Y-107315843D01*
X119650888Y-107316811D01*
X119650886Y-107316811D01*
X119650883Y-107316812D01*
X119626030Y-107323471D01*
X119556180Y-107321806D01*
X119506258Y-107291376D01*
X118398422Y-106183540D01*
X118364937Y-106122217D01*
X118366328Y-106063767D01*
X118372989Y-106038912D01*
X118381695Y-105972784D01*
X118381695Y-105841132D01*
X118372989Y-105775004D01*
X118338915Y-105647838D01*
X118313391Y-105586218D01*
X118247565Y-105472202D01*
X118206961Y-105419284D01*
X117760316Y-104972639D01*
X117707398Y-104932035D01*
X117593382Y-104866209D01*
X117593380Y-104866208D01*
X117593370Y-104866203D01*
X117531763Y-104840685D01*
X117489373Y-104829327D01*
X117404596Y-104806611D01*
X117389900Y-104804676D01*
X117338475Y-104797905D01*
X117338468Y-104797905D01*
X117206816Y-104797905D01*
X117206808Y-104797905D01*
X117143876Y-104806191D01*
X117140688Y-104806611D01*
X117115828Y-104813271D01*
X117045980Y-104811607D01*
X116996058Y-104781177D01*
X115888122Y-103673240D01*
X115854637Y-103611917D01*
X115856028Y-103553467D01*
X115862689Y-103528612D01*
X115871395Y-103462484D01*
X115871395Y-103330832D01*
X115862689Y-103264704D01*
X115828615Y-103137538D01*
X115803091Y-103075918D01*
X115737265Y-102961902D01*
X115696661Y-102908984D01*
X115250016Y-102462339D01*
X115197098Y-102421735D01*
X115083082Y-102355909D01*
X115083080Y-102355908D01*
X115083070Y-102355903D01*
X115021463Y-102330385D01*
X114979073Y-102319027D01*
X114894296Y-102296311D01*
X114879600Y-102294376D01*
X114828175Y-102287605D01*
X114828168Y-102287605D01*
X114696516Y-102287605D01*
X114696508Y-102287605D01*
X114637735Y-102295343D01*
X114630388Y-102296311D01*
X114630386Y-102296311D01*
X114630383Y-102296312D01*
X114605530Y-102302971D01*
X114535680Y-102301306D01*
X114485758Y-102270876D01*
X113826719Y-101611837D01*
X113793234Y-101550514D01*
X113790400Y-101524156D01*
X113790400Y-100906244D01*
X113810085Y-100839205D01*
X113826719Y-100818563D01*
X114001782Y-100643500D01*
X114202770Y-100442512D01*
X114248914Y-100362588D01*
X114272800Y-100273443D01*
X114272800Y-100181156D01*
X114272800Y-100079976D01*
X114292485Y-100012937D01*
X114345289Y-99967182D01*
X114414447Y-99957238D01*
X114478003Y-99986263D01*
G37*
%TD.AperFunction*%
%TA.AperFunction,Conductor*%
G36*
X120441595Y-109256664D02*
G01*
X120466086Y-109258416D01*
X120477270Y-109265603D01*
X120485560Y-109267681D01*
X120493261Y-109275880D01*
X120510436Y-109286918D01*
X121423281Y-110199763D01*
X121439127Y-110228783D01*
X121455881Y-110257305D01*
X121455800Y-110259317D01*
X121456766Y-110261086D01*
X121454406Y-110294075D01*
X121453082Y-110327118D01*
X121451872Y-110329507D01*
X121451782Y-110330778D01*
X121449184Y-110334820D01*
X121437145Y-110358610D01*
X121430930Y-110367477D01*
X121405270Y-110393138D01*
X121349885Y-110476028D01*
X121347915Y-110485930D01*
X121334892Y-110504513D01*
X121280805Y-110547906D01*
X121276030Y-110549883D01*
X121193135Y-110605271D01*
X120793043Y-111005363D01*
X120771503Y-111033435D01*
X120752435Y-111058286D01*
X120752434Y-111058288D01*
X120752432Y-111058290D01*
X120686608Y-111172302D01*
X120686603Y-111172312D01*
X120661090Y-111233906D01*
X120661086Y-111233919D01*
X120627010Y-111361091D01*
X120618305Y-111427208D01*
X120618305Y-111558875D01*
X120622750Y-111592634D01*
X120627011Y-111624996D01*
X120643891Y-111687993D01*
X120661085Y-111752163D01*
X120661085Y-111752164D01*
X120686603Y-111813770D01*
X120686608Y-111813780D01*
X120686609Y-111813782D01*
X120752435Y-111927798D01*
X120770379Y-111951184D01*
X120793038Y-111980715D01*
X121163781Y-112351458D01*
X121197266Y-112412781D01*
X121200100Y-112439139D01*
X121200100Y-114443713D01*
X121180415Y-114510752D01*
X121163781Y-114531394D01*
X120315542Y-115379634D01*
X120315539Y-115379637D01*
X120259725Y-115456457D01*
X120254880Y-115471370D01*
X120215442Y-115529044D01*
X120151082Y-115556241D01*
X120082236Y-115544325D01*
X120033550Y-115499640D01*
X120033459Y-115499707D01*
X120033130Y-115499254D01*
X120030761Y-115497080D01*
X120028202Y-115492472D01*
X120027723Y-115491813D01*
X120027723Y-115491812D01*
X119971911Y-115414993D01*
X119715204Y-115158288D01*
X119715200Y-115158285D01*
X119715199Y-115158284D01*
X119638386Y-115102474D01*
X119517729Y-115063270D01*
X119517728Y-115063270D01*
X119390862Y-115063270D01*
X119390860Y-115063270D01*
X119270202Y-115102475D01*
X119193386Y-115158285D01*
X119105107Y-115246564D01*
X119097160Y-115250902D01*
X119091736Y-115258149D01*
X119066976Y-115267383D01*
X119043783Y-115280048D01*
X119034754Y-115279402D01*
X119026272Y-115282566D01*
X119000451Y-115276949D01*
X118974092Y-115275064D01*
X118965038Y-115269245D01*
X118957999Y-115267714D01*
X118929745Y-115246563D01*
X118805119Y-115121937D01*
X118771634Y-115060614D01*
X118768800Y-115034256D01*
X118768800Y-114958327D01*
X118768800Y-114958325D01*
X118731284Y-114818315D01*
X118731200Y-114818170D01*
X118658811Y-114692788D01*
X118658806Y-114692782D01*
X118556317Y-114590293D01*
X118556311Y-114590288D01*
X118430788Y-114517817D01*
X118430789Y-114517817D01*
X118404422Y-114510752D01*
X118290775Y-114480300D01*
X118145825Y-114480300D01*
X118032178Y-114510752D01*
X118005811Y-114517817D01*
X117880288Y-114590288D01*
X117880282Y-114590293D01*
X117777793Y-114692782D01*
X117777788Y-114692788D01*
X117705317Y-114818311D01*
X117705316Y-114818315D01*
X117667800Y-114958325D01*
X117667800Y-115103275D01*
X117702102Y-115231289D01*
X117700439Y-115301139D01*
X117661277Y-115359002D01*
X117597048Y-115386506D01*
X117528146Y-115374920D01*
X117494646Y-115351064D01*
X117186935Y-115043353D01*
X117153450Y-114982030D01*
X117158434Y-114912338D01*
X117186931Y-114867996D01*
X118045012Y-114009914D01*
X118100826Y-113933094D01*
X118140030Y-113812438D01*
X118140030Y-113685572D01*
X118100826Y-113564915D01*
X118045014Y-113488096D01*
X117788307Y-113231391D01*
X117788303Y-113231388D01*
X117788302Y-113231387D01*
X117703592Y-113169840D01*
X117704795Y-113168183D01*
X117663158Y-113128857D01*
X117646364Y-113061036D01*
X117668903Y-112994901D01*
X117723619Y-112951451D01*
X117731910Y-112948425D01*
X117746843Y-112943574D01*
X117802087Y-112903438D01*
X117823659Y-112887765D01*
X117823659Y-112887764D01*
X117823663Y-112887762D01*
X118699086Y-112012337D01*
X118754900Y-111935517D01*
X118794104Y-111814861D01*
X118794104Y-111687995D01*
X118754900Y-111567338D01*
X118699088Y-111490519D01*
X118442381Y-111233814D01*
X118442377Y-111233811D01*
X118442376Y-111233810D01*
X118365562Y-111178000D01*
X118308281Y-111159388D01*
X118250606Y-111119950D01*
X118223408Y-111055591D01*
X118222600Y-111041457D01*
X118222600Y-110524443D01*
X118242285Y-110457404D01*
X118258915Y-110436766D01*
X118686921Y-110008759D01*
X118748242Y-109975276D01*
X118817933Y-109980260D01*
X118836593Y-109989052D01*
X118896418Y-110023591D01*
X118896423Y-110023593D01*
X118896429Y-110023596D01*
X118940854Y-110041997D01*
X118958038Y-110049115D01*
X119085204Y-110083189D01*
X119151332Y-110091895D01*
X119151339Y-110091895D01*
X119282977Y-110091895D01*
X119282984Y-110091895D01*
X119349112Y-110083189D01*
X119476278Y-110049115D01*
X119476290Y-110049109D01*
X119476293Y-110049109D01*
X119537887Y-110023596D01*
X119537887Y-110023595D01*
X119537899Y-110023591D01*
X119651914Y-109957765D01*
X119704831Y-109917161D01*
X120104930Y-109517062D01*
X120160315Y-109434172D01*
X120160315Y-109434167D01*
X120162288Y-109429407D01*
X120205686Y-109375307D01*
X120224266Y-109362285D01*
X120234172Y-109360315D01*
X120317062Y-109304930D01*
X120342727Y-109279264D01*
X120351589Y-109273054D01*
X120374846Y-109265199D01*
X120396394Y-109253433D01*
X120407366Y-109254217D01*
X120417786Y-109250699D01*
X120441595Y-109256664D01*
G37*
%TD.AperFunction*%
%TA.AperFunction,Conductor*%
G36*
X117931395Y-106746464D02*
G01*
X117955886Y-106748216D01*
X117967070Y-106755403D01*
X117975360Y-106757481D01*
X117983061Y-106765680D01*
X118000236Y-106776718D01*
X118913081Y-107689563D01*
X118928927Y-107718583D01*
X118945681Y-107747105D01*
X118945600Y-107749117D01*
X118946566Y-107750886D01*
X118944206Y-107783875D01*
X118942882Y-107816918D01*
X118941672Y-107819307D01*
X118941582Y-107820578D01*
X118938984Y-107824620D01*
X118926945Y-107848410D01*
X118920730Y-107857277D01*
X118895070Y-107882938D01*
X118839685Y-107965828D01*
X118837715Y-107975730D01*
X118824692Y-107994313D01*
X118770605Y-108037706D01*
X118765830Y-108039683D01*
X118682935Y-108095071D01*
X118282843Y-108495163D01*
X118266864Y-108515988D01*
X118242235Y-108548086D01*
X118242234Y-108548088D01*
X118242232Y-108548090D01*
X118176408Y-108662102D01*
X118176403Y-108662112D01*
X118150890Y-108723706D01*
X118150886Y-108723719D01*
X118116810Y-108850891D01*
X118108105Y-108917008D01*
X118108105Y-109048675D01*
X118114876Y-109100100D01*
X118116811Y-109114796D01*
X118139437Y-109199237D01*
X118150885Y-109241963D01*
X118150885Y-109241964D01*
X118176403Y-109303570D01*
X118176408Y-109303580D01*
X118210944Y-109363399D01*
X118227415Y-109431299D01*
X118204563Y-109497326D01*
X118191237Y-109513079D01*
X117591631Y-110112686D01*
X117591627Y-110112691D01*
X117563506Y-110161400D01*
X117563506Y-110161401D01*
X117545486Y-110192611D01*
X117521600Y-110281756D01*
X117521600Y-111581413D01*
X117501915Y-111648452D01*
X117485281Y-111669094D01*
X117249009Y-111905365D01*
X117187686Y-111938850D01*
X117117994Y-111933866D01*
X117073647Y-111905365D01*
X116627613Y-111459331D01*
X116627608Y-111459327D01*
X116547690Y-111413187D01*
X116547689Y-111413186D01*
X116547688Y-111413186D01*
X116458544Y-111389300D01*
X115970244Y-111389300D01*
X115877956Y-111389300D01*
X115795569Y-111411375D01*
X115763479Y-111415600D01*
X114397989Y-111415600D01*
X114330950Y-111395915D01*
X114285195Y-111343111D01*
X114275251Y-111273953D01*
X114304276Y-111210397D01*
X114310308Y-111203919D01*
X114394277Y-111119950D01*
X114774712Y-110739514D01*
X114830526Y-110662694D01*
X114869730Y-110542038D01*
X114869730Y-110415172D01*
X114830526Y-110294515D01*
X114830206Y-110294075D01*
X114774716Y-110217699D01*
X114774714Y-110217696D01*
X114518007Y-109960991D01*
X114518003Y-109960988D01*
X114518002Y-109960987D01*
X114433292Y-109899440D01*
X114434495Y-109897783D01*
X114392858Y-109858457D01*
X114376064Y-109790636D01*
X114398603Y-109724501D01*
X114453319Y-109681051D01*
X114461610Y-109678025D01*
X114476543Y-109673174D01*
X114553363Y-109617362D01*
X115428786Y-108741937D01*
X115484600Y-108665117D01*
X115523804Y-108544461D01*
X115523804Y-108417595D01*
X115484600Y-108296938D01*
X115484598Y-108296935D01*
X115482022Y-108289007D01*
X115480027Y-108219166D01*
X115512269Y-108163011D01*
X116176720Y-107498559D01*
X116238041Y-107465076D01*
X116307733Y-107470060D01*
X116326393Y-107478851D01*
X116386218Y-107513391D01*
X116386223Y-107513393D01*
X116386229Y-107513396D01*
X116430654Y-107531797D01*
X116447838Y-107538915D01*
X116575004Y-107572989D01*
X116641132Y-107581695D01*
X116641139Y-107581695D01*
X116772777Y-107581695D01*
X116772784Y-107581695D01*
X116838912Y-107572989D01*
X116966078Y-107538915D01*
X116966090Y-107538909D01*
X116966093Y-107538909D01*
X117027687Y-107513396D01*
X117027687Y-107513395D01*
X117027699Y-107513391D01*
X117141714Y-107447565D01*
X117194631Y-107406961D01*
X117594730Y-107006862D01*
X117650115Y-106923972D01*
X117650115Y-106923967D01*
X117652088Y-106919207D01*
X117695486Y-106865107D01*
X117714066Y-106852085D01*
X117723972Y-106850115D01*
X117806862Y-106794730D01*
X117832527Y-106769064D01*
X117841389Y-106762854D01*
X117864646Y-106754999D01*
X117886194Y-106743233D01*
X117897166Y-106744017D01*
X117907586Y-106740499D01*
X117931395Y-106746464D01*
G37*
%TD.AperFunction*%
%TA.AperFunction,Conductor*%
G36*
X109698387Y-107793985D02*
G01*
X109744142Y-107846789D01*
X109751620Y-107881167D01*
X109753822Y-107880819D01*
X109755348Y-107890457D01*
X109768029Y-107929484D01*
X109789093Y-107994313D01*
X109794552Y-108011112D01*
X109794553Y-108011115D01*
X109849832Y-108087200D01*
X109850364Y-108087932D01*
X110107071Y-108344637D01*
X110183890Y-108400451D01*
X110236654Y-108417595D01*
X110242421Y-108419469D01*
X110300097Y-108458907D01*
X110327295Y-108523265D01*
X110315380Y-108592112D01*
X110268136Y-108643587D01*
X110204103Y-108661400D01*
X108592328Y-108661400D01*
X108525289Y-108641715D01*
X108504647Y-108625081D01*
X108395551Y-108515985D01*
X108361974Y-108490949D01*
X108340357Y-108474830D01*
X108340355Y-108474829D01*
X108340350Y-108474826D01*
X108229721Y-108436848D01*
X108229719Y-108436848D01*
X108112743Y-108436848D01*
X108112741Y-108436848D01*
X108002111Y-108474826D01*
X108002106Y-108474829D01*
X107946910Y-108515985D01*
X107592277Y-108870618D01*
X107548910Y-108928780D01*
X107493055Y-108970758D01*
X107423373Y-108975874D01*
X107361987Y-108942505D01*
X106592798Y-108173316D01*
X106559313Y-108111993D01*
X106564297Y-108042301D01*
X106606169Y-107986368D01*
X106640215Y-107968355D01*
X106662287Y-107960778D01*
X106717484Y-107919620D01*
X106826485Y-107810619D01*
X106887808Y-107777134D01*
X106914166Y-107774300D01*
X109631348Y-107774300D01*
X109698387Y-107793985D01*
G37*
%TD.AperFunction*%
%TA.AperFunction,Conductor*%
G36*
X115421094Y-104236163D02*
G01*
X115445583Y-104237914D01*
X115456769Y-104245102D01*
X115465060Y-104247180D01*
X115472762Y-104255380D01*
X115489936Y-104266417D01*
X116402882Y-105179363D01*
X116436367Y-105240686D01*
X116431383Y-105310378D01*
X116402884Y-105354723D01*
X116384873Y-105372734D01*
X116384866Y-105372743D01*
X116329485Y-105455626D01*
X116327506Y-105460405D01*
X116283663Y-105514806D01*
X116260405Y-105527506D01*
X116255630Y-105529483D01*
X116172735Y-105584871D01*
X115772643Y-105984963D01*
X115762967Y-105997574D01*
X115732035Y-106037886D01*
X115732034Y-106037888D01*
X115732032Y-106037890D01*
X115666208Y-106151902D01*
X115666203Y-106151912D01*
X115640690Y-106213506D01*
X115640686Y-106213519D01*
X115606610Y-106340691D01*
X115597905Y-106406808D01*
X115597905Y-106538475D01*
X115604676Y-106589900D01*
X115606611Y-106604596D01*
X115623495Y-106667609D01*
X115640685Y-106731763D01*
X115640685Y-106731764D01*
X115666203Y-106793370D01*
X115666212Y-106793387D01*
X115700744Y-106853201D01*
X115717215Y-106921101D01*
X115694362Y-106987128D01*
X115681037Y-107002880D01*
X114821065Y-107862851D01*
X114771705Y-107893100D01*
X114727086Y-107907598D01*
X114727081Y-107907601D01*
X114650264Y-107963411D01*
X114650261Y-107963413D01*
X113991009Y-108622665D01*
X113929686Y-108656150D01*
X113859994Y-108651166D01*
X113815647Y-108622665D01*
X113350213Y-108157231D01*
X113350208Y-108157227D01*
X113270290Y-108111087D01*
X113270289Y-108111086D01*
X113270288Y-108111086D01*
X113181144Y-108087200D01*
X113181143Y-108087200D01*
X112831536Y-108087200D01*
X112764497Y-108067515D01*
X112718742Y-108014711D01*
X112711761Y-107995294D01*
X112688884Y-107909915D01*
X112687547Y-107907600D01*
X112616411Y-107784388D01*
X112616406Y-107784382D01*
X112562719Y-107730695D01*
X112529234Y-107669372D01*
X112526400Y-107643014D01*
X112526400Y-107463158D01*
X112526400Y-107463156D01*
X112502514Y-107374012D01*
X112456370Y-107294088D01*
X111483833Y-106321551D01*
X111450348Y-106260228D01*
X111455332Y-106190536D01*
X111483831Y-106146191D01*
X112158386Y-105471637D01*
X112214200Y-105394817D01*
X112253404Y-105274161D01*
X112253404Y-105147295D01*
X112253404Y-105145139D01*
X112273089Y-105078100D01*
X112289723Y-105057458D01*
X112549277Y-104797905D01*
X112821263Y-104525919D01*
X112882586Y-104492434D01*
X112908944Y-104489600D01*
X113250561Y-104489600D01*
X113317600Y-104509285D01*
X113338242Y-104525919D01*
X113708984Y-104896661D01*
X113761902Y-104937265D01*
X113875918Y-105003091D01*
X113875923Y-105003093D01*
X113875929Y-105003096D01*
X113920354Y-105021497D01*
X113937538Y-105028615D01*
X114064704Y-105062689D01*
X114130832Y-105071395D01*
X114130839Y-105071395D01*
X114262477Y-105071395D01*
X114262484Y-105071395D01*
X114328612Y-105062689D01*
X114455778Y-105028615D01*
X114455790Y-105028609D01*
X114455793Y-105028609D01*
X114517387Y-105003096D01*
X114517387Y-105003095D01*
X114517399Y-105003091D01*
X114631414Y-104937265D01*
X114684331Y-104896661D01*
X115084430Y-104496562D01*
X115139815Y-104413672D01*
X115139815Y-104413667D01*
X115141788Y-104408907D01*
X115185186Y-104354807D01*
X115203766Y-104341785D01*
X115213672Y-104339815D01*
X115296562Y-104284430D01*
X115322230Y-104258761D01*
X115331089Y-104252553D01*
X115354346Y-104244698D01*
X115375891Y-104232933D01*
X115386864Y-104233717D01*
X115397285Y-104230198D01*
X115421094Y-104236163D01*
G37*
%TD.AperFunction*%
%TA.AperFunction,Conductor*%
G36*
X111814154Y-103625244D02*
G01*
X111844141Y-103631768D01*
X111849156Y-103635522D01*
X111851753Y-103636285D01*
X111872395Y-103652919D01*
X111924185Y-103704709D01*
X111924186Y-103704710D01*
X111924188Y-103704711D01*
X112049711Y-103777182D01*
X112049712Y-103777182D01*
X112049715Y-103777184D01*
X112189725Y-103814700D01*
X112189728Y-103814700D01*
X112241756Y-103814700D01*
X112308795Y-103834385D01*
X112354550Y-103887189D01*
X112364494Y-103956347D01*
X112335469Y-104019903D01*
X112329440Y-104026377D01*
X112016002Y-104339815D01*
X111794040Y-104561777D01*
X111732717Y-104595262D01*
X111706359Y-104598096D01*
X111577337Y-104598096D01*
X111456679Y-104637301D01*
X111379866Y-104693108D01*
X110723909Y-105349065D01*
X110662586Y-105382550D01*
X110592894Y-105377566D01*
X110548547Y-105349065D01*
X109166313Y-103966831D01*
X109166308Y-103966827D01*
X109086390Y-103920687D01*
X109086389Y-103920686D01*
X109086388Y-103920686D01*
X108997244Y-103896800D01*
X108997243Y-103896800D01*
X108426276Y-103896800D01*
X108359237Y-103877115D01*
X108313482Y-103824311D01*
X108308345Y-103811117D01*
X108297883Y-103778917D01*
X108295888Y-103709076D01*
X108331969Y-103649243D01*
X108394671Y-103618416D01*
X108415814Y-103616600D01*
X111784714Y-103616600D01*
X111814154Y-103625244D01*
G37*
%TD.AperFunction*%
%TA.AperFunction,Conductor*%
G36*
X113008733Y-101654372D02*
G01*
X113064667Y-101696243D01*
X113088009Y-101758827D01*
X113088339Y-101758784D01*
X113088527Y-101760214D01*
X113089084Y-101761707D01*
X113089218Y-101765460D01*
X113089400Y-101766845D01*
X113108489Y-101838088D01*
X113113285Y-101855986D01*
X113113287Y-101855991D01*
X113159427Y-101935908D01*
X113159431Y-101935913D01*
X113892581Y-102669063D01*
X113926066Y-102730386D01*
X113921082Y-102800078D01*
X113906445Y-102827910D01*
X113900230Y-102836777D01*
X113874570Y-102862438D01*
X113819185Y-102945328D01*
X113817215Y-102955230D01*
X113804192Y-102973813D01*
X113787094Y-102987467D01*
X113773363Y-103004506D01*
X113750105Y-103017206D01*
X113745330Y-103019183D01*
X113662435Y-103074571D01*
X113262343Y-103474663D01*
X113252613Y-103487344D01*
X113221735Y-103527586D01*
X113221734Y-103527588D01*
X113221732Y-103527590D01*
X113155908Y-103641602D01*
X113155903Y-103641612D01*
X113130386Y-103703215D01*
X113129968Y-103704450D01*
X113129743Y-103704769D01*
X113128831Y-103706972D01*
X113128338Y-103706767D01*
X113116202Y-103724029D01*
X113106259Y-103745803D01*
X113096473Y-103752091D01*
X113089784Y-103761607D01*
X113067616Y-103770636D01*
X113047481Y-103783577D01*
X113029503Y-103786161D01*
X113025077Y-103787965D01*
X113012546Y-103788600D01*
X112809874Y-103788600D01*
X112742835Y-103768915D01*
X112697080Y-103716111D01*
X112687136Y-103646953D01*
X112702487Y-103602600D01*
X112749813Y-103520628D01*
X112775184Y-103476685D01*
X112812700Y-103336675D01*
X112812700Y-103191725D01*
X112775184Y-103051715D01*
X112759661Y-103024829D01*
X112702711Y-102926188D01*
X112702706Y-102926182D01*
X112600217Y-102823693D01*
X112600211Y-102823688D01*
X112474688Y-102751217D01*
X112474689Y-102751217D01*
X112444530Y-102743136D01*
X112334675Y-102713700D01*
X112189725Y-102713700D01*
X112079870Y-102743136D01*
X112049711Y-102751217D01*
X111924188Y-102823688D01*
X111924182Y-102823693D01*
X111868595Y-102879281D01*
X111807272Y-102912766D01*
X111780914Y-102915600D01*
X108472986Y-102915600D01*
X108451740Y-102909361D01*
X108429652Y-102907782D01*
X108418868Y-102899709D01*
X108405947Y-102895915D01*
X108391447Y-102879181D01*
X108373719Y-102865910D01*
X108369011Y-102853289D01*
X108360192Y-102843111D01*
X108357040Y-102821193D01*
X108349302Y-102800446D01*
X108352164Y-102787285D01*
X108350248Y-102773953D01*
X108359447Y-102753809D01*
X108364154Y-102732173D01*
X108377422Y-102714447D01*
X108379273Y-102710397D01*
X108385305Y-102703919D01*
X108452705Y-102636519D01*
X108514028Y-102603034D01*
X108540386Y-102600200D01*
X110935042Y-102600200D01*
X110935044Y-102600200D01*
X111024188Y-102576314D01*
X111104112Y-102530170D01*
X111156219Y-102478063D01*
X111217542Y-102444577D01*
X111287234Y-102449561D01*
X111305898Y-102458354D01*
X111332744Y-102473854D01*
X111365714Y-102492889D01*
X111365729Y-102492896D01*
X111372289Y-102495613D01*
X111427338Y-102518415D01*
X111554504Y-102552489D01*
X111620632Y-102561195D01*
X111620639Y-102561195D01*
X111752277Y-102561195D01*
X111752284Y-102561195D01*
X111818412Y-102552489D01*
X111945578Y-102518415D01*
X111945590Y-102518409D01*
X111945593Y-102518409D01*
X112007187Y-102492896D01*
X112007187Y-102492895D01*
X112007199Y-102492891D01*
X112121214Y-102427065D01*
X112174131Y-102386461D01*
X112574230Y-101986362D01*
X112629615Y-101903472D01*
X112629615Y-101903467D01*
X112631588Y-101898707D01*
X112675426Y-101844300D01*
X112698707Y-101831588D01*
X112703467Y-101829615D01*
X112703472Y-101829615D01*
X112786362Y-101774230D01*
X112877720Y-101682871D01*
X112939041Y-101649388D01*
X113008733Y-101654372D01*
G37*
%TD.AperFunction*%
%TA.AperFunction,Conductor*%
G36*
X111429084Y-100074885D02*
G01*
X111474839Y-100127689D01*
X111484783Y-100196847D01*
X111455758Y-100260403D01*
X111449726Y-100266881D01*
X111364372Y-100352234D01*
X111364371Y-100352235D01*
X111308983Y-100435130D01*
X111307006Y-100439905D01*
X111263163Y-100494306D01*
X111239905Y-100507006D01*
X111235130Y-100508983D01*
X111152235Y-100564371D01*
X110752143Y-100964463D01*
X110730603Y-100992535D01*
X110711535Y-101017386D01*
X110711534Y-101017388D01*
X110711532Y-101017390D01*
X110645708Y-101131402D01*
X110645703Y-101131412D01*
X110620190Y-101193006D01*
X110620186Y-101193019D01*
X110620185Y-101193022D01*
X110603148Y-101256605D01*
X110586110Y-101320191D01*
X110577405Y-101386308D01*
X110577405Y-101517975D01*
X110583171Y-101561764D01*
X110586111Y-101584096D01*
X110599208Y-101632974D01*
X110620185Y-101711263D01*
X110627014Y-101727750D01*
X110634481Y-101797220D01*
X110603205Y-101859698D01*
X110543115Y-101895349D01*
X110512452Y-101899200D01*
X109080343Y-101899200D01*
X109013304Y-101879515D01*
X108967549Y-101826711D01*
X108962412Y-101813519D01*
X108949646Y-101774230D01*
X108943800Y-101756238D01*
X108929361Y-101736365D01*
X108911123Y-101711262D01*
X108887988Y-101679419D01*
X108631281Y-101422714D01*
X108631277Y-101422711D01*
X108631276Y-101422710D01*
X108554463Y-101366900D01*
X108433806Y-101327696D01*
X108433805Y-101327696D01*
X108306939Y-101327696D01*
X108306937Y-101327696D01*
X108186279Y-101366901D01*
X108109466Y-101422708D01*
X108109461Y-101422713D01*
X107234042Y-102298134D01*
X107234039Y-102298137D01*
X107178225Y-102374957D01*
X107173380Y-102389870D01*
X107133942Y-102447544D01*
X107069582Y-102474741D01*
X107000736Y-102462825D01*
X106952050Y-102418140D01*
X106951959Y-102418207D01*
X106951630Y-102417754D01*
X106949261Y-102415580D01*
X106946702Y-102410972D01*
X106946223Y-102410313D01*
X106946223Y-102410312D01*
X106890411Y-102333493D01*
X106633704Y-102076788D01*
X106633700Y-102076785D01*
X106633699Y-102076784D01*
X106556886Y-102020974D01*
X106436229Y-101981770D01*
X106436228Y-101981770D01*
X106309362Y-101981770D01*
X106309360Y-101981770D01*
X106188702Y-102020975D01*
X106111886Y-102076785D01*
X105966447Y-102222224D01*
X105905124Y-102255708D01*
X105846675Y-102254317D01*
X105797347Y-102241100D01*
X105797344Y-102241100D01*
X105332786Y-102241100D01*
X105265747Y-102221415D01*
X105245105Y-102204781D01*
X105191417Y-102151093D01*
X105191411Y-102151088D01*
X105065888Y-102078617D01*
X105065889Y-102078617D01*
X105054406Y-102075540D01*
X104925875Y-102041100D01*
X104780925Y-102041100D01*
X104652393Y-102075540D01*
X104640911Y-102078617D01*
X104515388Y-102151088D01*
X104515382Y-102151093D01*
X104412893Y-102253582D01*
X104412888Y-102253588D01*
X104401221Y-102273796D01*
X104350651Y-102322010D01*
X104282044Y-102335230D01*
X104217180Y-102309259D01*
X104206155Y-102299473D01*
X103823013Y-101916331D01*
X103823008Y-101916327D01*
X103743090Y-101870187D01*
X103743089Y-101870186D01*
X103743088Y-101870186D01*
X103653944Y-101846300D01*
X103653943Y-101846300D01*
X101916239Y-101846300D01*
X101849200Y-101826615D01*
X101840750Y-101820674D01*
X101837512Y-101818189D01*
X101711988Y-101745717D01*
X101711989Y-101745717D01*
X101683293Y-101738028D01*
X101571975Y-101708200D01*
X101427025Y-101708200D01*
X101315706Y-101738027D01*
X101245858Y-101736365D01*
X101187995Y-101697203D01*
X101160491Y-101632974D01*
X101164251Y-101597858D01*
X101161461Y-101597393D01*
X101163152Y-101587258D01*
X101163152Y-101470279D01*
X101163151Y-101470277D01*
X101125173Y-101359649D01*
X101125170Y-101359644D01*
X101125170Y-101359643D01*
X101100704Y-101326832D01*
X101084014Y-101304448D01*
X100999819Y-101220253D01*
X100966334Y-101158930D01*
X100963500Y-101132572D01*
X100963500Y-100821544D01*
X100983185Y-100754505D01*
X100999819Y-100733863D01*
X101642163Y-100091519D01*
X101703486Y-100058034D01*
X101729844Y-100055200D01*
X111362045Y-100055200D01*
X111429084Y-100074885D01*
G37*
%TD.AperFunction*%
%TA.AperFunction,Conductor*%
G36*
X93464253Y-93720185D02*
G01*
X93510008Y-93772989D01*
X93519952Y-93842147D01*
X93497532Y-93897386D01*
X93478768Y-93923211D01*
X93400128Y-94077552D01*
X93346597Y-94242302D01*
X93331933Y-94334890D01*
X93319500Y-94413389D01*
X93319500Y-94586611D01*
X93346598Y-94757701D01*
X93400127Y-94922445D01*
X93478768Y-95076788D01*
X93580586Y-95216928D01*
X93703072Y-95339414D01*
X93843212Y-95441232D01*
X93997555Y-95519873D01*
X94162299Y-95573402D01*
X94333389Y-95600500D01*
X94333390Y-95600500D01*
X94506610Y-95600500D01*
X94506611Y-95600500D01*
X94677701Y-95573402D01*
X94842445Y-95519873D01*
X94996788Y-95441232D01*
X95136928Y-95339414D01*
X95259414Y-95216928D01*
X95361232Y-95076788D01*
X95439873Y-94922445D01*
X95493402Y-94757701D01*
X95520500Y-94586611D01*
X95520500Y-94413389D01*
X95493402Y-94242299D01*
X95439873Y-94077555D01*
X95361232Y-93923212D01*
X95342467Y-93897385D01*
X95318988Y-93831580D01*
X95334813Y-93763526D01*
X95384919Y-93714831D01*
X95442786Y-93700500D01*
X95937214Y-93700500D01*
X96004253Y-93720185D01*
X96050008Y-93772989D01*
X96059952Y-93842147D01*
X96037532Y-93897386D01*
X96018768Y-93923211D01*
X95940128Y-94077552D01*
X95886597Y-94242302D01*
X95871933Y-94334890D01*
X95859500Y-94413389D01*
X95859500Y-94586611D01*
X95886598Y-94757701D01*
X95940127Y-94922445D01*
X96018768Y-95076788D01*
X96120586Y-95216928D01*
X96243072Y-95339414D01*
X96383212Y-95441232D01*
X96537555Y-95519873D01*
X96702299Y-95573402D01*
X96873389Y-95600500D01*
X96873390Y-95600500D01*
X97046610Y-95600500D01*
X97046611Y-95600500D01*
X97217701Y-95573402D01*
X97382445Y-95519873D01*
X97536788Y-95441232D01*
X97676928Y-95339414D01*
X97799414Y-95216928D01*
X97901232Y-95076788D01*
X97979873Y-94922445D01*
X98033402Y-94757701D01*
X98060500Y-94586611D01*
X98060500Y-94413389D01*
X98033402Y-94242299D01*
X97979873Y-94077555D01*
X97901232Y-93923212D01*
X97882467Y-93897385D01*
X97858988Y-93831580D01*
X97874813Y-93763526D01*
X97924919Y-93714831D01*
X97982786Y-93700500D01*
X98477214Y-93700500D01*
X98544253Y-93720185D01*
X98590008Y-93772989D01*
X98599952Y-93842147D01*
X98577532Y-93897386D01*
X98558768Y-93923211D01*
X98480128Y-94077552D01*
X98426597Y-94242302D01*
X98411933Y-94334890D01*
X98399500Y-94413389D01*
X98399500Y-94586611D01*
X98426598Y-94757701D01*
X98480127Y-94922445D01*
X98558768Y-95076788D01*
X98660586Y-95216928D01*
X98783072Y-95339414D01*
X98923212Y-95441232D01*
X99077555Y-95519873D01*
X99242299Y-95573402D01*
X99413389Y-95600500D01*
X99413390Y-95600500D01*
X99586610Y-95600500D01*
X99586611Y-95600500D01*
X99757701Y-95573402D01*
X99922445Y-95519873D01*
X99922447Y-95519871D01*
X99926971Y-95518402D01*
X99996812Y-95516407D01*
X100052970Y-95548652D01*
X101799437Y-97295119D01*
X101832922Y-97356442D01*
X101827938Y-97426134D01*
X101786066Y-97482067D01*
X101720602Y-97506484D01*
X101711756Y-97506800D01*
X100805843Y-97506800D01*
X100738804Y-97487115D01*
X100718162Y-97470481D01*
X100716214Y-97468533D01*
X100716212Y-97468531D01*
X100716209Y-97468529D01*
X100716205Y-97468526D01*
X100636293Y-97422388D01*
X100636290Y-97422387D01*
X100636289Y-97422386D01*
X100636288Y-97422386D01*
X100547144Y-97398500D01*
X98945144Y-97398500D01*
X98852856Y-97398500D01*
X98763712Y-97422386D01*
X98763711Y-97422386D01*
X98763709Y-97422387D01*
X98763706Y-97422388D01*
X98683794Y-97468526D01*
X98683785Y-97468533D01*
X98681838Y-97470481D01*
X98679791Y-97471598D01*
X98677342Y-97473478D01*
X98677048Y-97473096D01*
X98620515Y-97503966D01*
X98594157Y-97506800D01*
X98446144Y-97506800D01*
X98353856Y-97506800D01*
X98264712Y-97530686D01*
X98264711Y-97530686D01*
X98264709Y-97530687D01*
X98264706Y-97530688D01*
X98184794Y-97576826D01*
X98184785Y-97576833D01*
X98119533Y-97642085D01*
X98119528Y-97642091D01*
X98073389Y-97722006D01*
X98073386Y-97722012D01*
X98073385Y-97722015D01*
X98072998Y-97722952D01*
X98072453Y-97723627D01*
X98069323Y-97729050D01*
X98068477Y-97728561D01*
X98065195Y-97732634D01*
X98061468Y-97744496D01*
X98043685Y-97759326D01*
X98029157Y-97777355D01*
X98016059Y-97782366D01*
X98007810Y-97789246D01*
X97986525Y-97793666D01*
X97973764Y-97798549D01*
X97966129Y-97799500D01*
X97875326Y-97799500D01*
X97802260Y-97814034D01*
X97791445Y-97821259D01*
X97765328Y-97824513D01*
X97746725Y-97821478D01*
X97727983Y-97823494D01*
X97702548Y-97816025D01*
X97697740Y-97814033D01*
X97624676Y-97799500D01*
X97624674Y-97799500D01*
X96575326Y-97799500D01*
X96575323Y-97799500D01*
X96502264Y-97814032D01*
X96502260Y-97814033D01*
X96419399Y-97869399D01*
X96364033Y-97952260D01*
X96364032Y-97952264D01*
X96349500Y-98025321D01*
X96349500Y-98056156D01*
X96329815Y-98123195D01*
X96277011Y-98168950D01*
X96207853Y-98178894D01*
X96144297Y-98149869D01*
X96137819Y-98143837D01*
X95937019Y-97943037D01*
X95922315Y-97916109D01*
X95905723Y-97890291D01*
X95904831Y-97884090D01*
X95903534Y-97881714D01*
X95900700Y-97855356D01*
X95900700Y-97798286D01*
X95920385Y-97731247D01*
X95937019Y-97710605D01*
X95990709Y-97656915D01*
X96063184Y-97531385D01*
X96100700Y-97391375D01*
X96100700Y-97246425D01*
X96063184Y-97106415D01*
X95990709Y-96980885D01*
X95888215Y-96878391D01*
X95888213Y-96878390D01*
X95888211Y-96878388D01*
X95762688Y-96805917D01*
X95762689Y-96805917D01*
X95751206Y-96802840D01*
X95622675Y-96768400D01*
X95477725Y-96768400D01*
X95349193Y-96802840D01*
X95337711Y-96805917D01*
X95212188Y-96878388D01*
X95212182Y-96878393D01*
X95109693Y-96980882D01*
X95109688Y-96980888D01*
X95037217Y-97106411D01*
X95037216Y-97106415D01*
X94999700Y-97246425D01*
X94999700Y-97391375D01*
X95037029Y-97530686D01*
X95037217Y-97531388D01*
X95109688Y-97656911D01*
X95109693Y-97656917D01*
X95163381Y-97710605D01*
X95196866Y-97771928D01*
X95199700Y-97798286D01*
X95199700Y-98098043D01*
X95222699Y-98183878D01*
X95222712Y-98183924D01*
X95223586Y-98187188D01*
X95223588Y-98187192D01*
X95269725Y-98267105D01*
X95269729Y-98267110D01*
X95269730Y-98267112D01*
X96083088Y-99080470D01*
X96163012Y-99126614D01*
X96252156Y-99150500D01*
X96252159Y-99150500D01*
X96257593Y-99151956D01*
X96317254Y-99188321D01*
X96347783Y-99251167D01*
X96349500Y-99271731D01*
X96349500Y-99574678D01*
X96366416Y-99659719D01*
X96365135Y-99659973D01*
X96367254Y-99679672D01*
X96371924Y-99712147D01*
X96370971Y-99714232D01*
X96371217Y-99716512D01*
X96356531Y-99745852D01*
X96342899Y-99775703D01*
X96340969Y-99776942D01*
X96339944Y-99778992D01*
X96311730Y-99795733D01*
X96284121Y-99813477D01*
X96281095Y-99813911D01*
X96279857Y-99814647D01*
X96249186Y-99818500D01*
X96061644Y-99818500D01*
X95994605Y-99798815D01*
X95973963Y-99782181D01*
X91988201Y-95796419D01*
X91954716Y-95735096D01*
X91959700Y-95665404D01*
X92001572Y-95609471D01*
X92056484Y-95586265D01*
X92095795Y-95580039D01*
X92137695Y-95573403D01*
X92137695Y-95573402D01*
X92137700Y-95573402D01*
X92302444Y-95519873D01*
X92456787Y-95441232D01*
X92596927Y-95339414D01*
X92719413Y-95216928D01*
X92821231Y-95076788D01*
X92899872Y-94922445D01*
X92953401Y-94757701D01*
X92980499Y-94586611D01*
X92980499Y-94413389D01*
X92953401Y-94242299D01*
X92899872Y-94077555D01*
X92821231Y-93923212D01*
X92802466Y-93897385D01*
X92778987Y-93831580D01*
X92794812Y-93763526D01*
X92844918Y-93714831D01*
X92902785Y-93700500D01*
X93397214Y-93700500D01*
X93464253Y-93720185D01*
G37*
%TD.AperFunction*%
%TA.AperFunction,Conductor*%
G36*
X111986895Y-98227485D02*
G01*
X112007537Y-98244119D01*
X112905938Y-99142519D01*
X112939423Y-99203842D01*
X112934439Y-99273533D01*
X112892567Y-99329467D01*
X112827103Y-99353884D01*
X112818257Y-99354200D01*
X101487156Y-99354200D01*
X101398012Y-99378086D01*
X101398009Y-99378087D01*
X101318091Y-99424227D01*
X101318086Y-99424231D01*
X101144987Y-99597330D01*
X101139964Y-99600072D01*
X101136783Y-99604830D01*
X101109635Y-99616633D01*
X101083664Y-99630815D01*
X101077956Y-99630406D01*
X101072708Y-99632689D01*
X101043491Y-99627942D01*
X101013972Y-99625831D01*
X101009391Y-99622401D01*
X101003743Y-99621484D01*
X100981729Y-99601694D01*
X100958039Y-99583959D01*
X100954927Y-99577599D01*
X100951783Y-99574772D01*
X100941274Y-99550410D01*
X100940982Y-99550532D01*
X100940899Y-99550335D01*
X100940824Y-99550366D01*
X100940712Y-99550090D01*
X100940346Y-99549007D01*
X100938137Y-99543706D01*
X100937923Y-99543184D01*
X100910129Y-99495043D01*
X100910127Y-99495039D01*
X100888929Y-99458319D01*
X100888511Y-99457582D01*
X100888483Y-99457545D01*
X100853009Y-99422072D01*
X100853003Y-99422066D01*
X100486814Y-99055835D01*
X100453332Y-98994510D01*
X100450500Y-98968159D01*
X100450500Y-98331800D01*
X100470185Y-98264761D01*
X100522989Y-98219006D01*
X100574500Y-98207800D01*
X111919856Y-98207800D01*
X111986895Y-98227485D01*
G37*
%TD.AperFunction*%
%TA.AperFunction,Conductor*%
G36*
X101084253Y-93720185D02*
G01*
X101130008Y-93772989D01*
X101139952Y-93842147D01*
X101117532Y-93897386D01*
X101098768Y-93923211D01*
X101020128Y-94077552D01*
X100966597Y-94242302D01*
X100951933Y-94334890D01*
X100939500Y-94413389D01*
X100939500Y-94586611D01*
X100966598Y-94757701D01*
X101020127Y-94922445D01*
X101098768Y-95076788D01*
X101200586Y-95216928D01*
X101323072Y-95339414D01*
X101463212Y-95441232D01*
X101617555Y-95519873D01*
X101782299Y-95573402D01*
X101953389Y-95600500D01*
X101953390Y-95600500D01*
X102126610Y-95600500D01*
X102126611Y-95600500D01*
X102297701Y-95573402D01*
X102462445Y-95519873D01*
X102616788Y-95441232D01*
X102756928Y-95339414D01*
X102879414Y-95216928D01*
X102981232Y-95076788D01*
X103059873Y-94922445D01*
X103113402Y-94757701D01*
X103140500Y-94586611D01*
X103140500Y-94413389D01*
X103113402Y-94242299D01*
X103059873Y-94077555D01*
X102981232Y-93923212D01*
X102962467Y-93897385D01*
X102938988Y-93831580D01*
X102954813Y-93763526D01*
X103004919Y-93714831D01*
X103062786Y-93700500D01*
X103557215Y-93700500D01*
X103624254Y-93720185D01*
X103670009Y-93772989D01*
X103679953Y-93842147D01*
X103657533Y-93897386D01*
X103638769Y-93923211D01*
X103560129Y-94077552D01*
X103506598Y-94242302D01*
X103491934Y-94334890D01*
X103479501Y-94413389D01*
X103479501Y-94586611D01*
X103506599Y-94757701D01*
X103560128Y-94922445D01*
X103638769Y-95076788D01*
X103740587Y-95216928D01*
X103863073Y-95339414D01*
X104003213Y-95441232D01*
X104157556Y-95519873D01*
X104322300Y-95573402D01*
X104493390Y-95600500D01*
X104493391Y-95600500D01*
X104666611Y-95600500D01*
X104666612Y-95600500D01*
X104837702Y-95573402D01*
X105002446Y-95519873D01*
X105156789Y-95441232D01*
X105296929Y-95339414D01*
X105419415Y-95216928D01*
X105521233Y-95076788D01*
X105599874Y-94922445D01*
X105653403Y-94757701D01*
X105680501Y-94586611D01*
X105680501Y-94413389D01*
X105653403Y-94242299D01*
X105599874Y-94077555D01*
X105521233Y-93923212D01*
X105502468Y-93897385D01*
X105478989Y-93831580D01*
X105494814Y-93763526D01*
X105544920Y-93714831D01*
X105602787Y-93700500D01*
X106097214Y-93700500D01*
X106164253Y-93720185D01*
X106210008Y-93772989D01*
X106219952Y-93842147D01*
X106197532Y-93897386D01*
X106178768Y-93923211D01*
X106100128Y-94077552D01*
X106046597Y-94242302D01*
X106031933Y-94334890D01*
X106019500Y-94413389D01*
X106019500Y-94586611D01*
X106046598Y-94757701D01*
X106100127Y-94922445D01*
X106178768Y-95076788D01*
X106280586Y-95216928D01*
X106403072Y-95339414D01*
X106543212Y-95441232D01*
X106697555Y-95519873D01*
X106862299Y-95573402D01*
X107033389Y-95600500D01*
X107033390Y-95600500D01*
X107206610Y-95600500D01*
X107206611Y-95600500D01*
X107377701Y-95573402D01*
X107542445Y-95519873D01*
X107696788Y-95441232D01*
X107836928Y-95339414D01*
X107959414Y-95216928D01*
X108061232Y-95076788D01*
X108139873Y-94922445D01*
X108193402Y-94757701D01*
X108220500Y-94586611D01*
X108220500Y-94413389D01*
X108193402Y-94242299D01*
X108139873Y-94077555D01*
X108061232Y-93923212D01*
X108061230Y-93923209D01*
X108061229Y-93923207D01*
X108046353Y-93902732D01*
X108022872Y-93836926D01*
X108038697Y-93768872D01*
X108088802Y-93720177D01*
X108157280Y-93706301D01*
X108222389Y-93731649D01*
X108234351Y-93742165D01*
X111185605Y-96693419D01*
X111219090Y-96754742D01*
X111214106Y-96824434D01*
X111172234Y-96880367D01*
X111106770Y-96904784D01*
X111097924Y-96905100D01*
X102452144Y-96905100D01*
X102385105Y-96885415D01*
X102364463Y-96868781D01*
X100548652Y-95052970D01*
X100515167Y-94991647D01*
X100518402Y-94926971D01*
X100519873Y-94922445D01*
X100573402Y-94757701D01*
X100600500Y-94586611D01*
X100600500Y-94413389D01*
X100573402Y-94242299D01*
X100519873Y-94077555D01*
X100441232Y-93923212D01*
X100422467Y-93897385D01*
X100398988Y-93831580D01*
X100414813Y-93763526D01*
X100464919Y-93714831D01*
X100522786Y-93700500D01*
X101017214Y-93700500D01*
X101084253Y-93720185D01*
G37*
%TD.AperFunction*%
%TA.AperFunction,Conductor*%
G36*
X87050000Y-95850000D02*
G01*
X87697828Y-95850000D01*
X87697844Y-95849999D01*
X87757372Y-95843598D01*
X87757379Y-95843596D01*
X87892086Y-95793354D01*
X87892093Y-95793350D01*
X88007187Y-95707190D01*
X88007190Y-95707187D01*
X88093350Y-95592093D01*
X88093354Y-95592086D01*
X88143596Y-95457379D01*
X88143598Y-95457372D01*
X88149999Y-95397844D01*
X88150000Y-95397827D01*
X88150000Y-95105050D01*
X88169685Y-95038011D01*
X88222489Y-94992256D01*
X88291647Y-94982312D01*
X88355203Y-95011337D01*
X88384485Y-95048756D01*
X88398766Y-95076786D01*
X88429357Y-95118890D01*
X88500586Y-95216928D01*
X88623072Y-95339414D01*
X88763212Y-95441232D01*
X88917555Y-95519873D01*
X89082299Y-95573402D01*
X89253389Y-95600500D01*
X89253390Y-95600500D01*
X89426610Y-95600500D01*
X89426611Y-95600500D01*
X89597701Y-95573402D01*
X89762445Y-95519873D01*
X89916788Y-95441232D01*
X90056928Y-95339414D01*
X90179414Y-95216928D01*
X90194198Y-95196578D01*
X90249527Y-95153912D01*
X90319140Y-95147931D01*
X90380936Y-95180536D01*
X90382199Y-95181781D01*
X91288237Y-96087819D01*
X91321722Y-96149142D01*
X91316738Y-96218834D01*
X91274866Y-96274767D01*
X91209402Y-96299184D01*
X91200556Y-96299500D01*
X86124500Y-96299500D01*
X86115814Y-96296949D01*
X86106853Y-96298238D01*
X86082812Y-96287259D01*
X86057461Y-96279815D01*
X86051533Y-96272974D01*
X86043297Y-96269213D01*
X86029007Y-96246978D01*
X86011706Y-96227011D01*
X86009418Y-96216496D01*
X86005523Y-96210435D01*
X86000500Y-96175500D01*
X86000500Y-95974000D01*
X86020185Y-95906961D01*
X86072989Y-95861206D01*
X86124500Y-95850000D01*
X86550000Y-95850000D01*
X86550000Y-94933012D01*
X86607007Y-94965925D01*
X86734174Y-95000000D01*
X86865826Y-95000000D01*
X86992993Y-94965925D01*
X87050000Y-94933012D01*
X87050000Y-95850000D01*
G37*
%TD.AperFunction*%
%TD*%
M02*
