%TF.GenerationSoftware,KiCad,Pcbnew,9.0.2*%
%TF.CreationDate,2025-07-19T22:24:43-05:00*%
%TF.ProjectId,XDS110 onboard prog breakout,58445331-3130-4206-9f6e-626f61726420,rev?*%
%TF.SameCoordinates,Original*%
%TF.FileFunction,Copper,L2,Bot*%
%TF.FilePolarity,Positive*%
%FSLAX46Y46*%
G04 Gerber Fmt 4.6, Leading zero omitted, Abs format (unit mm)*
G04 Created by KiCad (PCBNEW 9.0.2) date 2025-07-19 22:24:43*
%MOMM*%
%LPD*%
G01*
G04 APERTURE LIST*
G04 Aperture macros list*
%AMRotRect*
0 Rectangle, with rotation*
0 The origin of the aperture is its center*
0 $1 length*
0 $2 width*
0 $3 Rotation angle, in degrees counterclockwise*
0 Add horizontal line*
21,1,$1,$2,0,0,$3*%
G04 Aperture macros list end*
%TA.AperFunction,ComponentPad*%
%ADD10RotRect,1.700000X1.700000X135.000000*%
%TD*%
%TA.AperFunction,ComponentPad*%
%ADD11C,1.700000*%
%TD*%
%TA.AperFunction,ComponentPad*%
%ADD12C,2.000000*%
%TD*%
%TA.AperFunction,ComponentPad*%
%ADD13R,1.700000X1.700000*%
%TD*%
%TA.AperFunction,ViaPad*%
%ADD14C,0.600000*%
%TD*%
%TA.AperFunction,Conductor*%
%ADD15C,0.200000*%
%TD*%
G04 APERTURE END LIST*
D10*
%TO.P,J2,1,Pin_1*%
%TO.N,/XDS_GND*%
X127115800Y-129984200D03*
D11*
%TO.P,J2,2,Pin_2*%
%TO.N,/XDS_5v_supply*%
X128911851Y-128188149D03*
%TO.P,J2,3,Pin_3*%
%TO.N,/XDS_3v_supply*%
X130707902Y-126392098D03*
%TO.P,J2,4,Pin_4*%
%TO.N,/XDS_TXD*%
X132503954Y-124596046D03*
%TO.P,J2,5,Pin_5*%
%TO.N,/XDS_RXD*%
X134300005Y-122799995D03*
%TO.P,J2,6,Pin_6*%
%TO.N,/XDS_RESET_OUT*%
X136096056Y-121003944D03*
%TO.P,J2,7,Pin_7*%
%TO.N,/XDS_TMS_SWDIO*%
X137892107Y-119207893D03*
%TO.P,J2,8,Pin_8*%
%TO.N,/XDS_TCK_SWDCLK*%
X139688159Y-117411841D03*
%TO.P,J2,9,Pin_9*%
%TO.N,/XDS_BLS_INVOKE*%
X141484210Y-115615790D03*
%TD*%
D12*
%TO.P,TP16,1,1*%
%TO.N,Net-(D1-K)*%
X117700000Y-119900000D03*
%TD*%
D13*
%TO.P,J1,1,Pin_1*%
%TO.N,/XDS_GND*%
X86800000Y-94500000D03*
D11*
%TO.P,J1,2,Pin_2*%
%TO.N,/XDS_5v_supply*%
X89340000Y-94500000D03*
%TO.P,J1,3,Pin_3*%
%TO.N,/XDS_3v_supply*%
X91879999Y-94500000D03*
%TO.P,J1,4,Pin_4*%
%TO.N,/XDS_TXD*%
X94420000Y-94500000D03*
%TO.P,J1,5,Pin_5*%
%TO.N,/XDS_RXD*%
X96960000Y-94500000D03*
%TO.P,J1,6,Pin_6*%
%TO.N,/XDS_RESET_OUT*%
X99500000Y-94500000D03*
%TO.P,J1,7,Pin_7*%
%TO.N,/XDS_TMS_SWDIO*%
X102040000Y-94500000D03*
%TO.P,J1,8,Pin_8*%
%TO.N,/XDS_TCK_SWDCLK*%
X104580001Y-94500000D03*
%TO.P,J1,9,Pin_9*%
%TO.N,/XDS_BLS_INVOKE*%
X107120000Y-94500000D03*
%TD*%
D14*
%TO.N,/XDS_3v_supply*%
X95550200Y-97318900D03*
X117022900Y-118201100D03*
%TO.N,/XDS_5v_supply*%
X113318400Y-99950800D03*
%TO.N,Net-(D3-A)*%
X112175900Y-108122400D03*
X114995600Y-115933200D03*
%TO.N,/XDS_RESET_OUT*%
X108892900Y-109993900D03*
X111706900Y-97255600D03*
%TO.N,/XDS_TMS_SWDIO*%
X113086500Y-112367800D03*
X121788500Y-120993900D03*
%TO.N,/XDS_BLS_INVOKE*%
X121555000Y-118189100D03*
%TO.N,/XDS_TCK_SWDCLK*%
X124966300Y-120669800D03*
X118218300Y-115030800D03*
%TO.N,/XDS_RXD*%
X112262200Y-103264200D03*
X122621900Y-121810200D03*
X101499500Y-102258700D03*
%TO.N,/XDS_TXD*%
X104853400Y-102591600D03*
X124676500Y-123959400D03*
%TO.N,/XDS_GND*%
X105100000Y-96200000D03*
X139000000Y-114000000D03*
X130800000Y-118400000D03*
X113900000Y-106800000D03*
X109500000Y-100700000D03*
X127500000Y-119700000D03*
X135800000Y-116500000D03*
X126000000Y-107500000D03*
X132750000Y-122050000D03*
X101800000Y-98800000D03*
X107400000Y-98700000D03*
X122800000Y-115900000D03*
X114000000Y-117600000D03*
X98100000Y-101800000D03*
X109600000Y-108300000D03*
X120100000Y-112800000D03*
X112200000Y-98700000D03*
X102800000Y-96300000D03*
X110000000Y-96200000D03*
X132200000Y-120450000D03*
X106500000Y-105900000D03*
X94700000Y-96100000D03*
X98300000Y-95900000D03*
X88600000Y-95900000D03*
X103200000Y-100900000D03*
X124600000Y-122250000D03*
X107400000Y-96200000D03*
X107100000Y-100900000D03*
X121200000Y-123700000D03*
X127100000Y-123800000D03*
X126500000Y-117000000D03*
X135200000Y-118300000D03*
X116400000Y-109400000D03*
X127100000Y-125500000D03*
X93100000Y-96500000D03*
X105100000Y-98700000D03*
X131500000Y-113700000D03*
X130500000Y-123800000D03*
X110400000Y-104300000D03*
X110000000Y-98700000D03*
%TD*%
D15*
%TO.N,/XDS_3v_supply*%
X96628900Y-99248900D02*
X96628900Y-99213700D01*
X97368100Y-99952900D02*
X97332900Y-99952900D01*
X96171300Y-98791300D02*
X96171300Y-98756100D01*
X97262500Y-99847300D02*
X97227300Y-99847300D01*
X117022900Y-118201100D02*
X115616300Y-118201100D01*
X97051300Y-99636100D02*
X97016100Y-99636100D01*
X98055400Y-100445700D02*
X97825700Y-100445700D01*
X96840100Y-99460100D02*
X96840100Y-99424900D01*
X98443100Y-101027900D02*
X98443100Y-100833400D01*
X96417700Y-99037700D02*
X96417700Y-99002500D01*
X97016100Y-99636100D02*
X97016100Y-99600900D01*
X96699300Y-99284100D02*
X96664100Y-99284100D01*
X98443100Y-100833400D02*
X98055400Y-100445700D01*
X96241700Y-98826500D02*
X96206500Y-98826500D01*
X96100900Y-98720900D02*
X91880000Y-94500000D01*
X96276900Y-98861700D02*
X96241700Y-98861700D01*
X97121700Y-99741700D02*
X97121700Y-99706500D01*
X97649700Y-100234500D02*
X97614500Y-100234500D01*
X97332900Y-99952900D02*
X97332900Y-99917700D01*
X96523300Y-99143300D02*
X96523300Y-99108100D01*
X97051300Y-99671300D02*
X97051300Y-99636100D01*
X97825700Y-100445700D02*
X97825700Y-100410500D01*
X96558500Y-99178500D02*
X96558500Y-99143300D01*
X96699300Y-99319300D02*
X96699300Y-99284100D01*
X97755300Y-100375300D02*
X97755300Y-100340100D01*
X97614500Y-100199300D02*
X97579300Y-100199300D01*
X97473700Y-100058500D02*
X97438500Y-100058500D01*
X97508900Y-100128900D02*
X97508900Y-100093700D01*
X96945700Y-99565700D02*
X96945700Y-99530500D01*
X97544100Y-100164100D02*
X97544100Y-100128900D01*
X96734500Y-99319300D02*
X96699300Y-99319300D01*
X97614500Y-100234500D02*
X97614500Y-100199300D01*
X96804900Y-99389700D02*
X96769700Y-99389700D01*
X95550200Y-98135000D02*
X96100900Y-98685700D01*
X96452900Y-99037700D02*
X96417700Y-99037700D01*
X97086500Y-99706500D02*
X97086500Y-99671300D01*
X97720100Y-100304900D02*
X97684900Y-100304900D01*
X96593700Y-99178500D02*
X96558500Y-99178500D01*
X96875300Y-99495300D02*
X96875300Y-99460100D01*
X96840100Y-99424900D02*
X96804900Y-99424900D01*
X97262500Y-99882500D02*
X97262500Y-99847300D01*
X96417700Y-99002500D02*
X96382500Y-99002500D01*
X96276900Y-98896900D02*
X96276900Y-98861700D01*
X97403300Y-100023300D02*
X97403300Y-99988100D01*
X97720100Y-100340100D02*
X97720100Y-100304900D01*
X96664100Y-99248900D02*
X96628900Y-99248900D01*
X96769700Y-99389700D02*
X96769700Y-99354500D01*
X96382500Y-98967300D02*
X96347300Y-98967300D01*
X96382500Y-99002500D02*
X96382500Y-98967300D01*
X97684900Y-100304900D02*
X97684900Y-100269700D01*
X97192100Y-99776900D02*
X97156900Y-99776900D01*
X96804900Y-99424900D02*
X96804900Y-99389700D01*
X97156900Y-99741700D02*
X97121700Y-99741700D01*
X96980900Y-99600900D02*
X96980900Y-99565700D01*
X97297700Y-99917700D02*
X97297700Y-99882500D01*
X97156900Y-99776900D02*
X97156900Y-99741700D01*
X96206500Y-98791300D02*
X96171300Y-98791300D01*
X96593700Y-99213700D02*
X96593700Y-99178500D01*
X96347300Y-98967300D02*
X96347300Y-98932100D01*
X96347300Y-98932100D02*
X96312100Y-98932100D01*
X97192100Y-99812100D02*
X97192100Y-99776900D01*
X96769700Y-99354500D02*
X96734500Y-99354500D01*
X96452900Y-99072900D02*
X96452900Y-99037700D01*
X97684900Y-100269700D02*
X97649700Y-100269700D01*
X96734500Y-99354500D02*
X96734500Y-99319300D01*
X97016100Y-99600900D02*
X96980900Y-99600900D01*
X96312100Y-98896900D02*
X96276900Y-98896900D01*
X95550200Y-97318900D02*
X95550200Y-98135000D01*
X96488100Y-99072900D02*
X96452900Y-99072900D01*
X97544100Y-100128900D02*
X97508900Y-100128900D01*
X96312100Y-98932100D02*
X96312100Y-98896900D01*
X97227300Y-99812100D02*
X97192100Y-99812100D01*
X97086500Y-99671300D02*
X97051300Y-99671300D01*
X97473700Y-100093700D02*
X97473700Y-100058500D01*
X96136100Y-98756100D02*
X96136100Y-98720900D01*
X97825700Y-100410500D02*
X97790500Y-100410500D01*
X96910500Y-99530500D02*
X96910500Y-99495300D01*
X97227300Y-99847300D02*
X97227300Y-99812100D01*
X97649700Y-100269700D02*
X97649700Y-100234500D01*
X96875300Y-99460100D02*
X96840100Y-99460100D01*
X97508900Y-100093700D02*
X97473700Y-100093700D01*
X96136100Y-98720900D02*
X96100900Y-98720900D01*
X97297700Y-99882500D02*
X97262500Y-99882500D01*
X96100900Y-98685700D02*
X96100900Y-98720900D01*
X97121700Y-99706500D02*
X97086500Y-99706500D01*
X97368100Y-99988100D02*
X97368100Y-99952900D01*
X96558500Y-99143300D02*
X96523300Y-99143300D01*
X97790500Y-100410500D02*
X97790500Y-100375300D01*
X97755300Y-100340100D02*
X97720100Y-100340100D01*
X97790500Y-100375300D02*
X97755300Y-100375300D01*
X97438500Y-100058500D02*
X97438500Y-100023300D01*
X96945700Y-99530500D02*
X96910500Y-99530500D01*
X96910500Y-99495300D02*
X96875300Y-99495300D01*
X96523300Y-99108100D02*
X96488100Y-99108100D01*
X96628900Y-99213700D02*
X96593700Y-99213700D01*
X97579300Y-100164100D02*
X97544100Y-100164100D01*
X96488100Y-99108100D02*
X96488100Y-99072900D01*
X97403300Y-99988100D02*
X97368100Y-99988100D01*
X97579300Y-100199300D02*
X97579300Y-100164100D01*
X115616300Y-118201100D02*
X98443100Y-101027900D01*
X96241700Y-98861700D02*
X96241700Y-98826500D01*
X96171300Y-98756100D02*
X96136100Y-98756100D01*
X97438500Y-100023300D02*
X97403300Y-100023300D01*
X96206500Y-98826500D02*
X96206500Y-98791300D01*
X96664100Y-99284100D02*
X96664100Y-99248900D01*
X96980900Y-99565700D02*
X96945700Y-99565700D01*
X97332900Y-99917700D02*
X97297700Y-99917700D01*
%TO.N,/XDS_5v_supply*%
X128911900Y-128188100D02*
X128911900Y-115544300D01*
X128911900Y-115544300D02*
X113318400Y-99950800D01*
%TO.N,Net-(D3-A)*%
X112175900Y-113113500D02*
X114995600Y-115933200D01*
X112175900Y-108122400D02*
X112175900Y-113113500D01*
%TO.N,/XDS_RESET_OUT*%
X108892800Y-103892800D02*
X108892800Y-109993900D01*
X99500000Y-94500000D02*
X108892800Y-103892800D01*
X108892800Y-109993900D02*
X108892900Y-109993900D01*
X135455200Y-121003900D02*
X136096100Y-121003900D01*
X111706900Y-97255600D02*
X135455200Y-121003900D01*
%TO.N,/XDS_TMS_SWDIO*%
X113086700Y-112367600D02*
X113086500Y-112367800D01*
X113086700Y-112367600D02*
X121713000Y-120993900D01*
X113086700Y-105546700D02*
X113086700Y-112367600D01*
X121713000Y-120993900D02*
X121788500Y-120993900D01*
X102040000Y-94500000D02*
X113086700Y-105546700D01*
%TO.N,/XDS_BLS_INVOKE*%
X107120000Y-94604800D02*
X121555000Y-109039800D01*
X107120000Y-94500000D02*
X107120000Y-94604800D01*
X121555000Y-109039800D02*
X121555000Y-118189100D01*
%TO.N,/XDS_TCK_SWDCLK*%
X118218300Y-108138300D02*
X118218300Y-115030800D01*
X123151500Y-120669800D02*
X118218300Y-115736600D01*
X104580000Y-94500000D02*
X118218300Y-108138300D01*
X118218300Y-115736600D02*
X118218300Y-115030800D01*
X124966300Y-120669800D02*
X123151500Y-120669800D01*
%TO.N,/XDS_RXD*%
X101499500Y-102258700D02*
X96960000Y-97719200D01*
X114682000Y-105684000D02*
X112262200Y-103264200D01*
X122621900Y-120938200D02*
X114682000Y-112998300D01*
X122621900Y-121810200D02*
X122621900Y-120938200D01*
X96960000Y-97719200D02*
X96960000Y-94500000D01*
X114682000Y-112998300D02*
X114682000Y-105684000D01*
%TO.N,/XDS_TXD*%
X104557600Y-102887400D02*
X101233000Y-102887400D01*
X116997100Y-117278400D02*
X115326200Y-117278400D01*
X104853400Y-102591600D02*
X104557600Y-102887400D01*
X104853400Y-106805600D02*
X104853400Y-102591600D01*
X115326200Y-117278400D02*
X104853400Y-106805600D01*
X124676500Y-123959400D02*
X123678100Y-123959400D01*
X123678100Y-123959400D02*
X116997100Y-117278400D01*
X97451400Y-98935300D02*
X96173300Y-97657200D01*
X96173300Y-97657200D02*
X96173300Y-96253300D01*
X97451400Y-99105800D02*
X97451400Y-98935300D01*
X96173300Y-96253300D02*
X94420000Y-94500000D01*
X101233000Y-102887400D02*
X97451400Y-99105800D01*
%TD*%
%TA.AperFunction,Conductor*%
%TO.N,/XDS_GND*%
G36*
X122110703Y-109239231D02*
G01*
X122117181Y-109245263D01*
X128525081Y-115653163D01*
X128558566Y-115714486D01*
X128561400Y-115740844D01*
X128561400Y-127055605D01*
X128541715Y-127122644D01*
X128493695Y-127166090D01*
X128335062Y-127246917D01*
X128259598Y-127301746D01*
X128194923Y-127348735D01*
X128194921Y-127348737D01*
X128194920Y-127348737D01*
X128072439Y-127471218D01*
X128072439Y-127471219D01*
X128072437Y-127471221D01*
X128028710Y-127531405D01*
X127970619Y-127611360D01*
X127891979Y-127765701D01*
X127838448Y-127930451D01*
X127811351Y-128101538D01*
X127811351Y-128274759D01*
X127838448Y-128445846D01*
X127848172Y-128475773D01*
X127850167Y-128545614D01*
X127814087Y-128605447D01*
X127751386Y-128636275D01*
X127681972Y-128628310D01*
X127642560Y-128601772D01*
X127435532Y-128394744D01*
X127388897Y-128357164D01*
X127258118Y-128297438D01*
X127258113Y-128297437D01*
X127115800Y-128276977D01*
X126973486Y-128297437D01*
X126973481Y-128297438D01*
X126842702Y-128357164D01*
X126796067Y-128394744D01*
X126796063Y-128394748D01*
X126337983Y-128852829D01*
X126986391Y-129501237D01*
X126922807Y-129518275D01*
X126808793Y-129584101D01*
X126715701Y-129677193D01*
X126649875Y-129791207D01*
X126632837Y-129854791D01*
X125984429Y-129206383D01*
X125636994Y-129553818D01*
X125575671Y-129587303D01*
X125505979Y-129582319D01*
X125461632Y-129553818D01*
X117210013Y-121302199D01*
X117176528Y-121240876D01*
X117181512Y-121171184D01*
X117223384Y-121115251D01*
X117288848Y-121090834D01*
X117336011Y-121096586D01*
X117367198Y-121106720D01*
X117407173Y-121119709D01*
X117601578Y-121150500D01*
X117601583Y-121150500D01*
X117798422Y-121150500D01*
X117992826Y-121119709D01*
X118021765Y-121110306D01*
X118180025Y-121058884D01*
X118355405Y-120969524D01*
X118514646Y-120853828D01*
X118653828Y-120714646D01*
X118769524Y-120555405D01*
X118858884Y-120380025D01*
X118919709Y-120192826D01*
X118949474Y-120004893D01*
X118979403Y-119941759D01*
X119038714Y-119904827D01*
X119108577Y-119905825D01*
X119159628Y-119936610D01*
X123462888Y-124239870D01*
X123542812Y-124286014D01*
X123631956Y-124309900D01*
X123724244Y-124309900D01*
X124197114Y-124309900D01*
X124264153Y-124329585D01*
X124284795Y-124346219D01*
X124338485Y-124399909D01*
X124338486Y-124399910D01*
X124338488Y-124399911D01*
X124464011Y-124472382D01*
X124464012Y-124472382D01*
X124464015Y-124472384D01*
X124604025Y-124509900D01*
X124604028Y-124509900D01*
X124748972Y-124509900D01*
X124748975Y-124509900D01*
X124888985Y-124472384D01*
X125014515Y-124399909D01*
X125117009Y-124297415D01*
X125189484Y-124171885D01*
X125227000Y-124031875D01*
X125227000Y-123886925D01*
X125189484Y-123746915D01*
X125136309Y-123654814D01*
X125117011Y-123621388D01*
X125117006Y-123621382D01*
X125014517Y-123518893D01*
X125014511Y-123518888D01*
X124888988Y-123446417D01*
X124888989Y-123446417D01*
X124877506Y-123443340D01*
X124748975Y-123408900D01*
X124604025Y-123408900D01*
X124475493Y-123443340D01*
X124464011Y-123446417D01*
X124338488Y-123518888D01*
X124338482Y-123518893D01*
X124284795Y-123572581D01*
X124223472Y-123606066D01*
X124197114Y-123608900D01*
X123874644Y-123608900D01*
X123807605Y-123589215D01*
X123786963Y-123572581D01*
X122752159Y-122537777D01*
X122718674Y-122476454D01*
X122723658Y-122406762D01*
X122765530Y-122350829D01*
X122807743Y-122330322D01*
X122834385Y-122323184D01*
X122959915Y-122250709D01*
X123062409Y-122148215D01*
X123134884Y-122022685D01*
X123172400Y-121882675D01*
X123172400Y-121737725D01*
X123134884Y-121597715D01*
X123104102Y-121544400D01*
X123062411Y-121472188D01*
X123062406Y-121472182D01*
X123008719Y-121418495D01*
X122994015Y-121391567D01*
X122977423Y-121365749D01*
X122976531Y-121359548D01*
X122975234Y-121357172D01*
X122972400Y-121330814D01*
X122972400Y-121144190D01*
X122992085Y-121077151D01*
X123044889Y-121031396D01*
X123097229Y-121023579D01*
X123097229Y-121020300D01*
X123105356Y-121020300D01*
X124486914Y-121020300D01*
X124553953Y-121039985D01*
X124574595Y-121056619D01*
X124628285Y-121110309D01*
X124628286Y-121110310D01*
X124628288Y-121110311D01*
X124753811Y-121182782D01*
X124753812Y-121182782D01*
X124753815Y-121182784D01*
X124893825Y-121220300D01*
X124893828Y-121220300D01*
X125038772Y-121220300D01*
X125038775Y-121220300D01*
X125178785Y-121182784D01*
X125304315Y-121110309D01*
X125406809Y-121007815D01*
X125479284Y-120882285D01*
X125516800Y-120742275D01*
X125516800Y-120597325D01*
X125479284Y-120457315D01*
X125455733Y-120416524D01*
X125406811Y-120331788D01*
X125406806Y-120331782D01*
X125304317Y-120229293D01*
X125304311Y-120229288D01*
X125178788Y-120156817D01*
X125178789Y-120156817D01*
X125129272Y-120143549D01*
X125038775Y-120119300D01*
X124893825Y-120119300D01*
X124803328Y-120143549D01*
X124753811Y-120156817D01*
X124628288Y-120229288D01*
X124628282Y-120229293D01*
X124574595Y-120282981D01*
X124513272Y-120316466D01*
X124486914Y-120319300D01*
X123348043Y-120319300D01*
X123281004Y-120299615D01*
X123260362Y-120282981D01*
X121825951Y-118848569D01*
X121792466Y-118787246D01*
X121797450Y-118717554D01*
X121839322Y-118661621D01*
X121851621Y-118653507D01*
X121893015Y-118629609D01*
X121995509Y-118527115D01*
X122067984Y-118401585D01*
X122105500Y-118261575D01*
X122105500Y-118116625D01*
X122067984Y-117976615D01*
X122054872Y-117953905D01*
X121995511Y-117851088D01*
X121995506Y-117851082D01*
X121941819Y-117797395D01*
X121908334Y-117736072D01*
X121905500Y-117709714D01*
X121905500Y-109332944D01*
X121925185Y-109265905D01*
X121977989Y-109220150D01*
X122047147Y-109210206D01*
X122110703Y-109239231D01*
G37*
%TD.AperFunction*%
%TA.AperFunction,Conductor*%
G36*
X129467603Y-115512431D02*
G01*
X129474081Y-115518463D01*
X134959237Y-121003619D01*
X134992722Y-121064942D01*
X134994954Y-121085709D01*
X134995173Y-121085692D01*
X134995555Y-121090552D01*
X135022154Y-121258491D01*
X135022654Y-121261645D01*
X135076183Y-121426389D01*
X135154824Y-121580732D01*
X135256642Y-121720872D01*
X135379128Y-121843358D01*
X135475797Y-121913592D01*
X135487212Y-121928396D01*
X135502179Y-121939600D01*
X135508106Y-121955490D01*
X135518463Y-121968922D01*
X135520062Y-121987547D01*
X135526596Y-122005064D01*
X135522990Y-122021637D01*
X135524442Y-122038535D01*
X135515718Y-122055068D01*
X135511744Y-122073337D01*
X135492550Y-122098976D01*
X135491836Y-122100330D01*
X135490593Y-122101591D01*
X135397652Y-122194532D01*
X135336329Y-122228017D01*
X135266637Y-122223033D01*
X135210704Y-122181161D01*
X135209653Y-122179736D01*
X135152877Y-122101591D01*
X135139419Y-122083067D01*
X135016933Y-121960581D01*
X134876793Y-121858763D01*
X134722450Y-121780122D01*
X134557706Y-121726593D01*
X134557704Y-121726592D01*
X134557703Y-121726592D01*
X134426276Y-121705776D01*
X134386616Y-121699495D01*
X134213394Y-121699495D01*
X134173733Y-121705776D01*
X134042307Y-121726592D01*
X133877557Y-121780123D01*
X133723216Y-121858763D01*
X133647752Y-121913592D01*
X133583077Y-121960581D01*
X133583075Y-121960583D01*
X133583074Y-121960583D01*
X133460593Y-122083064D01*
X133460593Y-122083065D01*
X133460591Y-122083067D01*
X133416864Y-122143251D01*
X133358773Y-122223206D01*
X133280133Y-122377547D01*
X133226602Y-122542297D01*
X133199505Y-122713384D01*
X133199505Y-122886606D01*
X133226603Y-123057696D01*
X133280132Y-123222440D01*
X133358773Y-123376783D01*
X133460591Y-123516923D01*
X133583077Y-123639409D01*
X133679746Y-123709643D01*
X133691161Y-123724447D01*
X133706128Y-123735651D01*
X133712055Y-123751541D01*
X133722412Y-123764973D01*
X133724011Y-123783598D01*
X133730545Y-123801115D01*
X133726939Y-123817688D01*
X133728391Y-123834586D01*
X133719667Y-123851119D01*
X133715693Y-123869388D01*
X133696499Y-123895027D01*
X133695785Y-123896381D01*
X133694542Y-123897642D01*
X133601601Y-123990583D01*
X133540278Y-124024068D01*
X133470586Y-124019084D01*
X133414653Y-123977212D01*
X133413602Y-123975787D01*
X133356826Y-123897642D01*
X133343368Y-123879118D01*
X133220882Y-123756632D01*
X133080742Y-123654814D01*
X132926399Y-123576173D01*
X132761655Y-123522644D01*
X132761653Y-123522643D01*
X132761652Y-123522643D01*
X132630225Y-123501827D01*
X132590565Y-123495546D01*
X132417343Y-123495546D01*
X132377682Y-123501827D01*
X132246256Y-123522643D01*
X132081506Y-123576174D01*
X131927165Y-123654814D01*
X131851701Y-123709643D01*
X131787026Y-123756632D01*
X131787024Y-123756634D01*
X131787023Y-123756634D01*
X131664542Y-123879115D01*
X131664542Y-123879116D01*
X131664540Y-123879118D01*
X131620813Y-123939302D01*
X131562722Y-124019257D01*
X131484082Y-124173598D01*
X131430551Y-124338348D01*
X131420801Y-124399909D01*
X131403454Y-124509435D01*
X131403454Y-124682657D01*
X131430552Y-124853747D01*
X131484081Y-125018491D01*
X131562722Y-125172834D01*
X131664540Y-125312974D01*
X131787026Y-125435460D01*
X131883695Y-125505694D01*
X131895110Y-125520498D01*
X131910077Y-125531702D01*
X131916004Y-125547592D01*
X131926361Y-125561024D01*
X131927960Y-125579649D01*
X131934494Y-125597166D01*
X131930888Y-125613739D01*
X131932340Y-125630637D01*
X131923616Y-125647170D01*
X131919642Y-125665439D01*
X131900448Y-125691078D01*
X131899734Y-125692432D01*
X131898491Y-125693693D01*
X131805549Y-125786635D01*
X131744226Y-125820120D01*
X131674534Y-125815136D01*
X131618601Y-125773264D01*
X131617550Y-125771839D01*
X131559857Y-125692432D01*
X131547316Y-125675170D01*
X131424830Y-125552684D01*
X131284690Y-125450866D01*
X131130347Y-125372225D01*
X130965603Y-125318696D01*
X130965601Y-125318695D01*
X130965600Y-125318695D01*
X130834173Y-125297879D01*
X130794513Y-125291598D01*
X130621291Y-125291598D01*
X130581630Y-125297879D01*
X130450204Y-125318695D01*
X130285454Y-125372226D01*
X130131113Y-125450866D01*
X130055650Y-125505694D01*
X129990974Y-125552684D01*
X129990972Y-125552686D01*
X129990971Y-125552686D01*
X129868490Y-125675167D01*
X129868490Y-125675168D01*
X129868488Y-125675170D01*
X129824761Y-125735354D01*
X129766670Y-125815309D01*
X129688030Y-125969650D01*
X129634499Y-126134400D01*
X129607402Y-126305487D01*
X129607402Y-126478709D01*
X129634500Y-126649799D01*
X129688029Y-126814543D01*
X129766670Y-126968886D01*
X129868488Y-127109026D01*
X129990974Y-127231512D01*
X130087643Y-127301746D01*
X130099058Y-127316550D01*
X130114025Y-127327754D01*
X130119952Y-127343644D01*
X130130309Y-127357076D01*
X130131908Y-127375701D01*
X130138442Y-127393218D01*
X130134836Y-127409791D01*
X130136288Y-127426689D01*
X130127564Y-127443222D01*
X130123590Y-127461491D01*
X130104396Y-127487130D01*
X130103682Y-127488484D01*
X130102439Y-127489745D01*
X130009498Y-127582686D01*
X129948175Y-127616171D01*
X129878483Y-127611187D01*
X129822550Y-127569315D01*
X129821499Y-127567890D01*
X129764723Y-127489745D01*
X129751265Y-127471221D01*
X129628779Y-127348735D01*
X129488639Y-127246917D01*
X129458399Y-127231509D01*
X129330105Y-127166140D01*
X129279309Y-127118165D01*
X129262400Y-127055655D01*
X129262400Y-115606144D01*
X129282085Y-115539105D01*
X129334889Y-115493350D01*
X129404047Y-115483406D01*
X129467603Y-115512431D01*
G37*
%TD.AperFunction*%
%TA.AperFunction,Conductor*%
G36*
X133508363Y-106520185D02*
G01*
X133529005Y-106536819D01*
X141320368Y-114328182D01*
X141353853Y-114389505D01*
X141348869Y-114459197D01*
X141306997Y-114515130D01*
X141252089Y-114538336D01*
X141226509Y-114542388D01*
X141061762Y-114595918D01*
X140907421Y-114674558D01*
X140827466Y-114732649D01*
X140767282Y-114776376D01*
X140767280Y-114776378D01*
X140767279Y-114776378D01*
X140644798Y-114898859D01*
X140644798Y-114898860D01*
X140644796Y-114898862D01*
X140601593Y-114958325D01*
X140542978Y-115039001D01*
X140464338Y-115193342D01*
X140410807Y-115358092D01*
X140386718Y-115510186D01*
X140383710Y-115529179D01*
X140383710Y-115702401D01*
X140410808Y-115873491D01*
X140464337Y-116038235D01*
X140542978Y-116192578D01*
X140644796Y-116332718D01*
X140767282Y-116455204D01*
X140863951Y-116525438D01*
X140875366Y-116540242D01*
X140890333Y-116551446D01*
X140896260Y-116567336D01*
X140906617Y-116580768D01*
X140908216Y-116599393D01*
X140914750Y-116616910D01*
X140911144Y-116633483D01*
X140912596Y-116650381D01*
X140903872Y-116666914D01*
X140899898Y-116685183D01*
X140880704Y-116710822D01*
X140879990Y-116712176D01*
X140878747Y-116713437D01*
X140785806Y-116806378D01*
X140724483Y-116839863D01*
X140654791Y-116834879D01*
X140598858Y-116793007D01*
X140597807Y-116791582D01*
X140587606Y-116777542D01*
X140527573Y-116694913D01*
X140405087Y-116572427D01*
X140264947Y-116470609D01*
X140110604Y-116391968D01*
X139945860Y-116338439D01*
X139945858Y-116338438D01*
X139945857Y-116338438D01*
X139814430Y-116317622D01*
X139774770Y-116311341D01*
X139601548Y-116311341D01*
X139561887Y-116317622D01*
X139430461Y-116338438D01*
X139265711Y-116391969D01*
X139111370Y-116470609D01*
X139058002Y-116509384D01*
X138971231Y-116572427D01*
X138971229Y-116572429D01*
X138971228Y-116572429D01*
X138848747Y-116694910D01*
X138848747Y-116694911D01*
X138848745Y-116694913D01*
X138805018Y-116755097D01*
X138746927Y-116835052D01*
X138668287Y-116989393D01*
X138614756Y-117154143D01*
X138587659Y-117325230D01*
X138587659Y-117498451D01*
X138614327Y-117666831D01*
X138614757Y-117669542D01*
X138668286Y-117834286D01*
X138746927Y-117988629D01*
X138848745Y-118128769D01*
X138971231Y-118251255D01*
X139067900Y-118321489D01*
X139079315Y-118336293D01*
X139094282Y-118347497D01*
X139100209Y-118363387D01*
X139110566Y-118376819D01*
X139112165Y-118395444D01*
X139118699Y-118412961D01*
X139115093Y-118429534D01*
X139116545Y-118446432D01*
X139107821Y-118462965D01*
X139103847Y-118481234D01*
X139084653Y-118506873D01*
X139083939Y-118508227D01*
X139082696Y-118509488D01*
X138989754Y-118602430D01*
X138928431Y-118635915D01*
X138858739Y-118630931D01*
X138802806Y-118589059D01*
X138801755Y-118587634D01*
X138758218Y-118527711D01*
X138731521Y-118490965D01*
X138609035Y-118368479D01*
X138468895Y-118266661D01*
X138314552Y-118188020D01*
X138149808Y-118134491D01*
X138149806Y-118134490D01*
X138149805Y-118134490D01*
X138018378Y-118113674D01*
X137978718Y-118107393D01*
X137805496Y-118107393D01*
X137765835Y-118113674D01*
X137634409Y-118134490D01*
X137469659Y-118188021D01*
X137315318Y-118266661D01*
X137239855Y-118321489D01*
X137175179Y-118368479D01*
X137175177Y-118368481D01*
X137175176Y-118368481D01*
X137052695Y-118490962D01*
X137052695Y-118490963D01*
X137052693Y-118490965D01*
X137025995Y-118527712D01*
X136950875Y-118631104D01*
X136872235Y-118785445D01*
X136818704Y-118950195D01*
X136791607Y-119121282D01*
X136791607Y-119294503D01*
X136811479Y-119419975D01*
X136818705Y-119465594D01*
X136872234Y-119630338D01*
X136950875Y-119784681D01*
X137052693Y-119924821D01*
X137175179Y-120047307D01*
X137271848Y-120117541D01*
X137283263Y-120132345D01*
X137298230Y-120143549D01*
X137304157Y-120159439D01*
X137314514Y-120172871D01*
X137316113Y-120191496D01*
X137322647Y-120209013D01*
X137319041Y-120225586D01*
X137320493Y-120242484D01*
X137311769Y-120259017D01*
X137307795Y-120277286D01*
X137288601Y-120302925D01*
X137287887Y-120304279D01*
X137286644Y-120305540D01*
X137193703Y-120398481D01*
X137132380Y-120431966D01*
X137062688Y-120426982D01*
X137006755Y-120385110D01*
X137005704Y-120383685D01*
X136967996Y-120331785D01*
X136935470Y-120287016D01*
X136812984Y-120164530D01*
X136672844Y-120062712D01*
X136518501Y-119984071D01*
X136353757Y-119930542D01*
X136353755Y-119930541D01*
X136353754Y-119930541D01*
X136222327Y-119909725D01*
X136182667Y-119903444D01*
X136009445Y-119903444D01*
X135969784Y-119909725D01*
X135838358Y-119930541D01*
X135673608Y-119984072D01*
X135519267Y-120062712D01*
X135443803Y-120117541D01*
X135379128Y-120164530D01*
X135379126Y-120164532D01*
X135379124Y-120164533D01*
X135332998Y-120210658D01*
X135271675Y-120244142D01*
X135201983Y-120239156D01*
X135157638Y-120210656D01*
X121659163Y-106712181D01*
X121625678Y-106650858D01*
X121630662Y-106581166D01*
X121672534Y-106525233D01*
X121737998Y-106500816D01*
X121746844Y-106500500D01*
X133441324Y-106500500D01*
X133508363Y-106520185D01*
G37*
%TD.AperFunction*%
%TA.AperFunction,Conductor*%
G36*
X90924252Y-93720185D02*
G01*
X90970007Y-93772989D01*
X90979951Y-93842147D01*
X90957531Y-93897386D01*
X90938767Y-93923211D01*
X90860127Y-94077552D01*
X90806596Y-94242302D01*
X90796348Y-94307007D01*
X90779499Y-94413389D01*
X90779499Y-94586611D01*
X90806597Y-94757701D01*
X90860126Y-94922445D01*
X90938767Y-95076788D01*
X91040585Y-95216928D01*
X91163071Y-95339414D01*
X91303211Y-95441232D01*
X91457554Y-95519873D01*
X91622298Y-95573402D01*
X91793388Y-95600500D01*
X91793389Y-95600500D01*
X91966609Y-95600500D01*
X91966610Y-95600500D01*
X92137700Y-95573402D01*
X92302444Y-95519873D01*
X92302453Y-95519868D01*
X92306969Y-95518401D01*
X92376810Y-95516406D01*
X92432969Y-95548651D01*
X95892753Y-99008435D01*
X95892759Y-99008440D01*
X95926031Y-99041712D01*
X95961231Y-99076912D01*
X95996431Y-99112112D01*
X96031631Y-99147312D01*
X96066831Y-99182512D01*
X96102031Y-99217712D01*
X96137231Y-99252912D01*
X96172431Y-99288112D01*
X96207631Y-99323312D01*
X96242831Y-99358512D01*
X96278031Y-99393712D01*
X96313231Y-99428912D01*
X96348431Y-99464112D01*
X96383631Y-99499312D01*
X96418831Y-99534512D01*
X96454031Y-99569712D01*
X96489231Y-99604912D01*
X96524431Y-99640112D01*
X96559631Y-99675312D01*
X96594831Y-99710512D01*
X96630031Y-99745712D01*
X96665231Y-99780912D01*
X96700431Y-99816112D01*
X96735631Y-99851312D01*
X96770831Y-99886512D01*
X96806031Y-99921712D01*
X96841231Y-99956912D01*
X96876431Y-99992112D01*
X96911631Y-100027312D01*
X96946831Y-100062512D01*
X96982031Y-100097712D01*
X97017231Y-100132912D01*
X97052431Y-100168112D01*
X97087631Y-100203312D01*
X97122831Y-100238512D01*
X97158031Y-100273712D01*
X97193231Y-100308912D01*
X97228431Y-100344112D01*
X97263631Y-100379312D01*
X97298831Y-100414512D01*
X97334031Y-100449712D01*
X97369231Y-100484912D01*
X97404431Y-100520112D01*
X97439631Y-100555312D01*
X97474831Y-100590512D01*
X97510031Y-100625712D01*
X97545231Y-100660912D01*
X97610488Y-100726169D01*
X97610491Y-100726170D01*
X97610494Y-100726173D01*
X97690406Y-100772311D01*
X97690407Y-100772311D01*
X97690412Y-100772314D01*
X97779556Y-100796200D01*
X97858856Y-100796200D01*
X97888296Y-100804844D01*
X97918283Y-100811368D01*
X97923298Y-100815122D01*
X97925895Y-100815885D01*
X97946537Y-100832519D01*
X98056281Y-100942263D01*
X98089766Y-101003586D01*
X98092600Y-101029944D01*
X98092600Y-101074044D01*
X98115636Y-101160014D01*
X98115641Y-101160033D01*
X98116485Y-101163187D01*
X98116486Y-101163189D01*
X98162627Y-101243108D01*
X98162629Y-101243111D01*
X98162630Y-101243112D01*
X115335831Y-118416312D01*
X115401088Y-118481569D01*
X115401091Y-118481570D01*
X115401094Y-118481573D01*
X115481006Y-118527711D01*
X115481007Y-118527711D01*
X115481012Y-118527714D01*
X115570156Y-118551600D01*
X116543514Y-118551600D01*
X116610553Y-118571285D01*
X116631195Y-118587919D01*
X116684885Y-118641609D01*
X116684886Y-118641610D01*
X116684888Y-118641611D01*
X116810411Y-118714082D01*
X116810412Y-118714082D01*
X116810415Y-118714084D01*
X116847425Y-118724001D01*
X116907084Y-118760365D01*
X116937613Y-118823212D01*
X116929318Y-118892588D01*
X116888220Y-118944089D01*
X116886051Y-118945665D01*
X116885351Y-118946174D01*
X116746174Y-119085351D01*
X116746174Y-119085352D01*
X116746172Y-119085354D01*
X116720069Y-119121282D01*
X116630476Y-119244594D01*
X116541117Y-119419970D01*
X116480290Y-119607173D01*
X116449500Y-119801577D01*
X116449500Y-119998422D01*
X116480291Y-120192827D01*
X116480291Y-120192830D01*
X116503412Y-120263987D01*
X116505407Y-120333828D01*
X116469327Y-120393661D01*
X116406626Y-120424489D01*
X116337212Y-120416524D01*
X116297800Y-120389986D01*
X92307316Y-96399502D01*
X92307314Y-96399500D01*
X92242645Y-96362163D01*
X92193187Y-96333608D01*
X92129539Y-96316554D01*
X92065892Y-96299500D01*
X92065891Y-96299500D01*
X86124500Y-96299500D01*
X86115814Y-96296949D01*
X86106853Y-96298238D01*
X86082812Y-96287259D01*
X86057461Y-96279815D01*
X86051533Y-96272974D01*
X86043297Y-96269213D01*
X86029007Y-96246978D01*
X86011706Y-96227011D01*
X86009418Y-96216496D01*
X86005523Y-96210435D01*
X86000500Y-96175500D01*
X86000500Y-95974000D01*
X86020185Y-95906961D01*
X86072989Y-95861206D01*
X86124500Y-95850000D01*
X86550000Y-95850000D01*
X86550000Y-94933012D01*
X86607007Y-94965925D01*
X86734174Y-95000000D01*
X86865826Y-95000000D01*
X86992993Y-94965925D01*
X87050000Y-94933012D01*
X87050000Y-95850000D01*
X87697828Y-95850000D01*
X87697844Y-95849999D01*
X87757372Y-95843598D01*
X87757379Y-95843596D01*
X87892086Y-95793354D01*
X87892093Y-95793350D01*
X88007187Y-95707190D01*
X88007190Y-95707187D01*
X88093350Y-95592093D01*
X88093354Y-95592086D01*
X88143596Y-95457379D01*
X88143598Y-95457372D01*
X88149999Y-95397844D01*
X88150000Y-95397827D01*
X88150000Y-95105050D01*
X88169685Y-95038011D01*
X88222489Y-94992256D01*
X88291647Y-94982312D01*
X88355203Y-95011337D01*
X88384485Y-95048756D01*
X88398766Y-95076786D01*
X88429357Y-95118890D01*
X88500586Y-95216928D01*
X88623072Y-95339414D01*
X88763212Y-95441232D01*
X88917555Y-95519873D01*
X89082299Y-95573402D01*
X89253389Y-95600500D01*
X89253390Y-95600500D01*
X89426610Y-95600500D01*
X89426611Y-95600500D01*
X89597701Y-95573402D01*
X89762445Y-95519873D01*
X89916788Y-95441232D01*
X90056928Y-95339414D01*
X90179414Y-95216928D01*
X90281232Y-95076788D01*
X90359873Y-94922445D01*
X90413402Y-94757701D01*
X90440500Y-94586611D01*
X90440500Y-94413389D01*
X90413402Y-94242299D01*
X90359873Y-94077555D01*
X90281232Y-93923212D01*
X90262467Y-93897385D01*
X90238988Y-93831580D01*
X90254813Y-93763526D01*
X90304919Y-93714831D01*
X90362786Y-93700500D01*
X90857213Y-93700500D01*
X90924252Y-93720185D01*
G37*
%TD.AperFunction*%
%TA.AperFunction,Conductor*%
G36*
X106164253Y-93720185D02*
G01*
X106210008Y-93772989D01*
X106219952Y-93842147D01*
X106197532Y-93897386D01*
X106178768Y-93923211D01*
X106100128Y-94077552D01*
X106046597Y-94242302D01*
X106036349Y-94307007D01*
X106019500Y-94413389D01*
X106019500Y-94586611D01*
X106046598Y-94757701D01*
X106100127Y-94922445D01*
X106178768Y-95076788D01*
X106280586Y-95216928D01*
X106403072Y-95339414D01*
X106543212Y-95441232D01*
X106697555Y-95519873D01*
X106862299Y-95573402D01*
X107033389Y-95600500D01*
X107033390Y-95600500D01*
X107206610Y-95600500D01*
X107206611Y-95600500D01*
X107377701Y-95573402D01*
X107467871Y-95544102D01*
X107537710Y-95542106D01*
X107593870Y-95574352D01*
X121168181Y-109148663D01*
X121201666Y-109209986D01*
X121204500Y-109236344D01*
X121204500Y-117709714D01*
X121197659Y-117733009D01*
X121195066Y-117757155D01*
X121187044Y-117769161D01*
X121184815Y-117776753D01*
X121177059Y-117787511D01*
X121172887Y-117792688D01*
X121114491Y-117851085D01*
X121085798Y-117900781D01*
X121079770Y-117908264D01*
X121058645Y-117922934D01*
X121040029Y-117940684D01*
X121030418Y-117942535D01*
X121022382Y-117948117D01*
X120996680Y-117949037D01*
X120971422Y-117953905D01*
X120962336Y-117950267D01*
X120952557Y-117950618D01*
X120930434Y-117937495D01*
X120906558Y-117927936D01*
X120895530Y-117918148D01*
X118605119Y-115627737D01*
X118571634Y-115566414D01*
X118568800Y-115540056D01*
X118568800Y-115510186D01*
X118588485Y-115443147D01*
X118605119Y-115422505D01*
X118618612Y-115409012D01*
X118658809Y-115368815D01*
X118731284Y-115243285D01*
X118768800Y-115103275D01*
X118768800Y-114958325D01*
X118731284Y-114818315D01*
X118707070Y-114776376D01*
X118658811Y-114692788D01*
X118658806Y-114692782D01*
X118605119Y-114639095D01*
X118571634Y-114577772D01*
X118568800Y-114551414D01*
X118568800Y-108092158D01*
X118568800Y-108092156D01*
X118544914Y-108003012D01*
X118535734Y-107987112D01*
X118498770Y-107923088D01*
X105628651Y-95052969D01*
X105595167Y-94991647D01*
X105598402Y-94926970D01*
X105599869Y-94922454D01*
X105599874Y-94922445D01*
X105653403Y-94757701D01*
X105680501Y-94586611D01*
X105680501Y-94413389D01*
X105653403Y-94242299D01*
X105599874Y-94077555D01*
X105521233Y-93923212D01*
X105502468Y-93897385D01*
X105478989Y-93831580D01*
X105494814Y-93763526D01*
X105544920Y-93714831D01*
X105602787Y-93700500D01*
X106097214Y-93700500D01*
X106164253Y-93720185D01*
G37*
%TD.AperFunction*%
%TA.AperFunction,Conductor*%
G36*
X101084253Y-93720185D02*
G01*
X101130008Y-93772989D01*
X101139952Y-93842147D01*
X101117532Y-93897386D01*
X101098768Y-93923211D01*
X101020128Y-94077552D01*
X100966597Y-94242302D01*
X100956349Y-94307007D01*
X100939500Y-94413389D01*
X100939500Y-94586611D01*
X100966598Y-94757701D01*
X101020127Y-94922445D01*
X101098768Y-95076788D01*
X101200586Y-95216928D01*
X101323072Y-95339414D01*
X101463212Y-95441232D01*
X101617555Y-95519873D01*
X101782299Y-95573402D01*
X101953389Y-95600500D01*
X101953390Y-95600500D01*
X102126610Y-95600500D01*
X102126611Y-95600500D01*
X102297701Y-95573402D01*
X102462445Y-95519873D01*
X102462447Y-95519871D01*
X102466971Y-95518402D01*
X102536812Y-95516407D01*
X102592970Y-95548652D01*
X112699881Y-105655563D01*
X112733366Y-105716886D01*
X112736200Y-105743244D01*
X112736200Y-107604814D01*
X112716515Y-107671853D01*
X112663711Y-107717608D01*
X112594553Y-107727552D01*
X112530997Y-107698527D01*
X112524519Y-107692495D01*
X112513917Y-107681893D01*
X112513911Y-107681888D01*
X112388388Y-107609417D01*
X112388389Y-107609417D01*
X112371210Y-107604814D01*
X112248375Y-107571900D01*
X112103425Y-107571900D01*
X111980590Y-107604814D01*
X111963411Y-107609417D01*
X111837888Y-107681888D01*
X111837882Y-107681893D01*
X111735393Y-107784382D01*
X111735388Y-107784388D01*
X111662917Y-107909911D01*
X111662916Y-107909915D01*
X111625400Y-108049925D01*
X111625400Y-108194875D01*
X111662905Y-108334844D01*
X111662917Y-108334888D01*
X111735388Y-108460411D01*
X111735393Y-108460417D01*
X111789081Y-108514105D01*
X111822566Y-108575428D01*
X111825400Y-108601786D01*
X111825400Y-112982556D01*
X111805715Y-113049595D01*
X111752911Y-113095350D01*
X111683753Y-113105294D01*
X111620197Y-113076269D01*
X111613719Y-113070237D01*
X109184772Y-110641290D01*
X109151287Y-110579967D01*
X109156271Y-110510275D01*
X109198143Y-110454342D01*
X109210447Y-110446225D01*
X109230915Y-110434409D01*
X109333409Y-110331915D01*
X109405884Y-110206385D01*
X109443400Y-110066375D01*
X109443400Y-109921425D01*
X109405884Y-109781415D01*
X109378217Y-109733495D01*
X109333411Y-109655888D01*
X109333406Y-109655882D01*
X109279619Y-109602095D01*
X109246134Y-109540772D01*
X109243300Y-109514414D01*
X109243300Y-103846658D01*
X109243300Y-103846656D01*
X109219414Y-103757512D01*
X109188928Y-103704709D01*
X109173270Y-103677588D01*
X100548651Y-95052969D01*
X100515167Y-94991647D01*
X100518402Y-94926971D01*
X100519873Y-94922444D01*
X100573402Y-94757701D01*
X100600500Y-94586611D01*
X100600500Y-94413389D01*
X100573402Y-94242299D01*
X100519873Y-94077555D01*
X100441232Y-93923212D01*
X100422467Y-93897385D01*
X100398988Y-93831580D01*
X100414813Y-93763526D01*
X100464919Y-93714831D01*
X100522786Y-93700500D01*
X101017214Y-93700500D01*
X101084253Y-93720185D01*
G37*
%TD.AperFunction*%
%TA.AperFunction,Conductor*%
G36*
X98544253Y-93720185D02*
G01*
X98590008Y-93772989D01*
X98599952Y-93842147D01*
X98577532Y-93897386D01*
X98558768Y-93923211D01*
X98480128Y-94077552D01*
X98426597Y-94242302D01*
X98416349Y-94307007D01*
X98399500Y-94413389D01*
X98399500Y-94586611D01*
X98426598Y-94757701D01*
X98480127Y-94922445D01*
X98558768Y-95076788D01*
X98660586Y-95216928D01*
X98783072Y-95339414D01*
X98923212Y-95441232D01*
X99077555Y-95519873D01*
X99242299Y-95573402D01*
X99413389Y-95600500D01*
X99413390Y-95600500D01*
X99586610Y-95600500D01*
X99586611Y-95600500D01*
X99757701Y-95573402D01*
X99922445Y-95519873D01*
X99922447Y-95519871D01*
X99926971Y-95518402D01*
X99996812Y-95516407D01*
X100052970Y-95548652D01*
X108505981Y-104001663D01*
X108539466Y-104062986D01*
X108542300Y-104089344D01*
X108542300Y-109514614D01*
X108534982Y-109539534D01*
X108531480Y-109565273D01*
X108524411Y-109575536D01*
X108522615Y-109581653D01*
X108512623Y-109595108D01*
X108509450Y-109598825D01*
X108452391Y-109655885D01*
X108434893Y-109686191D01*
X108427513Y-109694840D01*
X108407396Y-109707982D01*
X108390007Y-109724563D01*
X108378678Y-109726746D01*
X108369021Y-109733056D01*
X108344994Y-109733237D01*
X108321400Y-109737784D01*
X108310689Y-109733495D01*
X108299153Y-109733583D01*
X108278842Y-109720745D01*
X108256536Y-109711815D01*
X108245509Y-109702027D01*
X105240219Y-106696737D01*
X105206734Y-106635414D01*
X105203900Y-106609056D01*
X105203900Y-103070986D01*
X105223585Y-103003947D01*
X105240219Y-102983305D01*
X105293909Y-102929615D01*
X105366384Y-102804085D01*
X105403900Y-102664075D01*
X105403900Y-102519125D01*
X105366384Y-102379115D01*
X105293909Y-102253585D01*
X105191415Y-102151091D01*
X105191413Y-102151090D01*
X105191411Y-102151088D01*
X105065888Y-102078617D01*
X105065889Y-102078617D01*
X105054406Y-102075540D01*
X104925875Y-102041100D01*
X104780925Y-102041100D01*
X104652393Y-102075540D01*
X104640911Y-102078617D01*
X104515388Y-102151088D01*
X104515382Y-102151093D01*
X104412893Y-102253582D01*
X104412888Y-102253588D01*
X104340417Y-102379111D01*
X104322764Y-102444994D01*
X104286398Y-102504654D01*
X104223551Y-102535183D01*
X104202989Y-102536900D01*
X102156476Y-102536900D01*
X102089437Y-102517215D01*
X102043682Y-102464411D01*
X102033738Y-102395253D01*
X102036701Y-102380807D01*
X102037155Y-102379111D01*
X102050000Y-102331175D01*
X102050000Y-102186225D01*
X102012484Y-102046215D01*
X101940009Y-101920685D01*
X101837515Y-101818191D01*
X101837513Y-101818190D01*
X101837511Y-101818188D01*
X101711988Y-101745717D01*
X101711989Y-101745717D01*
X101700506Y-101742640D01*
X101571975Y-101708200D01*
X101571972Y-101708200D01*
X101496044Y-101708200D01*
X101429005Y-101688515D01*
X101408363Y-101671881D01*
X97346819Y-97610337D01*
X97313334Y-97549014D01*
X97310500Y-97522656D01*
X97310500Y-95632518D01*
X97330185Y-95565479D01*
X97378206Y-95522033D01*
X97536786Y-95441233D01*
X97536785Y-95441233D01*
X97536788Y-95441232D01*
X97676928Y-95339414D01*
X97799414Y-95216928D01*
X97901232Y-95076788D01*
X97979873Y-94922445D01*
X98033402Y-94757701D01*
X98060500Y-94586611D01*
X98060500Y-94413389D01*
X98033402Y-94242299D01*
X97979873Y-94077555D01*
X97901232Y-93923212D01*
X97882467Y-93897385D01*
X97858988Y-93831580D01*
X97874813Y-93763526D01*
X97924919Y-93714831D01*
X97982786Y-93700500D01*
X98477214Y-93700500D01*
X98544253Y-93720185D01*
G37*
%TD.AperFunction*%
%TA.AperFunction,Conductor*%
G36*
X103624254Y-93720185D02*
G01*
X103670009Y-93772989D01*
X103679953Y-93842147D01*
X103657533Y-93897386D01*
X103638769Y-93923211D01*
X103560129Y-94077552D01*
X103506598Y-94242302D01*
X103496350Y-94307007D01*
X103479501Y-94413389D01*
X103479501Y-94586611D01*
X103506599Y-94757701D01*
X103560128Y-94922445D01*
X103638769Y-95076788D01*
X103740587Y-95216928D01*
X103863073Y-95339414D01*
X104003213Y-95441232D01*
X104157556Y-95519873D01*
X104322300Y-95573402D01*
X104493390Y-95600500D01*
X104493391Y-95600500D01*
X104666611Y-95600500D01*
X104666612Y-95600500D01*
X104837702Y-95573402D01*
X105002446Y-95519873D01*
X105002451Y-95519870D01*
X105006970Y-95518402D01*
X105076812Y-95516407D01*
X105132970Y-95548652D01*
X112123265Y-102538947D01*
X112156750Y-102600270D01*
X112151766Y-102669962D01*
X112109894Y-102725895D01*
X112067679Y-102746402D01*
X112049716Y-102751215D01*
X112049711Y-102751217D01*
X111924188Y-102823688D01*
X111924182Y-102823693D01*
X111821693Y-102926182D01*
X111821688Y-102926188D01*
X111749217Y-103051711D01*
X111749216Y-103051715D01*
X111711700Y-103191725D01*
X111711700Y-103191727D01*
X111711700Y-103336674D01*
X111716134Y-103353222D01*
X111714471Y-103423072D01*
X111675308Y-103480934D01*
X111611079Y-103508438D01*
X111542177Y-103496851D01*
X111508678Y-103472996D01*
X103088652Y-95052970D01*
X103055167Y-94991647D01*
X103058402Y-94926971D01*
X103059873Y-94922444D01*
X103113402Y-94757701D01*
X103140500Y-94586611D01*
X103140500Y-94413389D01*
X103113402Y-94242299D01*
X103059873Y-94077555D01*
X102981232Y-93923212D01*
X102962467Y-93897385D01*
X102938988Y-93831580D01*
X102954813Y-93763526D01*
X103004919Y-93714831D01*
X103062786Y-93700500D01*
X103557215Y-93700500D01*
X103624254Y-93720185D01*
G37*
%TD.AperFunction*%
%TA.AperFunction,Conductor*%
G36*
X108222389Y-93731649D02*
G01*
X108234351Y-93742165D01*
X111251748Y-96759562D01*
X111285233Y-96820885D01*
X111280249Y-96890577D01*
X111269500Y-96909994D01*
X111270455Y-96910546D01*
X111193917Y-97043111D01*
X111193916Y-97043115D01*
X111156400Y-97183125D01*
X111156400Y-97328075D01*
X111193916Y-97468085D01*
X111193917Y-97468088D01*
X111266388Y-97593611D01*
X111266390Y-97593613D01*
X111266391Y-97593615D01*
X111368885Y-97696109D01*
X111368886Y-97696110D01*
X111368888Y-97696111D01*
X111494411Y-97768582D01*
X111494412Y-97768582D01*
X111494415Y-97768584D01*
X111634425Y-97806100D01*
X111710356Y-97806100D01*
X111777395Y-97825785D01*
X111798037Y-97842419D01*
X113180806Y-99225188D01*
X113214291Y-99286511D01*
X113209307Y-99356203D01*
X113167435Y-99412136D01*
X113125221Y-99432642D01*
X113108137Y-99437220D01*
X113105911Y-99437817D01*
X112980388Y-99510288D01*
X112980382Y-99510293D01*
X112877893Y-99612782D01*
X112877886Y-99612791D01*
X112865637Y-99634008D01*
X112815070Y-99682223D01*
X112746462Y-99695445D01*
X112681598Y-99669477D01*
X112670570Y-99659688D01*
X108133859Y-95122977D01*
X108100374Y-95061654D01*
X108105358Y-94991962D01*
X108111056Y-94979001D01*
X108139873Y-94922445D01*
X108193402Y-94757701D01*
X108220500Y-94586611D01*
X108220500Y-94413389D01*
X108193402Y-94242299D01*
X108139873Y-94077555D01*
X108061232Y-93923212D01*
X108061230Y-93923209D01*
X108061229Y-93923207D01*
X108046353Y-93902732D01*
X108022872Y-93836926D01*
X108038697Y-93768872D01*
X108088802Y-93720177D01*
X108157280Y-93706301D01*
X108222389Y-93731649D01*
G37*
%TD.AperFunction*%
%TA.AperFunction,Conductor*%
G36*
X93464253Y-93720185D02*
G01*
X93510008Y-93772989D01*
X93519952Y-93842147D01*
X93497532Y-93897386D01*
X93478768Y-93923211D01*
X93400128Y-94077552D01*
X93346597Y-94242302D01*
X93336349Y-94307007D01*
X93319500Y-94413389D01*
X93319500Y-94586611D01*
X93346598Y-94757701D01*
X93400127Y-94922445D01*
X93478768Y-95076788D01*
X93580586Y-95216928D01*
X93703072Y-95339414D01*
X93843212Y-95441232D01*
X93997555Y-95519873D01*
X94162299Y-95573402D01*
X94333389Y-95600500D01*
X94333390Y-95600500D01*
X94506610Y-95600500D01*
X94506611Y-95600500D01*
X94677701Y-95573402D01*
X94842445Y-95519873D01*
X94842447Y-95519871D01*
X94846971Y-95518402D01*
X94916812Y-95516407D01*
X94972970Y-95548652D01*
X95786481Y-96362163D01*
X95801184Y-96389090D01*
X95817777Y-96414909D01*
X95818668Y-96421109D01*
X95819966Y-96423486D01*
X95822800Y-96449844D01*
X95822800Y-96660423D01*
X95803115Y-96727462D01*
X95750311Y-96773217D01*
X95681153Y-96783161D01*
X95666708Y-96780198D01*
X95622676Y-96768400D01*
X95622675Y-96768400D01*
X95477725Y-96768400D01*
X95349193Y-96802840D01*
X95337711Y-96805917D01*
X95212188Y-96878388D01*
X95212182Y-96878393D01*
X95109693Y-96980882D01*
X95109688Y-96980888D01*
X95097838Y-97001413D01*
X95047269Y-97049627D01*
X94978661Y-97062847D01*
X94913797Y-97036876D01*
X94902772Y-97027090D01*
X92928651Y-95052969D01*
X92895166Y-94991646D01*
X92898401Y-94926969D01*
X92899870Y-94922449D01*
X92899872Y-94922445D01*
X92953401Y-94757701D01*
X92980499Y-94586611D01*
X92980499Y-94413389D01*
X92953401Y-94242299D01*
X92899872Y-94077555D01*
X92821231Y-93923212D01*
X92802466Y-93897385D01*
X92778987Y-93831580D01*
X92794812Y-93763526D01*
X92844918Y-93714831D01*
X92902785Y-93700500D01*
X93397214Y-93700500D01*
X93464253Y-93720185D01*
G37*
%TD.AperFunction*%
%TD*%
%TA.AperFunction,NonConductor*%
G36*
X104445939Y-103257585D02*
G01*
X104491694Y-103310389D01*
X104502900Y-103361900D01*
X104502900Y-106292656D01*
X104483215Y-106359695D01*
X104430411Y-106405450D01*
X104361253Y-106415394D01*
X104297697Y-106386369D01*
X104291219Y-106380337D01*
X101360463Y-103449581D01*
X101326978Y-103388258D01*
X101331962Y-103318566D01*
X101373834Y-103262633D01*
X101439298Y-103238216D01*
X101448144Y-103237900D01*
X104378900Y-103237900D01*
X104445939Y-103257585D01*
G37*
%TD.AperFunction*%
%TA.AperFunction,NonConductor*%
G36*
X112161618Y-103807168D02*
G01*
X112189725Y-103814700D01*
X112269954Y-103814700D01*
X112274255Y-103814999D01*
X112303137Y-103825705D01*
X112332695Y-103834385D01*
X112335603Y-103837741D01*
X112339768Y-103839285D01*
X112353337Y-103851019D01*
X114295181Y-105792863D01*
X114328666Y-105854186D01*
X114331500Y-105880544D01*
X114331500Y-112817356D01*
X114311815Y-112884395D01*
X114259011Y-112930150D01*
X114189853Y-112940094D01*
X114126297Y-112911069D01*
X114119819Y-112905037D01*
X113673319Y-112458537D01*
X113639834Y-112397214D01*
X113637000Y-112370856D01*
X113637000Y-112295327D01*
X113637000Y-112295325D01*
X113599484Y-112155315D01*
X113527009Y-112029785D01*
X113473519Y-111976295D01*
X113440034Y-111914972D01*
X113437200Y-111888614D01*
X113437200Y-105500558D01*
X113437200Y-105500556D01*
X113413314Y-105411412D01*
X113408764Y-105403531D01*
X113367170Y-105331488D01*
X112053403Y-104017721D01*
X112040795Y-103994633D01*
X112024989Y-103973605D01*
X112024315Y-103964452D01*
X112019918Y-103956398D01*
X112021794Y-103930160D01*
X112019865Y-103903923D01*
X112024247Y-103895859D01*
X112024902Y-103886706D01*
X112040666Y-103865647D01*
X112053228Y-103842534D01*
X112061274Y-103838119D01*
X112066774Y-103830773D01*
X112091421Y-103821580D01*
X112114484Y-103808927D01*
X112128011Y-103807932D01*
X112132238Y-103806356D01*
X112139725Y-103807071D01*
X112149683Y-103806339D01*
X112161618Y-103807168D01*
G37*
%TD.AperFunction*%
%TA.AperFunction,NonConductor*%
G36*
X115237703Y-105653831D02*
G01*
X115244181Y-105659863D01*
X117831481Y-108247163D01*
X117864966Y-108308486D01*
X117867800Y-108334844D01*
X117867800Y-114551414D01*
X117848115Y-114618453D01*
X117831481Y-114639095D01*
X117777793Y-114692782D01*
X117777788Y-114692788D01*
X117705317Y-114818311D01*
X117705316Y-114818315D01*
X117667800Y-114958325D01*
X117667800Y-115103275D01*
X117688998Y-115182386D01*
X117687335Y-115252235D01*
X117648172Y-115310098D01*
X117583944Y-115337602D01*
X117515042Y-115326015D01*
X117481542Y-115302160D01*
X115068819Y-112889437D01*
X115035334Y-112828114D01*
X115032500Y-112801756D01*
X115032500Y-105747544D01*
X115052185Y-105680505D01*
X115104989Y-105634750D01*
X115174147Y-105624806D01*
X115237703Y-105653831D01*
G37*
%TD.AperFunction*%
%TA.AperFunction,NonConductor*%
G36*
X112731603Y-112791873D02*
G01*
X112738081Y-112797905D01*
X112748485Y-112808309D01*
X112748486Y-112808310D01*
X112748488Y-112808311D01*
X112874011Y-112880782D01*
X112874012Y-112880782D01*
X112874015Y-112880784D01*
X113014025Y-112918300D01*
X113090356Y-112918300D01*
X113157395Y-112937985D01*
X113178037Y-112954619D01*
X116939637Y-116716219D01*
X116973122Y-116777542D01*
X116968138Y-116847234D01*
X116926266Y-116903167D01*
X116860802Y-116927584D01*
X116851956Y-116927900D01*
X115522744Y-116927900D01*
X115455705Y-116908215D01*
X115435063Y-116891581D01*
X115183881Y-116640399D01*
X115150396Y-116579076D01*
X115155380Y-116509384D01*
X115197252Y-116453451D01*
X115209562Y-116445331D01*
X115333615Y-116373709D01*
X115436109Y-116271215D01*
X115508584Y-116145685D01*
X115546100Y-116005675D01*
X115546100Y-115860725D01*
X115508584Y-115720715D01*
X115498010Y-115702401D01*
X115436111Y-115595188D01*
X115436106Y-115595182D01*
X115333617Y-115492693D01*
X115333611Y-115492688D01*
X115208088Y-115420217D01*
X115208089Y-115420217D01*
X115196606Y-115417140D01*
X115068075Y-115382700D01*
X115068072Y-115382700D01*
X114992144Y-115382700D01*
X114925105Y-115363015D01*
X114904463Y-115346381D01*
X112562719Y-113004637D01*
X112548015Y-112977709D01*
X112531423Y-112951891D01*
X112530531Y-112945690D01*
X112529234Y-112943314D01*
X112526400Y-112916956D01*
X112526400Y-112885586D01*
X112546085Y-112818547D01*
X112598889Y-112772792D01*
X112668047Y-112762848D01*
X112731603Y-112791873D01*
G37*
%TD.AperFunction*%
M02*
